<?xml version="1.0" encoding="utf-8"?>
<!-- Generator: Adobe Illustrator 17.0.0, SVG Export Plug-In . SVG Version: 6.00 Build 0)  -->
<!DOCTYPE svg PUBLIC "-//W3C//DTD SVG 1.1//EN" "http://www.w3.org/Graphics/SVG/1.1/DTD/svg11.dtd">
<svg version="1.1" xmlns="http://www.w3.org/2000/svg" xmlns:xlink="http://www.w3.org/1999/xlink" x="0px" y="0px" width="500px"
	 height="500px" viewBox="0 0 500 500" enable-background="new 0 0 500 500" xml:space="preserve">
<g id="Layer_1" display="none">
	<g display="inline">
		<g>
			<g>
				<path fill="#EE2138" d="M441.406,0H58.594C26.285,0,0,26.285,0,58.594v382.813C0,473.715,26.285,500,58.594,500h382.812
					C473.715,500,500,473.715,500,441.406V58.594C500,26.285,473.715,0,441.406,0z M460.938,441.406
					c0,10.77-8.762,19.531-19.531,19.531H58.594c-10.77,0-19.531-8.762-19.531-19.531V58.594c0-10.77,8.762-19.531,19.531-19.531
					h382.812c10.77,0,19.531,8.762,19.531,19.531V441.406z"/>
				<path fill="#EE2138" d="M279.297,97.656H142.578v304.688h39.063V292.969h97.656c53.848,0,97.656-43.809,97.656-97.656
					S333.145,97.656,279.297,97.656z M279.297,253.906h-97.656V136.719h97.656c32.309,0,58.594,26.285,58.594,58.594
					S311.605,253.906,279.297,253.906z"/>
			</g>
		</g>
	</g>
</g>
<g id="Layer_2" display="none">
	<g display="inline">
		<g>
			<path fill="#EE2138" d="M387.207,0C333.318,0,288.18,38.155,277.37,88.867H0.488v29.654l191.406,224.609v117.807H113.77V500
				h195.313v-39.063h-78.125V343.131l191.406-224.609V88.867h-104.53c9.798-28.922,37.185-49.805,69.374-49.805
				c40.386,0,73.242,32.856,73.242,73.242c0,26.072-13.704,48.99-34.277,61.973l-42.83,50.26c1.285,0.043,2.573,0.073,3.865,0.073
				c61.925,0,112.305-50.38,112.305-112.305S449.132,0,387.207,0z M211.426,305.825l-83.359-97.82h166.719L211.426,305.825z
				 M363.023,127.93l-34.95,41.013H96.191v1.658L59.828,127.93H363.023z"/>
		</g>
	</g>
</g>
<g id="Layer_3" display="none">
	<g display="inline">
		<g>
			<g>
				<path fill="#EE2138" d="M402.344,117.676c32.309,0,58.594-26.285,58.594-58.594S434.652,0.488,402.344,0.488
					c-32.309,0-58.594,26.285-58.594,58.594S370.035,117.676,402.344,117.676z M402.344,39.551c10.77,0,19.531,8.762,19.531,19.531
					c0,10.77-8.762,19.531-19.531,19.531c-10.77,0-19.531-8.762-19.531-19.531C382.813,48.313,391.574,39.551,402.344,39.551z"/>
				<path fill="#EE2138" d="M137.695,117.676c32.309,0,58.594-26.285,58.594-58.594S170.004,0.488,137.695,0.488
					S79.102,26.773,79.102,59.082S105.387,117.676,137.695,117.676z M137.695,39.551c10.77,0,19.531,8.762,19.531,19.531
					c0,10.77-8.762,19.531-19.531,19.531s-19.531-8.762-19.531-19.531C118.164,48.313,126.926,39.551,137.695,39.551z"/>
				<path fill="#EE2138" d="M441.406,136.23h-78.125c-32.309,0-58.594,26.285-58.594,58.594v84.961h-69.336v-84.961
					c0-32.309-26.285-58.594-58.594-58.594H98.633c-32.309,0-58.594,26.285-58.594,58.594v84.961H0v219.727h39.063V318.848h0.977
					h264.648v39.063h39.063v141.602h39.063V318.848H343.75V194.824c0-10.77,8.762-19.531,19.531-19.531h78.125
					c10.77,0,19.531,8.762,19.531,19.531v124.023h-39.063v180.664h39.063V357.91H500V194.824
					C500,162.516,473.715,136.23,441.406,136.23z M196.289,279.785H79.102v-84.961c0-10.77,8.762-19.531,19.531-19.531h78.125
					c10.77,0,19.531,8.762,19.531,19.531V279.785z"/>
			</g>
		</g>
	</g>
</g>
<g id="Layer_4" display="none">
	<g display="inline">
		<g>
			<g>
				<path fill="#EE2138" d="M339.185,135.073c-3.983-8.568-8.496-18.278-8.105-26.137c0.297-5.962,3.46-12.957,6.81-20.362
					c0.781-1.729,1.56-3.452,2.313-5.178c3.98-9.111,9.375-23.025,10.261-38.604c0.966-16.98-3.673-32.801-13.06-44.543
					l-30.512,24.392c3.318,4.15,4.984,10.686,4.572,17.934c-0.403,7.084-2.646,15.086-7.057,25.185
					c-0.686,1.571-1.398,3.143-2.11,4.718c-4.484,9.916-9.567,21.153-10.232,34.521c-0.869,17.504,6.394,33.13,11.697,44.539
					L339.185,135.073z"/>
				<path fill="#EE2138" d="M435.768,229.441c-5.866-11.975-12.515-25.547-11.896-37.331c0.468-8.956,5.123-18.721,10.051-29.06
					c1.084-2.274,2.166-4.544,3.211-6.814c5.389-11.704,12.689-29.554,13.877-49.368c1.268-21.186-4.733-40.808-16.903-55.25
					l-29.871,25.171c5.604,6.649,8.439,16.762,7.782,27.741c-0.604,10.08-3.899,21.319-10.367,35.369
					c-0.974,2.113-1.982,4.226-2.99,6.343c-6.058,12.709-12.924,27.114-13.799,43.824c-1.148,21.907,8.264,41.119,15.825,56.557
					L435.768,229.441z"/>
				<circle fill="#EE2138" cx="250.977" cy="211.664" r="19.531"/>
				<path fill="#EE2138" d="M460.938,460.688v-18.555c0-56.343-21.941-109.314-61.782-149.155
					c-39.841-39.841-92.813-61.782-149.155-61.782s-109.314,21.941-149.155,61.782c-39.841,39.841-61.782,92.813-61.782,149.155
					v18.555H0v39.063h500v-39.063H460.938z M421.875,460.688H78.125v-18.555c0-94.772,77.102-171.875,171.875-171.875
					s171.875,77.103,171.875,171.875V460.688z"/>
				<path fill="#EE2138" d="M100.807,228.465c-5.866-11.975-12.515-25.547-11.896-37.331c0.468-8.956,5.123-18.721,10.051-29.06
					c1.084-2.274,2.166-4.544,3.211-6.814c5.389-11.704,12.688-29.554,13.877-49.368c1.269-21.186-4.733-40.808-16.903-55.25
					L69.274,75.813c5.604,6.649,8.439,16.762,7.782,27.741c-0.604,10.08-3.899,21.319-10.367,35.369
					c-0.974,2.113-1.981,4.226-2.99,6.343C57.642,157.975,50.775,172.38,49.9,189.09c-1.148,21.907,8.264,41.119,15.825,56.557
					L100.807,228.465z"/>
				<path fill="#EE2138" d="M215.161,135.073c-3.982-8.568-8.496-18.278-8.105-26.137c0.297-5.962,3.46-12.957,6.809-20.362
					c0.781-1.729,1.561-3.452,2.314-5.178c3.98-9.111,9.375-23.025,10.261-38.604c0.966-16.98-3.673-32.801-13.06-44.543
					l-30.512,24.392c3.318,4.15,4.984,10.686,4.572,17.934c-0.403,7.084-2.646,15.086-7.057,25.185
					c-0.686,1.571-1.398,3.143-2.11,4.718c-4.484,9.916-9.567,21.153-10.232,34.521c-0.869,17.504,6.394,33.13,11.697,44.539
					L215.161,135.073z"/>
			</g>
		</g>
	</g>
</g>
<g id="Layer_5" display="none">
	<g display="inline">
		<g>
			<g>
				<path fill="#EE2138" d="M76.66,392.578c22.68,0,43.081-9.845,57.129-25.449c14.048,15.604,34.449,25.449,57.129,25.449
					c23.749,0,45.01-10.788,59.082-27.689c14.072,16.901,35.333,27.689,59.082,27.689c22.68,0,43.081-9.845,57.129-25.449
					c14.048,15.604,34.449,25.449,57.129,25.449c42.271,0,76.66-34.171,76.66-76.172h-39.063c0,20.462-16.866,37.109-37.598,37.109
					c-20.731,0-37.598-16.647-37.598-37.109V58.594c0-10.77,8.762-19.531,19.531-19.531h34.18V0h-34.18
					c-32.309,0-58.594,26.285-58.594,58.594v31.25H153.32v-31.25c0-10.77,8.762-19.531,19.531-19.531h34.18V0h-34.18
					c-32.309,0-58.594,26.285-58.594,58.594v257.813c0,20.462-16.866,37.109-37.598,37.109c-20.732,0-37.598-16.647-37.598-37.109H0
					C0,358.407,34.39,392.578,76.66,392.578z M153.32,128.906H346.68v39.063H153.32V128.906z M153.32,207.031H346.68v39.063H153.32
					V207.031z M153.32,285.156H346.68v31.25c0,20.462-16.866,37.109-37.598,37.109c-20.731,0-37.598-16.647-37.598-37.109h-3.906
					h-35.156h-3.906c0,20.462-16.866,37.109-37.598,37.109c-20.732,0-37.598-16.647-37.598-37.109V285.156z"/>
				<path fill="#EE2138" d="M423.34,460.938c-20.731,0-37.598-16.647-37.598-37.109h-1.953H346.68h-1.953
					c0,20.462-16.866,37.109-37.598,37.109c-20.731,0-37.598-16.647-37.598-37.109h-39.062c0,20.462-16.866,37.109-37.598,37.109
					c-20.731,0-37.598-16.647-37.598-37.109h-1.953h-37.109h-1.953c0,20.462-16.866,37.109-37.598,37.109
					c-20.732,0-37.598-16.647-37.598-37.109H0C0,465.829,34.39,500,76.66,500c23.214,0,44.036-10.32,58.105-26.569
					C148.835,489.68,169.657,500,192.871,500c22.68,0,43.081-9.845,57.129-25.449C264.048,490.155,284.449,500,307.129,500
					c23.214,0,44.036-10.32,58.105-26.569C379.304,489.68,400.126,500,423.34,500c42.271,0,76.66-34.171,76.66-76.172h-39.063
					C460.938,444.29,444.071,460.938,423.34,460.938z"/>
			</g>
		</g>
	</g>
</g>
<g id="Layer_6" display="none">
	<g display="inline">
		<g>
			<g>
				<path fill="#EE2138" d="M249.354,39.063c46.692,0,90.59,18.183,123.605,51.199l27.621-27.62C360.188,22.246,306.48,0,249.354,0
					S138.522,22.246,98.128,62.642l27.621,27.62C158.766,57.245,202.663,39.063,249.354,39.063z"/>
				<path fill="#EE2138" d="M345.685,117.537c-25.73-25.729-59.941-39.9-96.33-39.9s-70.599,14.171-96.329,39.901l27.621,27.62
					c18.352-18.353,42.754-28.46,68.708-28.46c25.955,0,50.355,10.108,68.708,28.461L345.685,117.537z"/>
				<path fill="#EE2138" d="M447.799,70.668l-38.709,38.707h32.316c10.77,0,19.531,8.762,19.531,19.531v234.375
					c0,10.77-8.762,19.531-19.531,19.531H58.594c-10.77,0-19.531-8.762-19.531-19.531V128.906c0-10.77,8.762-19.531,19.531-19.531
					H89.62L51.057,70.813C22.298,74.525,0,99.152,0,128.906v234.375c0,32.309,26.285,58.594,58.594,58.594h171.875v39.063H128.906
					V500h242.187v-39.063H269.531v-39.063h171.875c32.309,0,58.594-26.285,58.594-58.594V128.906
					C500,98.758,477.11,73.863,447.799,70.668z"/>
				<path fill="#EE2138" d="M207.923,172.435l27.621,27.622c3.689-3.689,8.594-5.721,13.811-5.721c5.218,0,10.122,2.031,13.811,5.72
					l27.622-27.62c-11.067-11.067-25.781-17.162-41.433-17.162C233.704,155.273,218.99,161.368,207.923,172.435z"/>
			</g>
		</g>
	</g>
</g>
<g id="Layer_7" display="none">
	<g display="inline">
		<g>
			<g>
				<path fill="#EE2138" d="M474.998,300h-75V175.001h75c4.602,0,8.333-3.732,8.333-8.333v-41.083L499.915,9.518
					c0.652-4.555-2.51-8.779-7.066-9.432c-0.393-0.056-0.788-0.084-1.184-0.084H258.332c-4.602-0.001-8.333,3.73-8.334,8.333
					c0,0.396,0.027,0.792,0.084,1.184l16.584,116.066v41.083c0,4.602,3.73,8.333,8.333,8.333h74.999V300h-8.333
					c-13.807,0-25,11.192-25,25c0,13.807,11.193,25,25,25h8.333v16.666h-58.332L299.44,250h8.892c4.602,0,8.333-3.731,8.333-8.333
					v-33.333c0-4.602-3.731-8.333-8.333-8.333h-58.958c-2.634-18.058-13.554-33.849-29.517-42.691
					c13.213-29.382,0.104-63.912-29.279-77.124c-29.382-13.212-63.912-0.104-77.125,29.279c-2.292,5.098-3.84,10.499-4.596,16.039
					c-45.683-4.941-86.723,28.085-91.665,73.769c-0.026,0.244-0.052,0.487-0.076,0.731H8.333c-4.602,0-8.333,3.731-8.333,8.333
					v33.333c0,4.602,3.731,8.333,8.333,8.333h8.875l16.125,242.215c0.291,4.387,3.938,7.792,8.333,7.783h449.999
					c4.602,0,8.333-3.731,8.333-8.333V325C499.998,311.192,488.806,300,474.998,300z M267.94,16.667h32.058v50h16.667v-50h16.667
					v16.667h16.666V16.667h50v25h16.667v-25h16.667v50h16.666v-50h32.059l-14.283,99.999h-185.55L267.94,16.667z M283.332,158.334
					v-25h183.333v25H283.332z M383.332,175.001V300h-16.667V175.001H383.332z M299.998,216.667v16.666H174.999v-16.666H299.998z
					 M108.086,142.192c2.291,0.284,4.564,0.688,6.813,1.208c0.092,0,0.184,0,0.274,0c9.777,2.3,18.91,6.768,26.726,13.075
					l10.483-12.958c-8.02-6.43-17.156-11.328-26.95-14.45c2.394-22.827,22.837-39.393,45.665-37
					c22.826,2.393,39.392,22.837,37,45.665c-0.707,6.741-3.053,13.208-6.831,18.835c-2.56,3.824-1.536,9,2.288,11.561
					c0.585,0.391,1.217,0.706,1.879,0.939c13.789,4.868,24.017,16.607,26.949,30.933h-65.717c-4.602,0-8.334,3.731-8.334,8.333v75
					c0,4.602-3.73,8.333-8.332,8.333c-4.603,0-8.334-3.73-8.334-8.333v-16.667c0-13.807-11.192-24.999-25-24.999
					c-13.807,0-25,11.193-25,24.999V325c0,4.602-3.731,8.333-8.333,8.333c-4.602,0-8.334-3.731-8.334-8.333V208.333
					c0-4.602-3.731-8.333-8.333-8.333H33.892C38.417,163.548,71.634,137.667,108.086,142.192z M16.667,233.333v-16.666h41.667
					v16.666H16.667z M233.332,391.666v91.666H49.466L33.908,250h24.425v75c0,13.807,11.193,25,25,25s25-11.193,25-25v-58.334
					c0-4.601,3.731-8.332,8.333-8.332c4.602,0,8.334,3.73,8.334,8.332v16.667c0,13.808,11.191,25,25,25
					c13.807,0,24.999-11.192,24.999-25V250h107.759l-7.759,116.666h-16.667C244.525,366.666,233.332,377.859,233.332,391.666z
					 M483.331,483.332h-25v-41.666h-16.666v41.666h-25v-41.666h-16.667v41.666h-25v-41.666h-16.666v41.666h-25v-41.666h-16.667
					v41.666h-24.999v-41.666h-16.667v41.666h-25v-66.666h233.332V483.332z M483.331,399.999H249.999v-8.333
					c0-4.601,3.732-8.333,8.333-8.333h183.333c13.807,0,25-11.192,25-25c0-13.808-11.193-25-25-25h-100
					c-4.602,0-8.333-3.731-8.333-8.333c0-4.603,3.731-8.334,8.333-8.334h133.333c4.602,0,8.333,3.732,8.333,8.334V399.999z
					 M366.665,366.666V350h16.667v16.666H366.665z M399.998,366.666V350h41.667c4.602,0,8.333,3.73,8.333,8.333
					c0,4.602-3.731,8.333-8.333,8.333H399.998z"/>
			</g>
		</g>
		<g>
			<g>
				<polygon fill="#EE2138" points="33.333,83.334 33.333,66.668 16.667,66.668 16.667,83.334 0,83.334 0,100.001 16.667,100.001 
					16.667,116.667 33.333,116.667 33.333,100.001 50,100.001 50,83.334 				"/>
			</g>
		</g>
		<g>
			<g>
				<polygon fill="#EE2138" points="474.998,233.333 474.998,216.667 458.331,216.667 458.331,233.333 441.665,233.333 441.665,250 
					458.331,250 458.331,266.666 474.998,266.666 474.998,250 491.665,250 491.665,233.333 				"/>
			</g>
		</g>
		<g>
			<g>
				<polygon fill="#EE2138" points="158.332,16.667 158.332,0.001 141.666,0.001 141.666,16.667 125,16.667 125,33.334 
					141.666,33.334 141.666,50.001 158.332,50.001 158.332,33.334 174.999,33.334 174.999,16.667 				"/>
			</g>
		</g>
		<g>
			<g>
				<rect x="299.998" y="83.334" fill="#EE2138" width="16.667" height="16.667"/>
			</g>
		</g>
	</g>
</g>
<g id="Layer_8" display="none">
	<g display="inline">
		<g>
			<g>
				<path fill="#EE2138" d="M250,0C153.074,0,74.219,78.855,74.219,175.781c0,32.748,9.071,64.707,26.239,92.434l139.536,224.86
					c2.673,4.308,7.382,6.925,12.446,6.925c0.039,0,0.077,0,0.116,0c5.108-0.04,9.827-2.738,12.451-7.121l135.98-227.039
					c16.221-27.141,24.794-58.282,24.794-90.059C425.781,78.855,346.926,0,250,0z M375.846,250.799L252.219,457.213l-126.86-204.434
					c-14.29-23.078-22.038-49.703-22.038-76.998c0-80.771,65.908-146.68,146.68-146.68s146.582,65.908,146.582,146.68
					C396.582,202.267,389.345,228.211,375.846,250.799z"/>
			</g>
		</g>
		<g>
			<g>
				<path fill="#EE2138" d="M250,87.891c-48.463,0-87.891,39.428-87.891,87.891c0,48.153,38.786,87.891,87.891,87.891
					c49.71,0,87.891-40.267,87.891-87.891C337.891,127.318,298.463,87.891,250,87.891z M250,234.57
					c-32.478,0-58.789-26.399-58.789-58.789c0-32.309,26.48-58.789,58.789-58.789s58.691,26.48,58.691,58.789
					C308.691,207.698,282.992,234.57,250,234.57z"/>
			</g>
		</g>
	</g>
</g>
<g id="Layer_9" display="none">
	<path id="XMLID_440_" display="inline" fill="#EE2138" d="M390.315,90.909h-51.479c-5.211-16.896-13.826-32.302-25.018-45.455
		h76.496c12.552,0,22.728-10.176,22.728-22.727C413.042,10.176,402.866,0,390.314,0H109.682C97.131,0,86.955,10.176,86.955,22.728
		c0,0.003,0,0.004,0,0.007c0,0.001,0,0.004,0,0.007c0,12.552,10.176,22.727,22.727,22.727h106.061c0.245,0,0.489-0.004,0.732-0.012
		c32.007,0.277,59.743,18.702,73.457,45.452h-180.25c-12.551,0-22.727,10.176-22.727,22.727c0,12.552,10.176,22.728,22.727,22.728
		h189.036c-3.843,42.411-39.58,75.757-82.975,75.757H109.682c-12.551,0-22.727,10.176-22.727,22.728c0,0.001,0,0.004,0,0.007
		c0,0.001,0,0.005,0,0.008c0,12.551,10.176,22.727,22.727,22.727h106.061c0.245,0,0.489-0.005,0.732-0.013
		c45.614,0.395,82.601,37.625,82.601,83.331v136.363c0,12.552,10.176,22.728,22.727,22.728c12.552,0,22.728-10.176,22.728-22.728
		V340.909c0-43.95-22.143-82.811-55.845-106.061c31.75-21.905,53.223-57.667,55.604-98.485h46.027
		c12.552,0,22.728-10.176,22.728-22.728C413.045,101.085,402.869,90.909,390.315,90.909z"/>
</g>
<g id="Layer_10" display="none">
	<g display="inline">
		<g>
			<g>
				<path fill="#EE2138" d="M459.961,322.266v80.078H500V282.227H40.039V118.164c0-5.211-1.953-9.931-5.859-14.16
					c-3.906-4.231-8.626-6.348-14.16-6.348c-5.534,0-10.254,2.116-14.16,6.348C1.953,108.235,0,112.956,0,118.164v284.18h40.039
					v-80.078H459.961z"/>
				<path fill="#EE2138" d="M103.027,200.195c10.091,0,18.88-3.581,26.367-10.742c7.487-7.162,11.23-15.789,11.23-25.879
					c0-10.093-3.743-18.719-11.23-25.879c-7.487-7.161-16.276-10.742-26.367-10.742c-10.091,0-18.718,3.581-25.879,10.742
					c-7.161,7.161-10.742,15.788-10.742,25.879c0,10.091,3.581,18.718,10.742,25.879C84.31,196.614,92.937,200.195,103.027,200.195z
					"/>
				<path fill="#EE2138" d="M500,251.953v-48.828c0-7.813-2.767-14.16-8.301-19.043c-5.537-4.883-12.536-7.976-20.996-9.277
					l-290.039-28.32h-1.953c-5.208,0-9.602,1.79-13.184,5.371c-3.581,3.581-5.371,7.976-5.371,13.184v56.641H85.938
					c-12.37,0-18.555,5.046-18.555,15.137c0,10.091,6.185,15.137,18.555,15.137H500z"/>
			</g>
		</g>
	</g>
</g>
<g id="Layer_11" display="none">
	<g display="inline">
		<g>
			<path fill="#EE2138" d="M389.603,100.894c-2.881-13.361-6.484-25.265-10.85-35.915C356.736,11.273,317.826,0,289.063,0
				c-37.598,0-74.995,11.854-111.154,35.234c-17.653,11.414-34.689,25.484-50.549,41.655c-9.371-2.999-19.35-4.624-29.703-4.624
				C43.808,72.266,0,116.074,0,169.922c0,47.161,33.604,86.619,78.125,95.692V500h39.063v-40.039h69.336v-39.063h-69.336v-39.063
				h48.828v-39.063h-48.828v-77.159c44.521-9.073,78.125-48.532,78.125-95.692c0-28.954-12.671-55.001-32.753-72.899
				c38.991-36.949,83.88-57.96,126.503-57.96c25.484,0,41.999,12.563,53.548,40.733c3.224,7.863,5.972,16.83,8.256,26.946
				l-96.969,41.51l0.233,305.207c0.021,25.636,20.895,46.51,46.547,46.531L453.27,500c0.013,0,0.023,0,0.035,0
				c12.397,0,24.077-4.789,32.889-13.486c8.895-8.78,13.798-20.482,13.806-32.964V148.023L389.603,100.894z M97.656,228.516
				c-32.309,0-58.594-26.285-58.594-58.594s26.285-58.594,58.594-58.594c0.047,0,0.093,0.003,0.14,0.004
				c-1.787,2.375-3.555,4.77-5.29,7.199l-11.353,15.892l31.787,22.705l11.352-15.894c3.821-5.349,7.755-10.514,11.786-15.494
				c12.346,10.749,20.172,26.563,20.172,44.181C156.25,202.23,129.965,228.516,97.656,228.516z M460.938,453.537
				c-0.002,2.498-1.19,4.193-2.185,5.177c-0.841,0.831-2.667,2.224-5.46,2.224c-0.003,0-0.005,0-0.007,0l-152.591-0.009
				c-4.133-0.003-7.499-3.369-7.503-7.5l-0.215-279.415l63.96-27.379c1.629,17.25,2.438,36.682,2.438,58.443v19.531h39.063v-19.531
				c0-21.741-0.751-41.288-2.287-58.916l64.787,27.657V453.537z"/>
		</g>
	</g>
</g>
<g id="Layer_12" display="none">
	<g display="inline">
		<g>
			<g>
				<path fill="#EE2138" d="M446.494,356.239c6.036-9.211,9.561-20.209,9.561-32.02c0-32.309-26.285-58.594-58.594-58.594
					c-5.411,0-10.646,0.753-15.625,2.132V233.88c33.389-6.806,58.594-36.401,58.594-71.77v-59.57
					c0-40.386-32.857-73.242-73.242-73.242h-58.634C295.178,11.519,273.91,0,250,0H132.813C92.427,0,59.57,32.856,59.57,73.242
					v88.867c0,35.37,25.205,64.965,58.594,71.77v33.877c-4.979-1.38-10.214-2.132-15.625-2.132
					c-32.309,0-58.594,26.285-58.594,58.594c0,11.811,3.524,22.809,9.561,32.02C22.68,364.879,0,393.21,0,426.758v58.594
					C0,493.441,6.559,500,14.648,500H190.43c8.09,0,14.648-6.559,14.648-14.648v-58.594c0-33.548-22.68-61.879-53.506-70.519
					c6.036-9.211,9.561-20.209,9.561-32.02c0-14.613-5.39-27.983-14.27-38.257l50.61-50.61H250h52.526l50.61,50.61
					c-8.88,10.274-14.27,23.644-14.27,38.257c0,11.811,3.524,22.809,9.561,32.02c-30.826,8.64-53.506,36.971-53.506,70.519v58.594
					c0,8.09,6.559,14.648,14.648,14.648h175.781c8.09,0,14.648-6.559,14.648-14.648v-58.594
					C500,393.21,477.32,364.879,446.494,356.239z M102.539,294.922c16.154,0,29.297,13.143,29.297,29.297
					c0,16.154-13.142,29.297-29.297,29.297s-29.297-13.143-29.297-29.297C73.242,308.065,86.385,294.922,102.539,294.922z
					 M175.781,426.758v43.945H29.297v-43.945c0-24.231,19.714-43.945,43.945-43.945h58.594
					C156.067,382.813,175.781,402.526,175.781,426.758z M293.945,162.109c0,24.231-19.714,43.945-43.945,43.945h-58.594
					c-3.886,0-7.611,1.543-10.357,4.29l-33.588,33.588v-23.23c0-8.09-6.559-14.648-14.648-14.648
					c-24.231,0-43.945-19.714-43.945-43.945V73.242c0-24.232,19.714-43.945,43.945-43.945H250c24.231,0,43.945,19.714,43.945,43.945
					V162.109z M397.461,294.922c16.154,0,29.297,13.143,29.297,29.297c0,16.154-13.143,29.297-29.297,29.297
					c-16.154,0-29.297-13.143-29.297-29.297C368.164,308.065,381.307,294.922,397.461,294.922z M352.539,220.703v23.23
					l-33.588-33.588c-2.746-2.747-6.472-4.29-10.357-4.29h-0.04c9.217-12.25,14.689-27.47,14.689-43.945V73.242
					c0-5.016-0.509-9.914-1.474-14.648h45.419c24.231,0,43.945,19.714,43.945,43.945v59.57c0,24.231-19.714,43.945-43.945,43.945
					C359.098,206.055,352.539,212.613,352.539,220.703z M470.703,470.703H324.219v-43.945c0-24.231,19.714-43.945,43.945-43.945
					h58.594c24.232,0,43.945,19.714,43.945,43.945V470.703z"/>
			</g>
		</g>
		<g>
			<g>
				<path fill="#EE2138" d="M245.709,62.884c-5.72-5.721-14.995-5.721-20.716,0l-48.235,48.236l-18.939-18.939
					c-5.72-5.721-14.995-5.721-20.716,0c-5.721,5.721-5.721,14.995,0,20.716l29.297,29.297c5.72,5.72,14.995,5.721,20.716,0
					L245.709,83.6C251.431,77.88,251.431,68.604,245.709,62.884z"/>
			</g>
		</g>
	</g>
</g>
<g id="Layer_13" display="none">
	<g display="inline">
		<g>
			<g>
				<path fill="#EE2138" d="M449.528,439.121l-32.589-130.36c-5.455-21.796-24.958-36.91-47.426-36.91h-81.473v-92.444
					c0-36.546-38.631-59.756-70.746-43.726l-65.178,32.589c-16.667,8.333-26.912,25.088-26.912,43.726v30.129
					c-20.715,10.143-38.585,25.353-51.9,44.496c-15.862,22.804-24.247,49.589-24.247,77.457
					c0,74.873,60.915,135.788,135.788,135.788c73.053,0,132.808-57.993,135.669-130.356h10.832l23.332,93.341
					c6.609,26.381,33.237,42.11,59.282,35.558C440.101,491.879,456.057,465.286,449.528,439.121z M166.691,197.417l65.167-32.583
					c4.448-2.219,9.567-2.23,13.91-0.308c0,0,0,0,0.001,0c5.8,2.564,9.794,8.394,9.794,14.88v68.617
					c-10.035-6.107-21.071-10.963-32.698-14.334v-1.548c0-8.999-7.296-16.295-16.295-16.295c-8.999,0-16.185,7.296-16.185,16.295
					v77.621c0,8.985-7.419,16.295-16.403,16.295s-16.295-7.309-16.295-16.295v-97.766h-0.001
					C157.685,205.78,161.136,200.195,166.691,197.417z M184.845,467.276c-56.903,0-103.198-46.295-103.198-103.198
					c0-34.235,16.584-65.205,43.558-84.222v29.906c0,26.954,21.82,48.883,48.775,48.883c26.955,0,48.883-21.929,48.883-48.883
					v-41.657c14.175,5.597,26.702,14.193,36.895,24.962c0.198,0.215,0.392,0.431,0.602,0.635c1.268,1.362,2.509,2.746,3.701,4.174
					c0.218,0.286,0.44,0.565,0.675,0.835c14.645,17.922,23.307,40.768,23.307,65.363
					C288.044,420.981,241.75,467.276,184.845,467.276z M406.037,466.798c-8.577,2.155-17.518-2.971-19.745-11.859l-26.414-105.675
					c-1.814-7.254-8.33-12.233-15.808-12.233h-26.161c-2.32-11.42-6.08-22.461-11.094-32.698h62.698
					c7.491,0,13.992,5.075,15.81,12.337l32.587,130.349C420.089,455.744,414.775,464.615,406.037,466.798z"/>
			</g>
		</g>
		<g>
			<g>
				<path fill="#EE2138" d="M255.452,0.167c-35.939,0-65.178,29.239-65.178,65.178s29.239,65.178,65.178,65.178
					s65.178-29.239,65.178-65.178S291.391,0.167,255.452,0.167z M255.452,97.933c-17.97,0-32.59-14.62-32.59-32.588
					c0-17.969,14.62-32.589,32.59-32.589s32.589,14.62,32.589,32.589S273.422,97.933,255.452,97.933z"/>
			</g>
		</g>
	</g>
</g>
<g id="Layer_14" display="none">
	<g display="inline">
		<g>
			<g>
				<path fill="#EE2138" d="M458.526,33.133H41.474C18.453,33.16-0.204,51.817-0.231,74.839v166.82
					c0.027,23.021,18.684,41.678,41.705,41.705h417.051c23.021-0.027,41.678-18.684,41.705-41.705V74.839
					C500.204,51.817,481.547,33.16,458.526,33.133z M58.156,49.815h383.687v25.023c0,13.82-11.203,25.023-25.023,25.023H83.179
					c-13.82,0-25.023-11.203-25.023-25.023V49.815z M441.844,266.682H58.156v-8.341h383.687V266.682z M441.844,241.659H58.156
					v-8.341h383.687V241.659z M441.844,216.636H58.156v-8.341h383.687V216.636z M483.549,241.659
					c0,13.82-11.203,25.023-25.023,25.023v-66.728c0-4.606-3.735-8.341-8.341-8.341H49.815c-4.606,0-8.341,3.735-8.341,8.341v66.728
					c-13.82,0-25.023-11.203-25.023-25.023V74.839c0-13.82,11.203-25.023,25.023-25.023v25.023
					c0.027,23.021,18.684,41.678,41.705,41.705H416.82c23.021-0.027,41.678-18.684,41.705-41.705V49.815
					c13.82,0,25.023,11.203,25.023,25.023V241.659z"/>
				<path fill="#EE2138" d="M275.023,166.59h-66.728c-4.606,0-8.341,3.735-8.341,8.341c0,4.606,3.735,8.341,8.341,8.341h66.728
					c4.606,0,8.341-3.735,8.341-8.341C283.364,170.324,279.629,166.59,275.023,166.59z"/>
				<path fill="#EE2138" d="M425.161,133.226h-8.341c-4.606,0-8.341,3.735-8.341,8.341c0,4.606,3.735,8.341,8.341,8.341h8.341
					c4.606,0,8.341-3.735,8.341-8.341C433.503,136.96,429.768,133.226,425.161,133.226z"/>
				<path fill="#EE2138" d="M458.526,133.226h-8.341c-4.606,0-8.341,3.735-8.341,8.341c0,4.606,3.735,8.341,8.341,8.341h8.341
					c4.606,0,8.341-3.735,8.341-8.341C466.867,136.96,463.132,133.226,458.526,133.226z"/>
				<path fill="#EE2138" d="M266.682,308.387c0-4.606-3.735-8.341-8.341-8.341c-4.606,0-8.341,3.735-8.341,8.341
					c0.151,7.4-2.305,14.616-6.94,20.385c-12.989,17.632-12.989,41.664,0,59.296c9.251,12.028,9.251,28.776,0,40.804
					c-6.466,8.519-9.896,18.958-9.742,29.652c0,4.606,3.735,8.341,8.341,8.341c4.606,0,8.341-3.735,8.341-8.341
					c-0.152-7.405,2.304-14.627,6.94-20.402c12.978-17.641,12.978-41.672,0-59.313c-9.251-12.021-9.251-28.766,0-40.788
					C263.406,329.51,266.835,319.076,266.682,308.387z"/>
				<path fill="#EE2138" d="M199.954,308.387c0-4.606-3.735-8.341-8.341-8.341c-4.606,0-8.341,3.735-8.341,8.341
					c0.151,7.4-2.305,14.616-6.94,20.385c-12.989,17.632-12.989,41.664,0,59.296c9.251,12.028,9.251,28.776,0,40.804
					c-6.466,8.519-9.896,18.958-9.742,29.652c0,4.606,3.735,8.341,8.341,8.341c4.606,0,8.341-3.735,8.341-8.341
					c-0.152-7.405,2.304-14.627,6.94-20.402c12.978-17.641,12.978-41.672,0-59.313c-9.251-12.021-9.251-28.766,0-40.788
					C196.678,329.51,200.107,319.076,199.954,308.387z"/>
				<path fill="#EE2138" d="M333.41,308.387c0-4.606-3.735-8.341-8.341-8.341c-4.606,0-8.341,3.735-8.341,8.341
					c0.151,7.4-2.305,14.616-6.94,20.385c-12.989,17.632-12.989,41.664,0,59.296c9.251,12.028,9.251,28.776,0,40.804
					c-6.466,8.519-9.896,18.958-9.742,29.652c0,4.606,3.735,8.341,8.341,8.341c4.606,0,8.341-3.735,8.341-8.341
					c-0.152-7.405,2.304-14.627,6.94-20.402c12.978-17.641,12.978-41.672,0-59.313c-9.251-12.021-9.251-28.766,0-40.788
					C330.134,329.51,333.563,319.076,333.41,308.387z"/>
			</g>
		</g>
	</g>
</g>
<g id="Layer_15" display="none">
	<g display="inline">
		<g>
			<g>
				<path fill="#EE2138" d="M416.559,208.291H245.034l-89.147-89.251c-3.228-3.229-8.54-3.229-11.768,0l-24.995,24.994
					c-3.229,3.229-3.229,8.54,0,11.768l52.384,52.384h-88.21c-4.582,0-8.331,3.749-8.331,8.332v66.652
					c0,4.582,3.749,8.332,8.331,8.332h171.525l89.251,89.251c3.228,3.228,8.54,3.228,11.768,0l24.995-24.995
					c3.228-3.229,3.228-8.54,0-11.768l-52.489-52.384h88.21c4.582,0,8.332-3.749,8.332-8.331v-66.652
					C424.891,212.04,421.142,208.291,416.559,208.291z M91.63,274.943v-49.989h96.541l49.989,49.989H91.63z M363.133,349.927
					l-13.226,13.226l-85.711-85.711l-66.652-66.652l-60.82-60.82l13.226-13.226l85.711,85.71l66.652,66.652L363.133,349.927z
					 M341.576,274.943h-29.889l-49.989-49.989h79.878V274.943z M408.228,274.943h-49.989v-49.989h49.989V274.943z"/>
			</g>
		</g>
		<g>
			<g>
				<path fill="#EE2138" d="M499.874,124.976v-16.663c0-13.851-11.143-24.995-24.994-24.995h-38.742
					C344.075-19.472,186.089-28.22,83.299,63.947S-28.24,313.893,63.928,416.787s250.05,111.538,352.84,19.371
					c52.905-47.386,83.107-115.183,83.107-186.21c0.104-34.576-7.082-68.735-21.037-100.395
					C490.918,147.575,499.77,137.16,499.874,124.976z M483.211,249.948c0.104,128.93-104.352,233.595-233.282,233.699
					C120.999,483.751,16.334,379.295,16.23,250.365C16.126,121.435,120.582,16.77,249.512,16.666
					c61.132-0.104,119.87,23.849,163.506,66.652h-29.785c-2.291,0-4.686,0.417-6.873,1.041
					C340.222,56.761,295.544,41.66,249.929,41.66c-114.871,0-208.288,93.417-208.288,208.288s93.417,208.288,208.288,208.288
					c112.267,0,204.122-89.355,208.184-200.685c0-0.104,0-0.104,0-0.208c0-1.042,0.104-2.083,0.104-3.124
					c0-1.458,0-2.812,0.104-4.27v-0.104c0-32.076-7.394-64.257-22.391-93.834c0,0,0-0.104-0.104-0.104
					c-0.521-1.041-1.041-1.979-1.562-3.02c-0.104-0.208-0.208-0.417-0.312-0.625c-0.417-0.729-0.833-1.562-1.25-2.291h28.015
					C475.609,181.213,483.316,215.372,483.211,249.948z M349.907,191.628h33.326c13.851,0,24.995-11.143,24.995-24.994v-8.331
					c0-3.437,2.187-6.561,5.416-7.707c6.04,9.894,11.039,20.1,15.101,30.514c0.104,0.208,0.104,0.417,0.208,0.521
					c0.521,1.25,0.937,2.499,1.458,3.853c7.29,20.516,11.143,42.387,11.143,64.465c0,105.706-85.919,191.625-191.625,191.625
					S58.304,355.654,58.304,249.948c0-105.602,85.919-191.625,191.521-191.625h0.104c0.521,0,1.146,0,1.666,0
					c38.95,0.417,77.691,12.706,110.601,36.555c-2.604,3.958-3.957,8.644-3.957,13.435v16.663c0,4.582-3.749,8.332-8.332,8.332
					c-13.851,0-24.995,11.143-24.995,24.995v8.331C324.913,180.484,336.056,191.628,349.907,191.628z M483.211,124.976
					c0,4.582-3.749,8.332-8.331,8.332h-58.321c-13.851,0-24.995,11.143-24.995,24.995v8.331c0,4.582-3.749,8.331-8.332,8.331
					h-33.326c-4.582,0-8.332-3.749-8.332-8.331v-8.331c0-4.582,3.749-8.332,8.332-8.332c13.851,0,24.995-11.143,24.995-24.994
					v-16.663c0-4.582,3.749-8.332,8.331-8.332h91.647c4.582,0,8.331,3.749,8.331,8.332V124.976z"/>
			</g>
		</g>
		<g>
			<g>
				<path fill="#EE2138" d="M474.88,0.003c-13.851,0-24.995,11.143-24.995,24.995V41.66c0,13.851,11.144,24.995,24.995,24.995
					c13.851,0,24.994-11.143,24.994-24.995V24.997C499.874,11.146,488.731,0.003,474.88,0.003z M483.211,41.66
					c0,4.582-3.749,8.331-8.331,8.331c-4.582,0-8.332-3.749-8.332-8.331V24.997c0-4.582,3.749-8.331,8.332-8.331
					c4.582,0,8.331,3.749,8.331,8.331V41.66z"/>
			</g>
		</g>
	</g>
</g>
<g id="Layer_16" display="none">
	<g display="inline">
		<g>
			<g>
				<path fill="#EE2138" d="M490.525,404.203c-17.59-30.847-49.828-36.621-56.119-37.463c-0.367-0.05-0.733-0.075-1.108-0.075
					h-88.207l-3.491-3.491c4.491-1.566,8.791-3.616,12.774-6.099c4.091-2.55,7.566-5.416,10.641-8.391l32.663,9.332l4.575-16.023
					l-26.131-7.466c3.45-5.891,5.616-11.432,6.824-15.448c0.233-0.783,0.358-1.591,0.358-2.408v-17.123l19.948-8.549l-6.558-15.315
					l-13.39,5.741v-6.416c0-1.508-0.408-2.991-1.191-4.291l-24.997-41.662c-1.317-2.2-3.583-3.666-6.124-3.983
					c-2.508-0.275-5.083,0.558-6.908,2.383l-22.556,22.556h-4.883V145.139l11.782-11.782h10.691l22.898,15.265
					c3.833,2.558,8.999,1.516,11.557-2.308l16.665-24.997c1.866-2.8,1.866-6.441,0-9.241l-33.33-49.995
					c-1.55-2.325-4.149-3.716-6.933-3.716h-24.997c-3.158,0-6.041,1.783-7.457,4.608l-14.357,28.722h-89.69l-14.365-28.722
					c-1.408-2.825-4.291-4.608-7.449-4.608h-33.33c-2.691,0-5.216,1.3-6.774,3.491l-41.662,58.327
					c-2.366,3.308-1.991,7.849,0.883,10.732l16.665,16.665c2.808,2.816,7.208,3.233,10.516,1.042l22.898-15.265h19.023l3.45,3.45
					v90.574c-21.998,7.991-82.058,35.405-107.78,102.997c-15.173,39.879-11.807,77.108-6.216,101.497l-19.323-11.599v-28.614
					c0-9.532-5.3-18.098-13.815-22.356c-8.532-4.266-18.565-3.35-26.189,2.366c-6.258,4.699-9.991,12.174-9.991,19.99v58.327
					c0,2.875,1.483,5.541,3.916,7.066l66.659,41.662c1.325,0.825,2.85,1.266,4.416,1.266h166.649h33.33h174.981
					c1.292,0,2.575-0.3,3.725-0.875l33.33-16.665c1.508-0.75,2.741-1.941,3.558-3.408
					C491.442,477.487,511.373,440.724,490.525,404.203z M266.658,416.61l-49.345-0.158l-0.05,16.665l49.386,0.158v50.045h-16.665
					c0-18.381-14.948-33.33-33.33-33.33H199.99c0-41.346-33.638-74.992-74.992-74.992h-8.332v16.665h8.332
					c32.155,0,58.327,26.164,58.327,58.327v8.332c0,4.599,3.725,8.332,8.333,8.332h24.997c9.191,0,16.665,7.474,16.665,16.665
					H77.395l-60.718-37.946v-53.711c0-2.608,1.242-5.099,3.325-6.666c2.583-1.933,5.841-2.233,8.732-0.783
					c2.883,1.442,4.608,4.225,4.608,7.449v33.33c0,2.925,1.542,5.641,4.041,7.141l41.662,24.997
					c3.025,1.816,6.874,1.533,9.599-0.725c2.716-2.258,3.725-5.974,2.508-9.291c-6.233-16.965-18.715-61.727-0.033-110.821
					c1.225-3.225,2.616-6.258,4.008-9.282l0.017,0.008c28.055-60.968,87.374-82.108,98.989-85.724
					c3.491-1.075,5.858-4.3,5.858-7.949v-99.989c0-2.208-0.875-4.333-2.441-5.891l-8.332-8.333
					c-1.558-1.566-3.675-2.441-5.891-2.441h-24.997c-1.641,0-3.258,0.492-4.624,1.4l-19.314,12.874l-6.841-6.841l35.071-49.095
					h23.889l14.365,28.722c1.408,2.825,4.291,4.608,7.449,4.608h99.989c3.158,0,6.041-1.783,7.458-4.608l14.357-28.722h15.39
					l27.772,41.662l-8.957,13.44l-18.065-12.04c-1.366-0.908-2.983-1.4-4.624-1.4h-16.665c-2.216,0-4.333,0.875-5.891,2.441
					l-16.665,16.665c-1.566,1.558-2.441,3.683-2.441,5.891v108.322h-21.548l-22.556-22.556c-1.816-1.825-4.374-2.683-6.908-2.383
					c-2.55,0.317-4.808,1.783-6.124,3.983l-24.997,41.662c-0.783,1.3-1.191,2.783-1.191,4.291v6.416l-13.382-5.733l-6.558,15.315
					l19.94,8.541v13.14v3.983c0,0.817,0.125,1.625,0.358,2.408c1.533,5.099,4.558,12.615,9.932,20.248l-29.88,11.207l5.858,15.607
					l36.279-13.607c1.966,1.583,4.091,3.108,6.391,4.541c6.391,3.983,13.557,6.832,21.064,8.416V416.61L266.658,416.61z
					 M477.06,468.788l-29.063,14.532h-75.359l-5.999-18.015v-21.123l10.665-15.998c1.325-2,3.558-3.191,5.949-3.191
					c3.6,0,5.449,2.375,6.074,3.391c0.633,1.025,1.925,3.741,0.317,6.949l-5.466,10.932c-1.6,3.208-0.975,7.082,1.566,9.616
					l8.332,8.332c1.558,1.566,3.675,2.441,5.891,2.441h41.662V449.99h-38.213l-1.641-1.641l2.783-5.558
					c3.716-7.433,3.316-16.098-1.05-23.164c-4.366-7.066-11.949-11.299-20.256-11.299c-7.974,0-15.382,3.966-19.814,10.599
					l-12.065,18.106c-0.908,1.375-1.4,2.983-1.4,4.624v24.997c0,0.892,0.15,1.783,0.433,2.633l4.674,14.032h-30.105v-58.327h-16.665
					v58.327h-24.997v-58.352v-66.634c0-4.3-3.275-7.899-7.558-8.299c-6.099-0.567-11.824-2.2-17.115-4.799l10.94-4.1l-5.858-15.607
					l-20.498,7.691c-5.408-6.383-8.382-13.132-9.907-17.823v-2.716v-5.999l21.714,9.307l6.558-15.315l-28.272-12.107v-11.249
					l18.315-30.53l17.456,17.448c1.558,1.566,3.675,2.441,5.891,2.441h33.33h16.665c2.216,0,4.333-0.875,5.891-2.441l17.456-17.448
					l18.315,30.53v11.249l-28.28,12.115l6.558,15.315l21.723-9.307v8.707c-1.25,3.841-3.491,9.074-7.216,14.357l-15.49-4.424
					l-4.574,16.023l5.983,1.708c-6.358,3.908-13.457,6.266-21.131,6.983c-3.216,0.3-5.974,2.433-7.066,5.466
					c-1.1,3.041-0.342,6.433,1.941,8.716l16.665,16.665c1.558,1.567,3.675,2.441,5.891,2.441h91.065
					c4.766,0.725,29.955,5.633,43.354,29.13C489.775,436.499,480.401,461.438,477.06,468.788z"/>
			</g>
		</g>
		<g>
			<g>
				<rect x="216.655" y="141.69" fill="#EE2138" width="16.665" height="16.665"/>
			</g>
		</g>
		<g>
			<g>
				<rect x="266.649" y="141.69" fill="#EE2138" width="16.665" height="16.665"/>
			</g>
		</g>
		<g>
			<g>
				<rect x="233.32" y="175.019" fill="#EE2138" width="33.33" height="16.665"/>
			</g>
		</g>
		<g>
			<g>
				<rect x="266.649" y="283.341" fill="#EE2138" width="16.665" height="16.665"/>
			</g>
		</g>
		<g>
			<g>
				<rect x="316.644" y="283.341" fill="#EE2138" width="16.665" height="16.665"/>
			</g>
		</g>
		<g>
			<g>
				<rect x="291.647" y="308.338" fill="#EE2138" width="16.665" height="16.665"/>
			</g>
		</g>
	</g>
</g>
<g id="Layer_17" display="none">
	<g display="inline">
		<g>
			<g>
				<path fill="#EE2138" d="M434.017,362.366l-70.98-70.978c5.64-12.887,8.596-26.948,8.596-41.091
					c0-14.146-2.956-28.205-8.596-41.091l70.977-70.984c14.518-14.523,14.518-38.151-0.001-52.67
					c-7.035-7.034-16.387-10.908-26.335-10.908s-19.299,3.874-26.335,10.909l-70.977,70.982
					c-12.883-5.641-26.945-8.597-41.091-8.597c-14.145,0-28.207,2.956-41.092,8.597l-70.98-70.978
					c-7.036-7.034-16.388-10.908-26.335-10.908c-9.947,0-19.299,3.874-26.335,10.909c-14.522,14.522-14.521,38.15,0,52.671
					l70.981,70.978c-5.641,12.888-8.597,26.949-8.597,41.09c0,14.145,2.957,28.207,8.597,41.091l-70.979,70.979
					c-14.516,14.522-14.516,38.149,0.002,52.668c7.035,7.035,16.388,10.91,26.335,10.91s19.3-3.875,26.335-10.91l70.977-70.977
					c12.887,5.641,26.947,8.597,41.087,8.597c14.145,0,28.205-2.956,41.091-8.597l70.981,70.977
					c7.035,7.035,16.387,10.91,26.335,10.91c9.947,0,19.3-3.874,26.334-10.906c7.037-7.034,10.914-16.386,10.914-26.335
					C444.927,378.756,441.053,369.402,434.017,362.366z M419.7,400.721c-3.211,3.211-7.481,4.98-12.02,4.98
					s-8.809-1.768-12.019-4.98l-76.063-76.058c-1.946-1.945-4.537-2.964-7.161-2.964c-1.617,0-3.245,0.386-4.742,1.18
					c-11.749,6.236-25.034,9.531-38.422,9.531c-13.384,0-26.669-3.297-38.421-9.533c-3.927-2.084-8.757-1.361-11.902,1.784
					l-76.057,76.058c-3.211,3.211-7.481,4.98-12.02,4.98c-4.539,0-8.809-1.77-12.019-4.98c-6.626-6.626-6.625-17.41,0-24.039
					l76.059-76.059c3.146-3.146,3.869-7.976,1.783-11.904c-6.235-11.746-9.531-25.033-9.531-38.422
					c0-13.384,3.296-26.671,9.531-38.423c2.084-3.927,1.36-8.757-1.784-11.902l-76.062-76.058
					c-6.628-6.628-6.628-17.412-0.001-24.04c3.21-3.21,7.481-4.979,12.02-4.979c4.54,0,8.81,1.768,12.02,4.979l76.062,76.06
					c3.145,3.145,7.976,3.869,11.904,1.783c11.746-6.237,25.032-9.533,38.422-9.533c13.39,0,26.675,3.297,38.422,9.533
					c3.929,2.087,8.76,1.362,11.904-1.783l76.059-76.063c3.211-3.21,7.48-4.979,12.019-4.979c4.54,0,8.809,1.768,12.019,4.979
					c6.627,6.627,6.626,17.411,0,24.041l-76.057,76.063c-3.145,3.145-3.869,7.975-1.783,11.903
					c6.235,11.748,9.53,25.033,9.53,38.423c0,13.386-3.295,26.673-9.53,38.423c-2.084,3.928-1.36,8.757,1.784,11.902l76.061,76.06
					c3.21,3.21,4.979,7.481,4.979,12.02C424.684,393.242,422.914,397.511,419.7,400.721z"/>
			</g>
		</g>
		<g>
			<g>
				<path fill="#EE2138" d="M269.272,231.054c-10.605,0-19.233,8.628-19.233,19.232s8.628,19.233,19.233,19.233
					c10.605,0,19.233-8.628,19.233-19.233S279.877,231.054,269.272,231.054z"/>
			</g>
		</g>
		<g>
			<g>
				<path fill="#EE2138" d="M269.272,196.637c-29.582,0-53.649,24.067-53.649,53.649c0,29.582,24.068,53.649,53.649,53.649
					c29.582,0,53.649-24.068,53.649-53.649C322.921,220.705,298.854,196.637,269.272,196.637z M269.272,283.69
					c-18.419,0-33.404-14.986-33.404-33.404s14.986-33.404,33.404-33.404c18.419,0,33.404,14.986,33.404,33.404
					C302.676,268.706,287.691,283.69,269.272,283.69z"/>
			</g>
		</g>
		<g>
			<g>
				<path fill="#EE2138" d="M467.633,20.575H69.516c-16.745,0-30.367,13.623-30.367,30.367v60.378H22.471
					C11.183,111.321,2,120.503,2,131.79v89.154c0,11.287,9.183,20.47,20.471,20.47h16.678v17.965H22.471
					C11.183,259.379,2,268.562,2,279.85v89.154c0,11.287,9.183,20.469,20.471,20.469h16.678v59.585
					c0,16.745,13.622,30.367,30.367,30.367h398.117c16.745,0,30.367-13.623,30.367-30.367V50.942
					C498,34.197,484.377,20.575,467.633,20.575z M477.755,449.059c0,5.582-4.541,10.122-10.122,10.122H69.516
					c-5.582,0-10.122-4.541-10.122-10.122v-69.707c0-5.591-4.532-10.122-10.123-10.122h-26.8c-0.127,0-0.226-0.099-0.226-0.225
					V279.85c0-0.127,0.099-0.226,0.226-0.226h26.8c5.591,0,10.123-4.532,10.123-10.122v-38.21c0-5.591-4.532-10.122-10.123-10.122
					h-26.8c-0.127,0-0.226-0.099-0.226-0.225V131.79c0-0.127,0.099-0.225,0.226-0.225h26.8c5.591,0,10.123-4.532,10.123-10.123
					V50.942c0-5.582,4.541-10.122,10.122-10.122h398.117c5.582,0,10.122,4.54,10.122,10.122V449.059L477.755,449.059z"/>
			</g>
		</g>
		<g>
			<g>
				<path fill="#EE2138" d="M443.914,172.078c-5.591,0-10.122,4.532-10.122,10.122v4.532c0,5.591,4.532,10.122,10.122,10.122
					c5.591,0,10.122-4.532,10.122-10.122V182.2C454.036,176.609,449.504,172.078,443.914,172.078z"/>
			</g>
		</g>
		<g>
			<g>
				<path fill="#EE2138" d="M443.914,209.356c-5.591,0-10.122,4.532-10.122,10.123v98.32c0,5.591,4.532,10.122,10.122,10.122
					c5.591,0,10.122-4.532,10.122-10.122v-98.32C454.036,213.888,449.504,209.356,443.914,209.356z"/>
			</g>
		</g>
	</g>
</g>
<g id="Layer_18" display="none">
	<g display="inline">
		<path fill="#EE2138" d="M353.578,307.884c27.257,0,49.432-22.174,49.432-49.429s-22.175-49.429-49.432-49.429
			c-27.254,0-49.427,22.174-49.427,49.429S326.325,307.884,353.578,307.884z M353.578,236.289c12.223,0,22.169,9.943,22.169,22.166
			c0,12.223-9.945,22.166-22.169,22.166c-12.221,0-22.165-9.943-22.165-22.166C331.414,246.232,341.357,236.289,353.578,236.289z
			 M165.607,114.857c31.341,0,56.841-25.498,56.841-56.84c0-31.344-25.5-56.843-56.841-56.843s-56.843,25.498-56.843,56.841
			S134.264,114.857,165.607,114.857z M165.607,28.437c16.311,0,29.578,13.269,29.578,29.578c0,16.309-13.269,29.577-29.578,29.577
			s-29.579-13.268-29.579-29.577C136.027,41.706,149.296,28.437,165.607,28.437z M201.881,485.19
			c0,7.529-6.102,13.631-13.631,13.631h-36.755c-0.024,0-0.048,0.003-0.073,0.003c-4.236,0-8.02-1.933-10.52-4.963
			c-1.945-2.357-3.114-5.378-3.114-8.673c0-0.02,0.003-0.039,0.003-0.059v-197.08l-74.419-34.502
			c-4.75-2.201-7.817-6.926-7.897-12.159l-0.589-38.728c-0.003-0.206-0.001-0.412,0.004-0.62
			c1.333-44.063,27.334-72.534,66.242-72.534c61.642,0,85.134,34.34,102.312,66.527l51.275,96.066
			c3.546,6.641,1.036,14.899-5.605,18.445c-2.045,1.09-4.242,1.608-6.407,1.608c-4.872,0-9.583-2.619-12.036-7.216l-51.275-96.066
			c-15.216-28.506-31.605-52.102-78.262-52.102c-33.695,0-38.507,31.781-38.983,45.798l0.454,29.846l55.184,25.586v-40.331
			c0-7.529,6.102-13.631,13.631-13.631c7.529,0,13.631,6.102,13.631,13.631v52.97l23.997,11.125
			c6.831,3.165,9.801,11.27,6.634,18.101c-2.305,4.974-7.231,7.9-12.376,7.9c-1.921,0-3.87-0.407-5.724-1.268l-12.53-5.81v170.87
			h23.196C195.779,471.558,201.881,477.662,201.881,485.19z M444.465,328.673h-58.871c-0.024,0-0.048-0.003-0.073-0.003
			c-0.024,0-0.048,0.003-0.073,0.003h-63.737c-0.024,0-0.048-0.003-0.073-0.003c-0.024,0-0.048,0.003-0.073,0.003h-58.869
			c-7.529,0-13.631,6.102-13.631,13.631s6.102,13.631,13.631,13.631h45.311v115.622h-21.81c-7.529,0-13.631,6.102-13.631,13.631
			c0,7.529,6.102,13.631,13.631,13.631h35.369c0.024,0,0.048,0.003,0.073,0.003c4.236,0,8.02-1.933,10.52-4.963
			c1.945-2.357,3.114-5.378,3.114-8.673c0-0.02-0.003-0.039-0.003-0.059v-49.815h36.621v49.877c0,7.529,6.102,13.631,13.631,13.631
			c0.024,0,0.048-0.003,0.073-0.003h35.366c7.529,0,13.631-6.102,13.631-13.631c0-7.529-6.102-13.631-13.631-13.631h-21.807V355.934
			h45.312c7.529,0,13.631-6.102,13.631-13.631C458.098,334.774,451.994,328.673,444.465,328.673z M371.89,408.055h-36.621v-52.119
			h36.621V408.055z M105.995,485.19c0,3.294-1.168,6.316-3.114,8.673c-2.501,3.031-6.284,4.963-10.52,4.963
			c-0.024,0-0.049-0.003-0.073-0.003H55.534c-7.529,0-13.631-6.102-13.631-13.631c0-7.529,6.102-13.631,13.631-13.631H78.73V347.05
			c0-7.529,6.102-13.631,13.631-13.631c7.529,0,13.631,6.102,13.631,13.631v138.082C105.993,485.152,105.995,485.17,105.995,485.19z
			"/>
	</g>
</g>
<g id="Layer_19" display="none">
	<g display="inline">
		<g>
			<path fill="#EE2138" d="M108.286,214.571c29.308,0,53.143-23.835,53.143-53.143s-23.835-53.143-53.143-53.143
				s-53.143,23.835-53.143,53.143S78.977,214.571,108.286,214.571z M108.286,126c19.539,0,35.429,15.89,35.429,35.429
				c0,19.539-15.89,35.428-35.429,35.428s-35.429-15.89-35.429-35.428C72.857,141.89,88.747,126,108.286,126z"/>
			<path fill="#EE2138" d="M391.714,214.571c29.308,0,53.143-23.835,53.143-53.143s-23.835-53.143-53.143-53.143
				s-53.143,23.835-53.143,53.143S362.406,214.571,391.714,214.571z M391.714,126c19.539,0,35.429,15.89,35.429,35.429
				c0,19.539-15.89,35.428-35.429,35.428s-35.429-15.89-35.429-35.428C356.286,141.89,372.175,126,391.714,126z"/>
			<path fill="#EE2138" d="M480.286,232.286v115.143c0,14.65-11.922,26.571-26.571,26.571v-97.429
				c0-24.419-19.867-44.286-44.286-44.286h-44.286c-4.889,0-8.857,3.968-8.857,8.857v35.429v8.857v8.857h-70.857
				c-4.889,0-8.857,3.968-8.857,8.857v26.571h-53.143v-26.571c0-4.889-3.968-8.857-8.857-8.857h-70.857v-8.857v-8.857v-35.429
				c0-4.889-3.968-8.857-8.857-8.857H90.571c-24.419,0-44.286,19.867-44.286,44.286V374c-14.65,0-26.571-11.922-26.571-26.571
				V232.286H2v115.143c0,18.113,10.956,33.675,26.571,40.53V498h17.714V391.714h8.857H64h70.857v97.429
				c0,4.889,3.968,8.857,8.857,8.857h26.571h8.857H188v-8.857V356.286v-8.857h26.571h70.857H312v8.857v132.857V498h8.857h8.857
				h26.571c4.889,0,8.857-3.968,8.857-8.857v-97.429H436h8.857h8.857V498h17.714V387.959c15.615-6.855,26.571-22.417,26.571-40.53
				V232.286H480.286z M179.143,329.714h-17.714h-53.143v-53.143H90.571v62c0,4.889,3.968,8.857,8.857,8.857h62
				c4.88,0,8.857,3.977,8.857,8.857v124h-17.714v-97.429c0-4.889-3.968-8.857-8.857-8.857H64v-97.429
				C64,261.922,75.922,250,90.571,250H126v26.571v8.857v17.714c0,4.889,3.968,8.857,8.857,8.857h70.857v17.714H179.143z
				 M356.286,374c-4.889,0-8.857,3.968-8.857,8.857v97.429h-17.714v-124c0-4.88,3.977-8.857,8.857-8.857h62
				c4.889,0,8.857-3.968,8.857-8.857v-62h-17.714v53.143h-53.143h-17.714h-26.571V312h70.857c4.889,0,8.857-3.968,8.857-8.857
				v-17.714v-8.857V250h35.429c14.65,0,26.571,11.922,26.571,26.571V374H356.286z"/>
			<path fill="#EE2138" d="M170.286,90.571v26.571c0,3.817,2.436,7.192,6.058,8.405c0.921,0.301,1.869,0.452,2.799,0.452
				c2.737,0,5.376-1.275,7.086-3.543l23.914-31.886h66.428c14.65,0,26.572-11.922,26.572-26.571V28.571
				C303.143,13.922,291.221,2,276.571,2H170.286c-14.65,0-26.571,11.922-26.571,26.571V64
				C143.714,78.65,155.636,90.571,170.286,90.571z M161.429,28.571c0-4.88,3.977-8.857,8.857-8.857h106.286
				c4.88,0,8.857,3.977,8.857,8.857V64c0,4.88-3.977,8.857-8.857,8.857h-70.857c-2.79,0-5.412,1.311-7.086,3.543L188,90.571v-8.857
				c0-4.889-3.968-8.857-8.857-8.857h-8.857c-4.88,0-8.857-3.977-8.857-8.857V28.571z"/>
			<rect x="179.143" y="37.429" fill="#EE2138" width="88.571" height="17.714"/>
			<rect x="241.143" y="223.429" fill="#EE2138" width="53.143" height="17.714"/>
			<path fill="#EE2138" d="M232.286,188c-14.65,0-26.571,11.922-26.571,26.571V250c0,14.65,11.922,26.571,26.571,26.571h70.857
				c14.65,0,26.571-11.922,26.571-26.571v-6.173l16.226-24.339c1.816-2.719,1.984-6.209,0.443-9.087
				c-1.541-2.887-4.544-4.685-7.812-4.685H328.2C324.542,195.405,314.693,188,303.143,188H232.286z M312,214.571
				c0,4.889,3.968,8.857,8.857,8.857h1.16l-8.529,12.798c-0.965,1.453-1.488,3.171-1.488,4.916V250c0,4.88-3.977,8.857-8.857,8.857
				h-70.857c-4.88,0-8.857-3.977-8.857-8.857v-35.429c0-4.88,3.977-8.857,8.857-8.857h70.857
				C308.023,205.714,312,209.691,312,214.571z"/>
			<rect x="205.714" y="143.714" fill="#EE2138" width="17.714" height="17.714"/>
			<rect x="241.143" y="143.714" fill="#EE2138" width="17.714" height="17.714"/>
			<rect x="276.571" y="143.714" fill="#EE2138" width="17.714" height="17.714"/>
		</g>
	</g>
</g>
<g id="Layer_20" display="none">
	<g display="inline">
		<g>
			<g>
				<path fill="#EE2138" d="M402.947,117.152c32.436,0,58.826-26.389,58.826-58.826c0-32.437-26.389-58.826-58.826-58.826
					c-32.437,0-58.826,26.389-58.826,58.826C344.121,90.762,370.511,117.152,402.947,117.152z M402.947,38.717
					c10.812,0,19.609,8.796,19.609,19.609s-8.796,19.609-19.609,19.609s-19.609-8.796-19.609-19.609S392.135,38.717,402.947,38.717z
					"/>
				<path fill="#EE2138" d="M137.251,117.152c32.437,0,58.826-26.389,58.826-58.826c0-32.437-26.389-58.826-58.826-58.826
					S78.425,25.889,78.425,58.326C78.425,90.762,104.814,117.152,137.251,117.152z M137.251,38.717
					c10.812,0,19.609,8.796,19.609,19.609s-8.796,19.609-19.609,19.609c-10.812,0-19.609-8.796-19.609-19.609
					S126.438,38.717,137.251,38.717z"/>
				<path fill="#EE2138" d="M442.164,135.78H363.73c-32.436,0-58.826,26.389-58.826,58.826v85.297h-69.611v-85.297
					c0-32.437-26.389-58.826-58.826-58.826H98.033c-32.437,0-58.826,26.389-58.826,58.826v85.297H-0.99V500.5h39.217V319.12h0.98
					h265.697v39.217h39.217V500.5h39.217V319.12h-39.217V194.606c0-10.812,8.796-19.609,19.609-19.609h78.435
					c10.812,0,19.609,8.796,19.609,19.609V319.12h-39.217V500.5h39.217V358.338h39.217V194.606
					C500.99,162.169,474.601,135.78,442.164,135.78z M196.076,279.903H78.425v-85.297c0-10.812,8.796-19.609,19.609-19.609h78.434
					c10.812,0,19.609,8.796,19.609,19.609V279.903z"/>
			</g>
		</g>
	</g>
</g>
<g id="Layer_23" display="none">
	<g display="inline">
		<g>
			<g>
				<path fill="#EE2138" d="M93.167,291.362c-18.235,0-33.017,14.783-33.017,33.018s14.783,33.017,33.017,33.017
					s33.017-14.783,33.017-33.017S111.402,291.362,93.167,291.362z M93.167,340.888c-9.118,0-16.509-7.391-16.509-16.509
					c0-9.118,7.391-16.509,16.509-16.509s16.509,7.391,16.509,16.509C109.676,333.498,102.285,340.888,93.167,340.888z"/>
			</g>
		</g>
		<g>
			<g>
				<path fill="#EE2138" d="M283.017,299.616v-16.509h-132.07c-4.558,0-8.254,3.696-8.254,8.254v66.035
					c0,4.559,3.696,8.254,8.254,8.254h132.07v-16.509H159.202v-16.509h123.815v-16.509H159.202v-16.509H283.017z"/>
			</g>
		</g>
		<g>
			<g>
				<path fill="#EE2138" d="M459.503,35.296C418.474-7.468,350.545-8.876,307.78,32.153
					c-42.765,41.029-44.172,108.958-3.144,151.722c1.026,1.069,2.074,2.117,3.144,3.144v54.817c0,4.558,3.696,8.254,8.254,8.254
					h16.509v29.6l-14.09,14.09c-3.222,3.223-3.222,8.448,0,11.672l14.09,14.09v59.2l-14.09,14.09c-3.222,3.223-3.222,8.448,0,11.672
					l10.673,10.673l-10.673,10.673c-3.222,3.223-3.222,8.448,0,11.672l57.78,57.781c3.223,3.222,8.448,3.222,11.672,0l41.272-41.272
					c1.548-1.548,2.418-3.646,2.418-5.836V250.09h16.509c4.559,0,8.254-3.696,8.254-8.254v-54.817
					C499.124,145.989,500.531,78.061,459.503,35.296z M415.087,444.778l-33.017,33.017l-46.109-46.109l10.673-10.673
					c3.222-3.223,3.222-8.448,0-11.672l-10.673-10.673l10.673-10.673c1.548-1.548,2.418-3.646,2.418-5.836v-66.035
					c0-2.19-0.871-4.288-2.418-5.836l-10.673-10.673l10.673-10.673c1.548-1.548,2.418-3.646,2.418-5.836V250.09h33.018v165.087
					h16.509V250.09h16.509V444.778z M439.85,233.582H324.289v-33.537c35.174,22.706,80.387,22.706,115.561,0V233.582z
					 M382.07,200.564c-50.122-0.059-90.739-40.676-90.798-90.798c0-50.146,40.652-90.798,90.798-90.798
					c50.146,0,90.798,40.652,90.798,90.798S432.216,200.564,382.07,200.564z"/>
			</g>
		</g>
		<g>
			<g>
				<rect x="382.07" y="431.686" fill="#EE2138" width="16.509" height="16.509"/>
			</g>
		</g>
		<g>
			<g>
				<path fill="#EE2138" d="M382.07,35.477c-22.793,0-41.272,18.479-41.272,41.272c0.027,22.782,18.49,41.245,41.272,41.272
					c22.793,0,41.272-18.479,41.272-41.272C423.342,53.955,404.864,35.477,382.07,35.477z M382.07,101.512
					c-13.677,0-24.763-11.087-24.763-24.763c0-13.677,11.087-24.763,24.763-24.763c13.676,0,24.763,11.087,24.763,24.763
					C406.833,90.425,395.746,101.512,382.07,101.512z"/>
			</g>
		</g>
		<g>
			<g>
				<path fill="#EE2138" d="M60.15,266.599h222.868V250.09H135.925l13.966-83.79c4.574-27.901,28.723-48.356,56.996-48.28H250
					v-16.509h-43.113c-36.347-0.091-67.389,26.206-73.274,62.073l-14.42,86.506H94.727l17.062-98.103
					c7.496-43.528,45.283-75.312,89.452-75.238H250V60.24h-48.759c-52.199-0.083-96.856,37.475-105.722,88.916L77.971,250.09h-9.567
					V192.31c0-4.559-3.696-8.254-8.254-8.254H18.878c-4.559,0-8.254,3.696-8.254,8.254v33.017c0,4.559,3.696,8.254,8.254,8.254
					h33.018v17.681c-14.534,3.753-24.706,16.836-24.763,31.845v82.544c0.023,15.681,11.055,29.19,26.414,32.349l3.731,14.932
					c2.337,9.355,9.905,16.495,19.381,18.283v58.251c0,4.559,3.696,8.254,8.254,8.254h99.052c4.558,0,8.254-3.696,8.254-8.254
					v-57.78h90.798v-16.509H81.297c-3.792,0.003-7.098-2.577-8.015-6.257l-2.559-10.252h212.294V382.16H60.15
					c-9.118,0-16.509-7.391-16.509-16.509v-82.544C43.641,273.99,51.033,266.599,60.15,266.599z M27.132,217.073v-16.509h24.763
					v16.509H27.132z M93.167,431.686h16.509v33.017h16.509v-33.017h16.509v16.509h16.509v-16.509h16.509v49.526H93.167V431.686z"/>
			</g>
		</g>
		<g>
			<g>
				<rect x="340.798" y="134.529" fill="#EE2138" width="82.544" height="16.509"/>
			</g>
		</g>
	</g>
</g>
<g id="Layer_22" display="none">
	<g display="inline">
		<g>
			<g>
				<path fill="#EE2138" d="M456.797,362.984c24.47-3.937,42.472-25.042,42.501-49.827v-50.526c0-4.651-3.771-8.421-8.421-8.421
					h-235.93c-4.65,0-8.421,3.77-8.421,8.421v75.789h-16.699V136.317c0.002-1.138-0.23-2.264-0.682-3.309l-24.581-57.321V35.266
					c0-4.65-3.77-8.421-8.421-8.421H44.566c-4.651,0-8.421,3.771-8.421,8.421v40.421l-24.581,57.347
					c-0.448,1.037-0.68,2.155-0.682,3.284v289.285c-11.562,9.08-13.574,25.813-4.494,37.375c5.055,6.437,12.789,10.19,20.973,10.178
					H440.35c3.207,0.018,6.145-1.788,7.579-4.657l14.467-29.027h36.901v-16.842h-76.1
					C442.338,408.402,454.548,386.727,456.797,362.984z M457.192,271.052h25.263v42.105c-0.058,15.312-10.436,28.66-25.263,32.488
					V271.052z M208.639,127.896h-24.993l12.497-29.145L208.639,127.896z M212.985,144.738V338.42h-33.684V144.738H212.985
					L212.985,144.738z M52.986,43.687h134.735v25.263H52.986V43.687z M50.115,85.791h133.262l-18.046,42.105H32.069L50.115,85.791z
					 M27.724,144.738h134.735V338.42h-17.895c-7.698-0.002-15.02,3.323-20.084,9.12c-2.156,2.519-3.819,5.421-4.901,8.556
					l-40.976,11.705c-10.428,3.062-17.969,12.127-19.082,22.939l-31.797,22.711V144.738z M27.362,456.313
					c-4.237,0.005-7.997-2.713-9.322-6.737c-1.382-4.093,0.083-8.606,3.604-11.107l40.328-28.808l9.33,46.652H27.362z
					 M88.473,456.313l-12.185-60.951c-0.975-5.016,2.034-9.947,6.939-11.377l35.604-10.172l11.166,82.5H88.473z M146.998,456.313
					l-12.177-89.927c-0.716-5.38,3.064-10.322,8.444-11.038c0.43-0.057,0.864-0.086,1.299-0.086h101.969
					c0.072,26.559,12.668,51.528,33.987,67.368h-67.536v16.842h36.901l8.421,16.842H146.998z M443.567,439.471l-8.421,16.842
					H277.136l-8.421-16.842H443.567z M372.84,422.629h-41.962c-37.266-0.046-67.464-30.245-67.511-67.511v-84.066H440.35v84.066
					C440.309,392.387,410.108,422.587,372.84,422.629z"/>
			</g>
		</g>
		<g>
			<g>
				<path fill="#EE2138" d="M339.156,388.946c-23.242-0.027-42.077-18.863-42.105-42.105v-8.421h-16.842v8.421
					c0.042,32.537,26.409,58.905,58.947,58.947h8.421v-16.842H339.156z"/>
			</g>
		</g>
		<g>
			<g>
				<rect x="280.209" y="304.736" fill="#EE2138" width="16.842" height="16.842"/>
			</g>
		</g>
		<g>
			<g>
				<path fill="#EE2138" d="M444.561,153.159H343.509c-6.976,0-12.631-5.656-12.631-12.632c0-6.976,5.656-12.631,12.631-12.631
					h37.894c23.242-0.027,42.077-18.863,42.105-42.105h-16.842c0,13.952-11.31,25.263-25.263,25.263h-37.894
					c-16.278,0-29.473,13.196-29.473,29.473s13.196,29.473,29.473,29.473h101.052c6.976,0,12.631,5.656,12.631,12.631
					c0,6.976-5.656,12.631-12.631,12.631H322.457c-23.242,0.027-42.077,18.863-42.105,42.105h16.842
					c0-13.952,11.31-25.263,25.263-25.263h122.104c16.278,0,29.473-13.196,29.473-29.473S460.839,153.159,444.561,153.159z"/>
			</g>
		</g>
		<g>
			<g>
				<path fill="#EE2138" d="M95.091,186.843c-18.603,0-33.684,15.081-33.684,33.684s15.081,33.684,33.684,33.684
					c18.603,0,33.684-15.081,33.684-33.684S113.694,186.843,95.091,186.843z M95.091,237.368c-9.302,0-16.842-7.54-16.842-16.842
					s7.54-16.842,16.842-16.842s16.842,7.54,16.842,16.842S104.393,237.368,95.091,237.368z"/>
			</g>
		</g>
		<g>
			<g>
				<rect x="61.408" y="271.052" fill="#EE2138" width="67.368" height="16.842"/>
			</g>
		</g>
		<g>
			<g>
				<rect x="61.408" y="304.736" fill="#EE2138" width="67.368" height="16.842"/>
			</g>
		</g>
	</g>
</g>
<g id="Layer_24">
	<g>
		<g>
			<g>
				<path fill="#EE2138" d="M84,291.5c-18.336,0-33.2,14.864-33.2,33.2c0,18.336,14.864,33.2,33.2,33.2s33.2-14.864,33.2-33.2
					C117.2,306.364,102.336,291.5,84,291.5z M84,341.3c-9.168,0-16.6-7.432-16.6-16.6s7.432-16.6,16.6-16.6s16.6,7.432,16.6,16.6
					S93.168,341.3,84,341.3z"/>
			</g>
		</g>
		<g>
			<g>
				<path fill="#EE2138" d="M357.9,283.2H142.1c-4.584,0-8.3,3.716-8.3,8.3v66.4c0,4.584,3.716,8.3,8.3,8.3h215.8
					c4.584,0,8.3-3.716,8.3-8.3v-66.4C366.2,286.916,362.484,283.2,357.9,283.2z M349.6,349.6H150.4V333h199.2V349.6z M349.6,316.4
					H150.4v-16.6h199.2V316.4z"/>
			</g>
		</g>
		<g>
			<g>
				<path fill="#EE2138" d="M416,291.5c-18.336,0-33.2,14.864-33.2,33.2c0,18.336,14.864,33.2,33.2,33.2
					c18.336,0,33.2-14.864,33.2-33.2C449.2,306.364,434.336,291.5,416,291.5z M416,341.3c-9.168,0-16.6-7.432-16.6-16.6
					s7.432-16.6,16.6-16.6s16.6,7.432,16.6,16.6S425.168,341.3,416,341.3z"/>
			</g>
		</g>
		<g>
			<g>
				<rect x="216.8" y="34.2" fill="#EE2138" width="66.4" height="16.6"/>
			</g>
		</g>
		<g>
			<g>
				<path fill="#EE2138" d="M490.7,84h-33.2c-4.584,0-8.3,3.716-8.3,8.3v83c0,4.584,3.716,8.3,8.3,8.3h8.3v16.6h-33.2v-166
					c0-18.336-14.864-33.2-33.2-33.2H100.6C82.264,1,67.4,15.864,67.4,34.2v166H34.2v-16.6h8.3c4.584,0,8.3-3.716,8.3-8.3v-83
					c0-4.584-3.716-8.3-8.3-8.3H9.3C4.716,84,1,87.716,1,92.3v83c0,4.584,3.716,8.3,8.3,8.3h8.3v24.9c0,4.584,3.716,8.3,8.3,8.3
					h41.5V250H50.8c-18.336,0-33.2,14.864-33.2,33.2v83c0.02,15.769,11.114,29.355,26.56,32.528l3.752,15.023
					c2.354,9.403,9.963,16.577,19.488,18.376V490.7c0,4.584,3.716,8.3,8.3,8.3h99.6c4.584,0,8.3-3.716,8.3-8.3v-58.1h132.8v58.1
					c0,4.584,3.716,8.3,8.3,8.3h99.6c4.584,0,8.3-3.716,8.3-8.3v-58.573c9.529-1.799,17.142-8.978,19.497-18.385l3.752-15.015
					c15.443-3.176,26.533-16.762,26.552-32.528v-83c0-18.336-14.864-33.2-33.2-33.2h-16.6v-33.2h41.5c4.584,0,8.3-3.716,8.3-8.3
					v-24.9h8.3c4.584,0,8.3-3.716,8.3-8.3v-83C499,87.716,495.284,84,490.7,84z M17.6,167v-66.4h16.6V167H17.6z M84,34.2
					c0-9.168,7.432-16.6,16.6-16.6h298.8c9.168,0,16.6,7.432,16.6,16.6V250h-16.6V75.7c0-4.584-3.716-8.3-8.3-8.3H108.9
					c-4.584,0-8.3,3.716-8.3,8.3V250H84V34.2z M382.8,84v166H117.2V84H382.8z M167,482.4H84v-49.8h16.6v33.2h16.6v-33.2h16.6v16.6
					h16.6v-16.6H167V482.4z M416,482.4h-83v-49.8h16.6v16.6h16.6v-16.6h16.6v33.2h16.6v-33.2H416V482.4z M435.995,409.709
					c-0.922,3.7-4.246,6.294-8.059,6.291H72.065c-3.81,0.004-7.134-2.587-8.059-6.283L61.424,399.4h377.152L435.995,409.709z
					 M449.2,266.6c9.168,0,16.6,7.432,16.6,16.6v83c0,9.168-7.432,16.6-16.6,16.6H50.8c-9.168,0-16.6-7.432-16.6-16.6v-83
					c0-9.168,7.432-16.6,16.6-16.6H449.2z M482.4,167h-16.6v-66.4h16.6V167z"/>
			</g>
		</g>
		<g>
			<g>
				<path fill="#EE2138" d="M142.1,100.6c-4.584,0-8.3,3.716-8.3,8.3v66.4h16.6v-58.1H167v-16.6H142.1z"/>
			</g>
		</g>
		<g>
			<g>
				<rect x="133.8" y="191.9" fill="#EE2138" width="16.6" height="16.6"/>
			</g>
		</g>
	</g>
</g>
</svg>
