<?xml version="1.0" encoding="utf-8"?>
<!-- Generator: Adobe Illustrator 16.0.0, SVG Export Plug-In . SVG Version: 6.00 Build 0)  -->
<!DOCTYPE svg PUBLIC "-//W3C//DTD SVG 1.1//EN" "http://www.w3.org/Graphics/SVG/1.1/DTD/svg11.dtd">
<svg version="1.1" xmlns="http://www.w3.org/2000/svg" xmlns:xlink="http://www.w3.org/1999/xlink" x="0px" y="0px" width="500px"
	 height="500px" viewBox="0 0 500 500" enable-background="new 0 0 500 500" xml:space="preserve">
<g id="Layer_1" display="none">
	<g display="inline">
		<g>
			<g>
				<path fill="#EE2138" d="M441.406,0H58.594C26.285,0,0,26.285,0,58.594v382.813C0,473.715,26.285,500,58.594,500h382.813
					C473.715,500,500,473.715,500,441.406V58.594C500,26.285,473.715,0,441.406,0z M460.938,441.406
					c0,10.77-8.762,19.531-19.531,19.531H58.594c-10.77,0-19.531-8.762-19.531-19.531V58.594c0-10.77,8.762-19.531,19.531-19.531
					h382.813c10.77,0,19.531,8.762,19.531,19.531V441.406z"/>
				<path fill="#EE2138" d="M279.297,97.656H142.578v304.688h39.063V292.969h97.656c53.848,0,97.656-43.809,97.656-97.656
					S333.145,97.656,279.297,97.656z M279.297,253.906h-97.656V136.719h97.656c32.309,0,58.594,26.285,58.594,58.594
					S311.605,253.906,279.297,253.906z"/>
			</g>
		</g>
	</g>
</g>
<g id="Layer_2">
	<g>
		<g>
			<path fill="#EE2138" d="M387.207,0C333.318,0,288.18,38.155,277.37,88.867H0.488v29.654l191.406,224.609v117.807H113.77V500
				h195.313v-39.063h-78.125V343.131l191.406-224.609V88.867h-104.53c9.798-28.922,37.185-49.805,69.374-49.805
				c40.386,0,73.242,32.856,73.242,73.242c0,26.072-13.704,48.99-34.277,61.973l-42.83,50.26c1.285,0.043,2.573,0.073,3.865,0.073
				c61.925,0,112.305-50.38,112.305-112.305S449.132,0,387.207,0z M211.426,305.825l-83.359-97.82h166.719L211.426,305.825z
				 M363.023,127.93l-34.95,41.013H96.191v1.658L59.828,127.93H363.023z"/>
		</g>
	</g>
</g>
</svg>
