<?xml version="1.0" encoding="utf-8"?>
<!-- Generator: Adobe Illustrator 16.0.0, SVG Export Plug-In . SVG Version: 6.00 Build 0)  -->
<!DOCTYPE svg PUBLIC "-//W3C//DTD SVG 1.1//EN" "http://www.w3.org/Graphics/SVG/1.1/DTD/svg11.dtd">
<svg version="1.1" id="Capa_1" xmlns="http://www.w3.org/2000/svg" xmlns:xlink="http://www.w3.org/1999/xlink" x="0px" y="0px"
	 width="491.927px" height="500px" viewBox="4.037 0 491.927 500" enable-background="new 4.037 0 491.927 500"
	 xml:space="preserve">
<g>
	<path fill="#F71634" d="M462.603,328.571H451.52c0.309-0.866,0.487-1.796,0.487-2.769V60.989C452.007,27.359,424.647,0,391.018,0
		s-60.989,27.359-60.989,60.989v378.021c0,24.541-19.965,44.506-44.505,44.506c-24.541,0-44.506-19.965-44.506-44.506v-10.416h2.747
		c4.552,0,8.241-3.689,8.241-8.242s-3.689-8.241-8.241-8.241h-21.978c-4.551,0-8.242,3.688-8.242,8.241s3.69,8.242,8.242,8.242
		h2.748v10.416c0,33.63,27.359,60.989,60.989,60.989c33.629,0,60.988-27.359,60.988-60.989V60.989
		c0-24.541,19.965-44.506,44.506-44.506s44.506,19.965,44.506,44.506v264.813c0,0.973,0.177,1.902,0.486,2.769h-15.27
		c-16.085,0-29.172,13.087-29.172,29.174v66.98c0,4.553,3.689,8.241,8.241,8.241h11.541v58.791c0,4.553,3.69,8.242,8.242,8.242
		c4.551,0,8.241-3.689,8.241-8.242v-58.791h31.862v58.791c0,4.553,3.69,8.242,8.242,8.242s8.242-3.689,8.242-8.242v-58.791h11.541
		c4.552,0,8.242-3.688,8.242-8.241v-66.98C495.963,341.049,478.35,328.571,462.603,328.571z M479.479,416.483h-71.429v-58.738
		c0-6.997,5.692-12.69,12.688-12.69h41.863c7.886,0,16.876,6.76,16.876,12.69L479.479,416.483L479.479,416.483z"/>
	<path fill="#F71634" d="M284.974,365.408V90.623c0-16.663-13.556-30.22-30.22-30.22h-13.736V11.602c0-4.553-3.69-8.242-8.242-8.242
		H56.235c-4.552,0-8.242,3.689-8.242,8.242v48.801H34.257c-16.664,0-30.22,13.557-30.22,30.22v274.785
		c0,16.663,13.556,30.219,30.22,30.219h220.496C271.416,395.627,284.974,382.071,284.974,365.408z M64.477,19.844h160.056v267.193
		H64.477V19.844z M20.521,365.408V90.623c0-7.575,6.162-13.736,13.736-13.736h13.736v218.391c0,4.553,3.69,8.242,8.242,8.242h176.54
		c4.551,0,8.242-3.689,8.242-8.242V76.887h13.736c7.575,0,13.735,6.162,13.735,13.736v274.785c0,7.574-6.16,13.736-13.735,13.736
		H34.257C26.684,379.145,20.521,372.981,20.521,365.408z"/>
	<path fill="#F71634" d="M234.424,329.693c-9.089,0-16.484,7.395-16.484,16.483s7.395,16.483,16.484,16.483
		c9.089,0,16.484-7.395,16.484-16.483S243.513,329.693,234.424,329.693z"/>
	<path fill="#F71634" d="M137.134,254.459c1.396,2.791,4.249,4.557,7.371,4.557s5.976-1.764,7.372-4.557l13.187-26.373
		c1.278-2.555,1.142-5.589-0.361-8.02c-1.502-2.43-4.155-3.909-7.011-3.909h-26.374c-2.856,0-5.509,1.479-7.011,3.909
		c-1.502,2.431-1.638,5.465-0.36,8.02L137.134,254.459z"/>
</g>
</svg>
