<?xml version="1.0" encoding="utf-8"?>
<!-- Generator: Adobe Illustrator 16.0.0, SVG Export Plug-In . SVG Version: 6.00 Build 0)  -->
<!DOCTYPE svg PUBLIC "-//W3C//DTD SVG 1.1//EN" "http://www.w3.org/Graphics/SVG/1.1/DTD/svg11.dtd">
<svg version="1.1" xmlns="http://www.w3.org/2000/svg" xmlns:xlink="http://www.w3.org/1999/xlink" x="0px" y="0px" width="500px"
	 height="500px" viewBox="0 0 500 500" enable-background="new 0 0 500 500" xml:space="preserve">
<g id="Layer_1" display="none">
	<g display="inline">
		<g>
			<g>
				<path fill="#F99F1C" d="M497.593,487.265L394.162,386.334c2.778-6.646,4.318-13.935,4.318-21.577V123.6
					c0-31.007-25.135-56.142-56.142-56.142h-85.823V53.493c10.367-1.866,18.26-10.949,18.26-21.846V14.847h13.352
					c12.975,0,23.493,10.519,23.493,23.493v3.61c0,4.065,3.132,7.609,7.194,7.731c4.203,0.127,7.652-3.244,7.652-7.42v-3.923
					C326.467,17.165,309.301,0,288.127,0h-20.775h-39.005h-20.773c-21.174,0-38.34,17.166-38.34,38.34v3.61
					c0,4.065,3.132,7.609,7.194,7.731c4.203,0.127,7.652-3.244,7.652-7.42v-3.923c0-12.975,10.519-23.493,23.493-23.493h13.352
					v16.802c0,11.754,9.18,21.396,20.744,22.151V67.46h-17.977c-4.1,0-7.423,3.323-7.423,7.423s3.323,7.423,7.423,7.423h118.648
					c22.808,0,41.295,18.489,41.295,41.295v241.156c0,22.807-18.489,41.295-41.295,41.295h-40.302v-11.539
					c0-15.82-12.824-28.645-28.645-28.645h-51.083c-15.82,0-28.645,12.825-28.645,28.645v11.539h-40.302
					c-22.808,0-41.295-18.489-41.295-41.295V123.6c0-22.808,18.49-41.295,41.295-41.295h35.688c4.1,0,7.423-3.323,7.423-7.423
					s-3.323-7.423-7.423-7.423h-35.688c-31.007,0-56.142,25.135-56.142,56.142v241.156c0,8.196,1.779,15.979,4.951,23.007
					L2.238,485.285c-2.934,2.863-2.991,7.563-0.128,10.497c1.455,1.49,3.383,2.239,5.313,2.239c1.869,0,3.74-0.702,5.185-2.11
					l97.618-95.265c3.653,4.384,7.965,8.193,12.774,11.299l-55.277,74.218c-2.448,3.288-1.769,7.938,1.52,10.388
					c1.331,0.992,2.887,1.47,4.428,1.47c2.266,0,4.502-1.033,5.959-2.99l14.377-19.305h310.328l15.854,21.284
					c1.458,1.957,3.693,2.99,5.959,2.99c1.689,0,3.395-0.574,4.805-1.77c3.02-2.56,3.356-7.117,0.992-10.292l-57.484-77.18
					c4.506-3.155,8.524-6.954,11.931-11.264l100.832,98.395c1.443,1.408,3.314,2.11,5.184,2.11c1.93,0,3.859-0.748,5.313-2.239
					C500.585,494.827,500.528,490.127,497.593,487.265z M243.127,39.006c-4.057-0.001-7.357-3.301-7.357-7.357V14.847h24.158v16.802
					c0,4.057-3.299,7.357-7.357,7.357H243.127z M208.509,394.513c0-7.609,6.19-13.799,13.799-13.799h51.084
					c7.609,0,13.799,6.19,13.799,13.799v11.539H208.51L208.509,394.513L208.509,394.513z M393.279,460.881H105.065l31.654-42.5
					c5.261,1.635,10.85,2.518,16.641,2.518h47.725h93.529h47.725c6.576,0,12.886-1.146,18.755-3.232L393.279,460.881z"/>
			</g>
		</g>
		<g>
			<g>
				<path fill="#F99F1C" d="M360.681,132.786h-76.464c-3.449-16.919-18.443-29.689-36.367-29.689
					c-17.922,0-32.917,12.77-36.367,29.689h-76.458c-4.1,0-7.423,3.324-7.423,7.423v142.527c0,4.1,3.323,7.422,7.423,7.422h144.093
					c4.1,0,7.422-3.322,7.422-7.422s-3.322-7.424-7.422-7.424h-136.67V147.633h69.034c3.447,16.921,18.444,29.694,36.369,29.694
					c17.924,0,32.92-12.772,36.367-29.694h69.04v127.679h-39.499c-4.1,0-7.423,3.324-7.423,7.424s3.323,7.422,7.423,7.422h46.922
					c4.1,0,7.423-3.322,7.423-7.422V140.209h0.001C368.104,136.11,364.78,132.786,360.681,132.786z M247.85,162.48
					c-12.279,0-22.269-9.989-22.269-22.269c0-12.28,9.99-22.269,22.269-22.269s22.268,9.989,22.268,22.269
					C270.117,152.491,260.129,162.48,247.85,162.48z"/>
			</g>
		</g>
		<g>
			<g>
				<path fill="#F99F1C" d="M193.149,303.025h-58.125c-4.1,0-7.423,3.324-7.423,7.424v29.688c0,4.1,3.323,7.422,7.423,7.422h58.125
					c4.1,0,7.423-3.322,7.423-7.422v-29.688C200.572,306.35,197.249,303.025,193.149,303.025z M185.725,332.713h-43.278v-14.84
					h43.278V332.713z"/>
			</g>
		</g>
		<g>
			<g>
				<path fill="#F99F1C" d="M360.681,303.025h-58.126c-4.1,0-7.424,3.324-7.424,7.424v29.688c0,4.1,3.324,7.422,7.424,7.422h58.126
					c4.1,0,7.423-3.322,7.423-7.422v-29.688C368.104,306.35,364.78,303.025,360.681,303.025z M353.258,332.713h-43.279v-14.84
					h43.279V332.713z"/>
			</g>
		</g>
	</g>
</g>
<g id="Layer_2" display="none">
	<g display="inline">
		<g>
			<g>
				<path fill="#F99F1C" d="M406.864,194.916H101.78c-4.677,0-8.474,3.796-8.474,8.474v254.236
					c0,23.366,18.971,42.374,42.289,42.374h237.458c23.318,0,42.289-19.008,42.289-42.374V203.39
					C415.341,198.712,411.544,194.916,406.864,194.916z M398.386,457.626c0,14.019-11.364,25.424-25.34,25.424H135.593
					c-13.971,0-25.339-11.403-25.339-25.424V211.863h288.132V457.626L398.386,457.626z"/>
			</g>
		</g>
		<g>
			<g>
				<path fill="#F99F1C" d="M254.322,0c-32.711,0-59.321,26.61-59.321,59.321c0,4.677,3.796,8.474,8.474,8.474
					s8.474-3.796,8.474-8.474c0-23.366,19.008-42.374,42.374-42.374c23.365,0,42.374,19.008,42.374,42.374
					c0,4.677,3.795,8.474,8.473,8.474s8.475-3.796,8.475-8.474C313.646,26.61,287.035,0,254.322,0z"/>
			</g>
		</g>
		<g>
			<g>
				<path fill="#F99F1C" d="M279.775,355.932h-50.907c-28.021,0-50.818,22.792-50.818,50.805v84.787
					c0,4.678,3.796,8.474,8.474,8.474h135.594c4.678,0,8.474-3.796,8.474-8.474v-84.787
					C330.593,378.721,307.799,355.932,279.775,355.932z M313.646,483.05H195.001v-76.313c0-18.67,15.194-33.855,33.868-33.855
					h50.907c18.673,0,33.868,15.188,33.868,33.855v76.313H313.646z"/>
			</g>
		</g>
		<g>
			<g>
				<path fill="#F99F1C" d="M432.288,305.084c-18.69,0-33.897,15.22-33.897,33.928v67.737c0,18.708,15.207,33.928,33.897,33.928
					s33.897-15.22,33.897-33.928v-67.737C466.188,320.304,450.98,305.084,432.288,305.084z M449.237,406.749
					c0,9.365-7.602,16.979-16.949,16.979s-16.95-7.619-16.95-16.979v-67.737c0-9.365,7.603-16.98,16.95-16.98
					s16.949,7.615,16.949,16.98V406.749z"/>
			</g>
		</g>
		<g>
			<g>
				<path fill="#F99F1C" d="M76.356,305.084c-18.69,0-33.897,15.22-33.897,33.928v67.737c0,18.708,15.207,33.928,33.897,33.928
					c18.69,0,33.897-15.22,33.897-33.928v-67.737C110.256,320.304,95.049,305.084,76.356,305.084z M93.306,406.749
					c0,9.365-7.602,16.979-16.95,16.979c-9.348,0-16.95-7.619-16.95-16.979v-67.737c0-9.365,7.602-16.98,16.95-16.98
					c9.348,0,16.95,7.615,16.95,16.98V406.749z"/>
			</g>
		</g>
		<g>
			<g>
				<path fill="#F99F1C" d="M406.852,50.842H101.797c-23.373,0-42.386,19.038-42.386,42.436v76.146
					c0,23.398,19.013,42.436,42.386,42.436h305.054c23.373,0,42.386-19.038,42.386-42.436V93.278
					C449.237,69.88,430.225,50.842,406.852,50.842z M432.285,169.433c0,14.055-11.411,25.488-25.436,25.488H101.792
					c-14.025,0-25.436-11.436-25.436-25.488V93.286c0-14.055,11.411-25.488,25.436-25.488h305.054
					c14.025,0,25.437,11.436,25.437,25.488v76.147H432.285z"/>
			</g>
		</g>
		<g>
			<g>
				<path fill="#F99F1C" d="M220.425,161.016h-50.848c-4.678,0-8.474,3.796-8.474,8.474v67.797c0,4.677,3.796,8.474,8.474,8.474
					h50.848c4.677,0,8.474-3.796,8.474-8.474v-67.795C228.898,164.814,225.102,161.016,220.425,161.016z M211.951,228.813h-33.9
					v-50.847h33.897v50.847H211.951z"/>
			</g>
		</g>
		<g>
			<g>
				<path fill="#F99F1C" d="M339.069,161.016h-50.848c-4.678,0-8.474,3.796-8.474,8.474v67.797c0,4.677,3.796,8.474,8.474,8.474
					h50.848c4.678,0,8.474-3.796,8.474-8.474v-67.795C347.543,164.814,343.747,161.016,339.069,161.016z M330.593,228.813h-33.896
					v-50.847h33.896V228.813z"/>
			</g>
		</g>
	</g>
</g>
<g id="Layer_3" display="none">
	<g display="inline">
		<g>
			<g>
				<path fill="#F99F1C" d="M492.599,261.887h-9.563c-8.012,0-14.529-6.518-14.529-14.529s6.517-14.529,14.528-14.529h9.563
					c4.089,0,7.401-3.313,7.401-7.402v-44.404c0-4.088-3.313-7.4-7.401-7.4h-9.563c-8.012,0-14.529-6.518-14.529-14.529V156.4
					l10.856-9.945c2.943-2.696,3.219-7.241,0.622-10.273l-28.892-33.719c-1.277-1.491-3.095-2.413-5.052-2.563
					c-1.961-0.164-3.896,0.482-5.384,1.759l-7.263,6.224c-6.084,5.212-15.275,4.503-20.487-1.58
					c-2.525-2.946-3.752-6.701-3.453-10.571c0.298-3.869,2.085-7.391,5.033-9.916l7.263-6.224c3.104-2.659,3.465-7.332,0.805-10.436
					l-28.893-33.719c-2.658-3.103-7.331-3.465-10.436-0.805l-7.264,6.223c-2.947,2.525-6.7,3.754-10.57,3.453
					c-3.869-0.298-7.391-2.085-9.916-5.033l-9.689-11.31c-1.277-1.491-3.095-2.413-5.052-2.563c-1.964-0.15-3.895,0.48-5.384,1.759
					L207.395,136.797h-21.127c-4.09,0-7.402,3.313-7.402,7.401c0,4.089,3.313,7.402,7.402,7.402h267.436v7.492
					c0,16.174,13.158,29.332,29.332,29.332h2.162v29.602h-2.162c-16.174,0-29.332,13.158-29.332,29.332s13.158,29.332,29.332,29.332
					h2.162v29.602h-2.162c-16.174,0-29.332,13.156-29.332,29.33V352.4h-51.176c-4.089,0-7.401,3.313-7.401,7.402
					c0,4.088,3.313,7.4,7.401,7.4h58.577c4.089,0,7.401-3.313,7.401-7.4v-24.182c0-8.01,6.518-14.527,14.529-14.527h9.563
					c4.089,0,7.401-3.313,7.401-7.402v-44.404C500,265.199,496.688,261.887,492.599,261.887z M230.146,136.797L339.36,43.219
					l4.874,5.689c5.097,5.95,12.207,9.559,20.019,10.16c7.811,0.601,15.39-1.873,21.34-6.971l1.644-1.407l19.261,22.478
					l-1.643,1.408c-12.281,10.522-13.713,29.076-3.188,41.358c10.524,12.281,29.078,13.712,41.358,3.188l1.643-1.408l16.351,19.082
					H230.146z"/>
			</g>
		</g>
		<g>
			<g>
				<path fill="#F99F1C" d="M337.563,352.4H46.298v-7.492c0-16.174-13.158-29.332-29.332-29.332h-2.163v-29.602h2.163
					c16.174,0,29.332-13.158,29.332-29.332s-13.158-29.332-29.332-29.332h-2.163v-29.602h2.163
					c16.174,0,29.332-13.158,29.332-29.332v-16.779h84.465c4.089,0,7.401-3.313,7.401-7.401s-3.313-7.401-7.401-7.401H38.896
					c-4.089,0-7.401,3.313-7.401,7.401v24.18c0,8.012-6.518,14.529-14.529,14.529H7.401c-4.089,0-7.401,3.313-7.401,7.402v44.404
					c0,4.088,3.313,7.4,7.401,7.4h9.564c8.011,0,14.529,6.518,14.529,14.529s-6.518,14.529-14.529,14.529H7.401
					c-4.089,0-7.401,3.313-7.401,7.402v44.404c0,4.088,3.313,7.4,7.401,7.4h9.564c8.011,0,14.529,6.518,14.529,14.529v4.002
					l-10.457,8.293c-1.577,1.25-2.576,3.088-2.77,5.09c-0.192,2.002,0.438,3.998,1.748,5.525l28.891,33.719
					c1.277,1.491,3.095,2.413,5.052,2.563c1.957,0.163,3.895-0.481,5.384-1.759l7.264-6.224c2.947-2.526,6.701-3.761,10.57-3.453
					c3.869,0.298,7.391,2.085,9.916,5.033c5.213,6.084,4.504,15.274-1.58,20.487l-7.263,6.223
					c-3.104,2.659-3.465,7.332-0.805,10.436l28.891,33.72c2.659,3.104,7.332,3.467,10.436,0.805l7.264-6.223
					c2.946-2.525,6.712-3.755,10.57-3.453c3.869,0.298,7.39,2.085,9.916,5.033l9.689,11.309c1.464,1.708,3.538,2.586,5.624,2.586
					c1.704,0,3.416-0.585,4.812-1.781l127.731-109.442c0.07-0.062,0.133-0.128,0.201-0.191h44.981c4.089,0,7.401-3.313,7.401-7.401
					S341.652,352.4,337.563,352.4z M160.639,460.78l-4.874-5.688c-5.097-5.95-12.206-9.559-20.019-10.16
					c-7.811-0.606-15.389,1.873-21.339,6.971l-1.644,1.407l-19.261-22.479l1.643-1.407c5.949-5.098,9.559-12.207,10.16-20.02
					c0.602-7.812-1.873-15.391-6.971-21.34c-5.097-5.949-12.206-9.559-20.019-10.16c-7.81-0.592-15.39,1.875-21.34,6.971
					l-1.643,1.408l-16.352-19.082h230.871L160.639,460.78z"/>
			</g>
		</g>
		<g>
			<g>
				<path fill="#F99F1C" d="M417.869,171.494H207.037c-4.088,0-7.4,3.313-7.4,7.4c0,4.09,3.313,7.402,7.4,7.402h203.431v131.406
					H89.532V186.297h60.939c4.089,0,7.401-3.313,7.401-7.402c0-4.088-3.313-7.4-7.401-7.4h-68.34c-4.089,0-7.401,3.313-7.401,7.4
					v146.209c0,4.09,3.313,7.402,7.401,7.402H417.87c4.089,0,7.401-3.313,7.401-7.402V178.895
					C425.271,174.807,421.958,171.494,417.869,171.494z"/>
			</g>
		</g>
		<g>
			<g>
				<path fill="#F99F1C" d="M153,219.604h-40.873c-2.706,0-3.962,2.9-3.962,5.605c0,3.092,1.449,5.701,3.962,5.701h14.205v55.367
					c0,2.609,3.093,3.961,6.28,3.961c3.093,0,6.281-1.352,6.281-3.961V230.91h14.107c2.513,0,3.962-2.707,3.962-5.701
					C156.962,222.504,155.707,219.604,153,219.604z"/>
			</g>
		</g>
		<g>
			<g>
				<path fill="#F99F1C" d="M170.103,219.604c-3.188,0-6.28,1.16-6.28,3.865v62.809c0,2.609,3.092,3.961,6.28,3.961
					c3.093,0,6.28-1.352,6.28-3.961v-62.809C176.383,220.764,173.196,219.604,170.103,219.604z"/>
			</g>
		</g>
		<g>
			<g>
				<path fill="#F99F1C" d="M226.244,265.502c-3.285,0-5.99,0.967-6.184,3.961c-0.291,4.059-1.063,10.34-9.855,10.34
					c-6.668,0-10.34-3.576-10.34-11.113V241.73c0-7.537,3.672-11.113,10.146-11.113c9.178,0,9.855,6.572,10.049,9.566
					c0.096,2.9,2.707,3.963,6.281,3.963c4.25,0,6.281-1.16,6.281-6.186c0-11.209-9.568-18.359-23-18.359
					c-12.174,0-22.32,5.99-22.32,22.129v26.959c0,16.137,10.051,22.127,22.225,22.127c13.527,0,23.096-7.439,23.096-19.133
					C232.623,266.756,230.592,265.502,226.244,265.502z"/>
			</g>
		</g>
		<g>
			<g>
				<path fill="#F99F1C" d="M288.275,282.219l-21.064-32.08l17.295-21.645c0.676-0.869,0.773-1.74,0.773-2.416
					c0-3.189-4.059-6.475-7.248-6.475c-1.352,0-2.512,0.482-3.477,1.836l-20.873,28.408v-26.379c0-2.705-3.188-3.865-6.279-3.865
					c-3.189,0-6.281,1.16-6.281,3.865h0.002v62.809c0,2.609,3.092,3.961,6.279,3.961c3.094,0,6.281-1.352,6.281-3.961v-18.939
					l5.219-6.57l18.166,27.539c1.063,1.738,2.705,2.416,4.348,2.416c3.672,0,7.535-3.188,7.535-6.281
					C288.951,283.67,288.758,282.896,288.275,282.219z"/>
			</g>
		</g>
		<g>
			<g>
				<path fill="#F99F1C" d="M334.364,279.225h-27.347v-19.424h14.688c2.706,0,3.962-2.609,3.962-4.832
					c0-2.609-1.449-5.025-3.962-5.025h-14.688v-19.324h27.347c2.513,0,3.962-2.609,3.962-5.605c0-2.607-1.257-5.41-3.962-5.41
					h-34.399c-2.803,0-5.508,1.352-5.508,3.961v62.713c0,2.609,2.705,3.961,5.508,3.961h34.399c2.706,0,3.962-2.801,3.962-5.41
					C338.326,281.834,336.877,279.225,334.364,279.225z"/>
			</g>
		</g>
		<g>
			<g>
				<path fill="#F99F1C" d="M385.865,219.604h-40.873c-2.706,0-3.962,2.9-3.962,5.605c0,3.092,1.449,5.701,3.962,5.701h14.205
					v55.367c0,2.609,3.093,3.961,6.28,3.961c3.093,0,6.281-1.352,6.281-3.961V230.91h14.107c2.513,0,3.962-2.707,3.962-5.701
					C389.827,222.504,388.571,219.604,385.865,219.604z"/>
			</g>
		</g>
	</g>
</g>
<g id="Layer_4" display="none">
	<g display="inline">
		<g>
			<g>
				<path fill="#F99F1C" d="M489.712,408.437H93.622V10.288C93.622,4.115,89.506,0,83.333,0S73.045,4.115,73.045,10.288v398.148
					H10.288C4.115,408.437,0,412.552,0,418.725s4.115,10.288,10.288,10.288h62.757v60.699c0,6.173,4.115,10.288,10.288,10.288
					s10.288-4.115,10.288-10.288v-60.699h396.09c6.173,0,10.288-4.115,10.288-10.288S494.855,408.437,489.712,408.437z"/>
			</g>
		</g>
		<g>
			<g>
				<path fill="#F99F1C" d="M421.811,230.453l55.556-58.642c4.115-4.115,4.115-10.288,0-14.403s-10.288-4.115-14.403,0
					l-54.526,57.613L281.893,79.218c-2.057-2.058-5.144-3.086-7.201-3.086c-3.086,0-5.145,1.029-7.201,3.086L129.63,226.337
					c-4.115,4.115-4.115,10.288,1.028,14.403c4.115,4.115,10.288,4.115,14.403-1.029l128.601-138.889l119.342,129.629
					l-53.498,56.584l-63.785-80.247c-2.059-2.058-4.115-4.115-7.202-4.115s-6.173,1.029-8.23,3.086l-129.63,127.573
					c-4.115,4.115-4.115,10.287,0,14.402c2.058,2.059,5.144,3.087,7.202,3.087c3.086,0,5.144-1.028,7.202-3.087l122.429-120.37
					l63.785,81.276c2.058,2.057,5.145,4.115,7.202,4.115c3.086,0,6.173-1.029,8.23-3.087l60.699-63.786l54.527,59.671
					c2.058,2.058,5.144,3.087,7.201,3.087s5.145-1.029,7.202-3.087c4.115-4.115,4.115-10.288,1.028-14.403L421.811,230.453z"/>
			</g>
		</g>
	</g>
</g>
<g id="Layer_5" display="none">
	<g display="inline">
		<g>
			<path fill="#F99F1C" d="M369.597,178.857L269.104,90.862c-5.327-4.609-12.087-7.17-19.155-7.17s-13.83,2.561-19.156,7.17
				l-35.648,31.244c-2.049-7.58-3.176-15.57-3.176-23.868c0-20.078,6.352-38.927,17.824-52.961
				c10.858-13.316,25.199-20.692,40.156-20.692c31.961,0,57.979,32.985,57.979,73.653c0,6.761,5.531,12.292,12.293,12.292l0,0
				c6.761,0,12.292-5.532,12.292-12.292C332.514,44.048,295.432,0,249.949,0c-22.537,0-43.537,10.551-59.209,29.707
				c-15.059,18.439-23.356,42.717-23.356,68.531c0,14.546,2.663,28.58,7.683,41.487l-44.662,39.131
				c-11.166,9.834-17.62,23.97-17.62,38.824v220.651c0,34.01,27.658,61.668,61.668,61.668h151.096
				c34.01,0,61.668-27.658,61.668-61.668V217.681C387.216,202.827,380.762,188.691,369.597,178.857z M362.631,438.332
				c0,20.488-16.596,37.083-37.083,37.083H174.35c-20.488,0-37.082-16.595-37.082-37.083V217.681c0-7.785,3.38-15.263,9.219-20.385
				l40.463-35.444c1.229,1.639,2.459,3.278,3.688,4.917c15.674,19.156,36.674,29.708,59.209,29.708l0,0
				c6.762,0,12.293-5.532,12.293-12.293s-5.531-12.292-12.293-12.292c-15.058,0-29.297-7.375-40.155-20.692
				c-1.435-1.844-2.868-3.688-4.2-5.634l41.385-36.263c1.025-0.922,2.152-1.126,2.971-1.126c0.82,0,1.947,0.205,2.971,1.126
				l100.492,87.995c5.839,5.122,9.22,12.6,9.22,20.385v220.651H362.631z"/>
			<path fill="#F99F1C" d="M263.471,310.899h-27.044c-9.526,0-17.312-7.785-17.312-17.312c0-9.527,7.785-17.313,17.312-17.313
				h47.634c6.762,0,12.293-5.531,12.293-12.293c0-6.761-5.531-12.292-12.293-12.292h-21.819v-15.98
				c0-6.761-5.532-12.292-12.292-12.292c-6.762,0-12.293,5.531-12.293,12.292v15.98h-1.229c-23.151,0-41.897,18.849-41.897,41.897
				c0,23.15,18.85,41.896,41.897,41.896h27.044c9.526,0,17.313,7.785,17.313,17.313c0,9.526-7.786,17.312-17.313,17.312h-48.556
				c-6.761,0-12.292,5.532-12.292,12.293s5.531,12.292,12.292,12.292h22.741v16.288c0,6.761,5.531,12.292,12.293,12.292
				c6.76,0,12.292-5.531,12.292-12.292v-16.288h1.435c0.102,0,0.205,0,0.307,0c22.844-0.307,41.385-18.951,41.385-41.896
				C305.367,329.646,286.52,310.899,263.471,310.899z"/>
		</g>
	</g>
</g>
<g id="Layer_6" display="none">
	<g display="inline">
		<g>
			<g>
				<path fill="#F99F1C" d="M490.232,281.213h-7.813V46.854c0-26.924-21.904-48.828-48.828-48.828H66.406
					c-26.924,0-48.828,21.904-48.828,48.828v234.36H9.766c-5.394,0-9.766,4.372-9.766,9.766v16.602
					c0,26.386,21.466,47.852,47.852,47.852h11.289c-7.759,16.519-8.531,35.646-1.801,52.945L89.792,491.8
					c1.503,3.863,5.193,6.228,9.104,6.228c1.178,0,2.375-0.215,3.538-0.667c5.026-1.955,7.516-7.615,5.561-12.642l-32.452-83.422
					c-5.705-14.665-3.817-31.181,5.051-44.18l16.095-23.594v18.931c0,5.394,4.372,9.766,9.766,9.766s9.766-4.372,9.766-9.766
					V191.429c0-7.563,6.153-13.716,13.716-13.716s13.716,6.152,13.716,13.716v128.622c0,5.394,4.372,9.766,9.766,9.766
					s9.766-4.372,9.766-9.766v-45.964c0-7.563,6.152-13.716,13.716-13.716s13.716,6.152,13.716,13.716v45.964
					c0,5.394,4.372,9.766,9.766,9.766s9.766-4.372,9.766-9.766v-45.964c0-7.563,6.153-13.716,13.716-13.716
					s13.716,6.152,13.716,13.716v45.964c0,5.394,4.372,9.766,9.766,9.766s9.766-4.372,9.766-9.766v-45.964v-0.14
					c0-7.563,6.152-13.716,13.716-13.716s13.716,6.152,13.716,13.716v87.206c0,29.233-5.811,57.691-17.271,84.584l-16.488,38.691
					c-2.114,4.962,0.194,10.698,5.155,12.813c1.249,0.532,2.547,0.784,3.824,0.784c3.796,0,7.406-2.228,8.988-5.939l16.488-38.691
					c12.497-29.328,18.835-60.362,18.835-92.24v-5.722h148.075c26.386,0,47.852-21.466,47.852-47.852v-16.602
					C499.997,285.585,495.625,281.213,490.232,281.213z M71.424,335.9H47.852c-15.615,0-28.32-12.704-28.32-28.32v-6.836h75.875
					L71.424,335.9z M96.689,191.428v21.44h-6.849c-9.692,0-17.578-7.886-17.578-17.578s7.886-17.578,17.578-17.578h9.822
					C97.759,181.896,96.689,186.538,96.689,191.428z M160.21,177.712h34.754c9.692,0,17.578,7.886,17.578,17.578
					s-7.886,17.578-17.578,17.578h-31.78v-21.44C163.184,186.538,162.113,181.896,160.21,177.712z M270.824,240.7
					c-9.194,0-17.527,3.753-23.552,9.805c-6.014-5.971-14.288-9.666-23.411-9.666c-9.158,0-17.463,3.723-23.481,9.732
					c-6.019-6.011-14.323-9.732-23.481-9.732c-4.89,0-9.531,1.069-13.716,2.973v-11.412h31.78c20.462,0,37.109-16.647,37.109-37.109
					s-16.647-37.109-37.109-37.109H89.841c-20.462,0-37.109,16.647-37.109,37.109s16.647,37.109,37.109,37.109h6.849v48.814h-59.58
					V46.854c0-16.154,13.143-29.297,29.297-29.297h367.186c16.154,0,29.297,13.143,29.297,29.297v191.419h-83.995
					c-5.394,0-9.766,4.372-9.766,9.766s4.372,9.766,9.766,9.766h83.995v23.41H304.071v-7.267
					C304.072,255.613,289.157,240.7,270.824,240.7z M480.467,307.58c0,15.616-12.704,28.32-28.32,28.32H304.071v-35.156h176.396
					V307.58z"/>
			</g>
		</g>
		<g>
			<g>
				<path fill="#F99F1C" d="M346.893,241.13c-1.825-1.816-4.336-2.861-6.904-2.861c-2.578,0-5.088,1.045-6.904,2.861
					c-1.826,1.816-2.861,4.336-2.861,6.904c0,2.578,1.035,5.088,2.861,6.904c1.816,1.826,4.326,2.861,6.904,2.861
					c2.568,0,5.088-1.035,6.904-2.861c1.816-1.816,2.861-4.326,2.861-6.904C349.754,245.465,348.709,242.946,346.893,241.13z"/>
			</g>
		</g>
		<g>
			<g>
				<path fill="#F99F1C" d="M175.028,108.308c-1.816-1.816-4.335-2.861-6.904-2.861c-2.578,0-5.088,1.045-6.904,2.861
					c-1.826,1.816-2.861,4.336-2.861,6.904s1.035,5.088,2.861,6.904c1.816,1.816,4.336,2.861,6.904,2.861s5.078-1.045,6.904-2.861
					c1.816-1.816,2.861-4.336,2.861-6.904S176.845,110.124,175.028,108.308z"/>
			</g>
		</g>
		<g>
			<g>
				<path fill="#F99F1C" d="M132.77,105.446H62.497c-5.394,0-9.766,4.372-9.766,9.766s4.372,9.766,9.766,9.766h70.272
					c5.394,0,9.766-4.372,9.766-9.766S138.163,105.446,132.77,105.446z"/>
			</g>
		</g>
		<g>
			<g>
				<path fill="#F99F1C" d="M222.307,50.76H62.549c-5.394,0-9.766,4.372-9.766,9.766s4.372,9.766,9.766,9.766h159.758
					c5.394,0,9.766-4.372,9.766-9.766S227.7,50.76,222.307,50.76z"/>
			</g>
		</g>
		<g>
			<g>
				<path fill="#F99F1C" d="M417.967,120.653v-14.719c0-10.77-8.762-19.531-19.531-19.531h-34.343c-3.56,0-6.889,0.973-9.766,2.643
					c-2.877-1.67-6.206-2.643-9.766-2.643h-34.343c-10.77,0-19.531,8.762-19.531,19.531v14.35
					c-17.59,4.319-30.681,20.215-30.681,39.117v31.982c0,5.394,4.372,9.766,9.766,9.766h167.724c5.395,0,9.767-4.372,9.767-9.766
					v-31.982C447.264,140.998,434.854,125.449,417.967,120.653z M364.093,105.935h34.343v13.184h-34.343V105.935z M310.221,105.935
					h34.343v13.184h-34.343V105.935z M427.733,181.618L427.733,181.618H279.54v-22.217c0-11.442,9.31-20.752,20.752-20.752h0.163
					h53.874h52.653c11.442,0,20.752,9.31,20.752,20.752L427.733,181.618L427.733,181.618z"/>
			</g>
		</g>
	</g>
</g>
<g id="Layer_7">
	<g>
		<g>
			<g>
				<path fill="#F99F1C" d="M304.688,265.625c-4.688,0-7.813,3.125-7.813,7.813s3.125,7.813,7.813,7.813h15.625
					c4.688,0,7.813-3.125,7.813-7.813s-3.125-7.813-7.813-7.813H304.688z"/>
				<path fill="#F99F1C" d="M351.563,265.625c-4.688,0-7.813,3.125-7.813,7.813s3.125,7.813,7.813,7.813h46.875v111.719
					l-67.969,27.344l-78.125-85.938l-51.563,25.781c-8.594,3.906-17.969,4.688-26.563,1.563l-10.156-3.125
					c-1.563-0.781-2.344-2.344-2.344-3.125s0-2.344,1.563-3.125l66.406-48.438c0.781,0,2.344-0.781,3.125-1.563
					c0,0,0-0.781,0.781-0.781l28.125-20.313h11.719c4.688,0,7.813-3.125,7.813-7.813s-3.125-7.813-7.813-7.813h-17.969
					l-28.125,20.313l-21.094-20.313h-96.875h-7.813H0V406.25h46.875c4.688,0,7.813-3.125,7.813-7.813s-3.125-7.813-7.813-7.813
					h-31.25V281.25H93.75v109.375H78.125c-4.688,0-7.813,3.125-7.813,7.813s3.125,7.813,7.813,7.813h21.094l107.031,84.375
					c5.469,4.688,11.719,7.031,18.75,7.031c3.906,0,7.813-0.781,10.938-2.344s5.469-3.906,7.813-5.469l8.594,8.594
					c0.781,0.781,0.781,0.781,1.563,0.781l0.781,0.781c0.781,0,2.344,0,3.125,0s1.563,0,3.125-0.781c0,0,0.781,0,0.781-0.781
					c0.781,0,0.781-0.781,1.563-0.781l69.531-61.719l75.781-30.469H500V265.625H351.563z M307.813,437.5l-67.969-67.969
					c-3.125-3.125-7.813-3.125-10.938,0s-3.125,7.813,0,10.938l67.188,67.188l-13.281,11.719l-66.406-66.406
					c-3.125-3.125-7.813-3.125-10.938,0s-3.125,7.813,0,10.938l65.625,65.625l-13.281,11.719l-64.844-64.844
					c-3.125-3.125-7.813-3.125-10.938,0s-3.125,7.813,0,10.938l50.781,50.781c-1.563,0.781-2.344,1.563-3.906,2.344
					c-3.906,1.563-9.375,0.781-13.281-2.344l-106.25-83.594V281.25H200l14.063,14.063l-60.156,44.531
					c-5.469,3.906-8.594,11.719-7.813,18.75s6.25,13.281,13.281,15.625l9.375,3.125c12.5,3.906,26.563,3.125,39.063-3.125
					l41.406-20.313l68.75,75.781L307.813,437.5z M484.375,390.625h-70.313V281.25h70.313V390.625z"/>
				<path fill="#F99F1C" d="M85.938,218.75c14.844,0,27.344-12.5,27.344-27.344c0-10.156-5.469-18.75-13.281-23.438l94.531-108.594
					l96.875,131.25c-8.594,4.688-14.063,13.281-14.063,24.219c0,14.844,12.5,27.344,27.344,27.344s27.344-12.5,27.344-27.344
					c0-10.156-5.469-18.75-13.281-23.438l83.594-90.625c1.563,0.781,2.344,0.781,3.906,0.781c14.844,0,27.344-12.5,27.344-27.344
					s-12.5-27.344-27.344-27.344s-27.344,12.5-27.344,27.344c0,7.813,3.125,14.844,8.594,19.531l-82.031,89.063l-96.875-131.25
					c8.594-4.688,14.063-13.281,14.063-24.219C222.656,12.5,210.156,0,195.313,0s-27.344,12.5-27.344,27.344
					c0,10.156,5.469,18.75,13.281,23.438L82.031,164.844c-13.281,1.563-23.438,13.281-23.438,26.563
					C58.594,206.25,71.094,218.75,85.938,218.75z M406.25,62.5c6.25,0,11.719,5.469,11.719,11.719S412.5,85.938,406.25,85.938
					s-11.719-5.469-11.719-11.719S400,62.5,406.25,62.5z M304.688,203.125c6.25,0,11.719,5.469,11.719,11.719
					s-5.469,11.719-11.719,11.719s-11.719-5.469-11.719-11.719S298.438,203.125,304.688,203.125z M195.313,15.625
					c6.25,0,11.719,5.469,11.719,11.719s-5.469,11.719-11.719,11.719s-11.719-5.469-11.719-11.719S189.063,15.625,195.313,15.625z
					 M85.938,179.688c6.25,0,11.719,5.469,11.719,11.719s-5.469,11.719-11.719,11.719s-11.719-5.469-11.719-11.719
					S79.688,179.688,85.938,179.688z"/>
			</g>
		</g>
	</g>
</g>
</svg>
