<?xml version="1.0" encoding="utf-8"?>
<!-- Generator: Adobe Illustrator 16.0.0, SVG Export Plug-In . SVG Version: 6.00 Build 0)  -->
<!DOCTYPE svg PUBLIC "-//W3C//DTD SVG 1.1//EN" "http://www.w3.org/Graphics/SVG/1.1/DTD/svg11.dtd">
<svg version="1.1" id="Capa_1" xmlns="http://www.w3.org/2000/svg" xmlns:xlink="http://www.w3.org/1999/xlink" x="0px" y="0px"
	 width="500px" height="500px" viewBox="0 0 500 500" enable-background="new 0 0 500 500" xml:space="preserve">
<g>
	<g>
		<path fill="#F71634" d="M491.649,316.68H8.35c-4.6,0-8.333,3.725-8.333,8.332C0.017,421.497,78.512,500,175.004,500h149.99
			c96.485,0,174.988-78.503,174.988-174.988C499.982,320.404,496.258,316.68,491.649,316.68z M324.994,483.334h-149.99
			c-84.502,0-153.756-66.546-158.106-149.99H483.1C478.751,416.788,409.497,483.334,324.994,483.334z"/>
	</g>
</g>
<g>
	<g>
		<path fill="#F71634" d="M425.021,116.743c0-0.608-0.009-1.217-0.066-2.142c-1.283-13.815-10.782-25.165-23.323-29.423l9.433-9.433
			c16.357-16.023,17.999-41.655,3.683-59.754C399.415-2.64,371.783-5.29,353.159,10.034c-1.059,0.875-2.083,1.8-3.108,2.825
			l-10.249,10.399c-4.3-12.475-15.674-21.907-29.689-23.207c-18.456-1.008-34.081,13.157-35.071,31.506
			c-0.033,0.608-0.043,1.217-0.043,1.816v12.774c-4.898-2.842-10.574-4.475-16.631-4.483c-0.6,0-1.217,0.017-2.143,0.066
			c-17.815,1.658-31.522,16.966-31.222,34.714v11.333c-5-2.892-10.699-4.441-16.632-4.45c-0.6,0-1.208,0.017-2.133,0.066
			c-17.824,1.658-31.531,16.966-31.231,34.715v123.575c0,4.608,3.733,8.333,8.333,8.333h141.657
			c18.382,0,33.331-14.949,33.322-33.314c0-6.066-1.625-11.758-4.475-16.665h11.258c17.898,0.491,33.206-13.416,34.881-31.557
			c0.358-6.783-1.342-13.199-4.558-18.648c7.482-0.833,14.407-4.141,19.807-9.524C421.529,134.025,425.013,125.659,425.021,116.743z
			 M403.464,128.509c-3.149,3.133-7.324,4.858-11.782,4.858c-0.009,0-0.017,0-0.025,0h-24.998c-4.608,0-8.333,3.733-8.333,8.333
			s3.725,8.333,8.333,8.333l0.917,0.025c9.183,0.491,16.249,8.357,15.782,17.207c-0.85,9.183-8.641,16.291-18.115,16.099h-40.247
			c-4.608,0-8.333,3.733-8.333,8.333s3.725,8.333,8.333,8.333c9.191,0,16.666,7.475,16.666,16.666s-7.475,16.666-16.666,16.666
			H191.67V117.968c-0.158-9.225,6.925-17.115,15.782-17.949l0.908-0.025c9.175,0.008,16.632,7.475,16.641,16.641v0.059
			c0,4.6,3.725,8.333,8.324,8.333c0.009,0,0.009,0,0.009,0c4.6,0,8.324-3.725,8.333-8.324v-0.008v-40.39
			c-0.158-9.225,6.925-17.115,15.782-17.949l0.9-0.025c9.184,0.017,16.641,7.482,16.65,16.657v0.05c0,4.6,3.725,8.333,8.324,8.333
			c0.008,0,0.008,0,0.008,0c4.6,0,8.324-3.725,8.334-8.324v-0.009V33.373l0.025-0.925c0.482-9.175,8.166-16.24,17.198-15.782
			c9.199,0.858,16.273,8.749,16.099,18.132v6.916c0,3.375,2.042,6.425,5.175,7.708c3.108,1.283,6.725,0.55,9.091-1.866l22.606-22.94
			c0.616-0.608,1.25-1.184,1.908-1.725c11.532-9.482,28.623-7.833,38.022,3.566c8.899,11.266,7.874,27.331-2.441,37.439
			l-21.915,21.915c-2.383,2.383-3.1,5.966-1.809,9.083c1.283,3.108,4.333,5.142,7.699,5.142h6.916c0.175,0,0.3,0,0.441,0
			c9.1,0,16.832,7.017,17.648,15.782l0.025,0.917C408.347,121.185,406.614,125.367,403.464,128.509z"/>
	</g>
</g>
<g>
	<g>
		
			<rect x="85.032" y="166.67" transform="matrix(-0.7071 0.7071 -0.7071 -0.7071 550.5382 121.9648)" fill="#F71634" width="329.954" height="16.665"/>
	</g>
</g>
<g>
	<g>
		<rect x="308.313" y="66.746" fill="#F71634" width="16.666" height="41.664"/>
	</g>
</g>
<g>
	<g>
		<rect x="258.316" y="108.41" fill="#F71634" width="16.666" height="49.997"/>
	</g>
</g>
<g>
	<g>
		<rect x="208.319" y="149.99" fill="#F71634" width="16.666" height="58.329"/>
	</g>
</g>
<g>
	<g>
		<rect x="316.645" y="100.077" fill="#F71634" width="41.664" height="16.665"/>
	</g>
</g>
<g>
	<g>
		<rect x="266.648" y="149.99" fill="#F71634" width="49.997" height="16.665"/>
	</g>
</g>
<g>
	<g>
		<rect x="216.652" y="199.987" fill="#F71634" width="58.329" height="16.666"/>
	</g>
</g>
<g>
	<g>
		<path fill="#F71634" d="M155.547,38.548c-0.008-0.017-0.025-0.033-0.033-0.05c-11.758-17.607-35.656-22.391-53.254-10.633
			c-0.55,0.358-1.092,0.741-1.708,1.2l-3,2.283l-2.883-2.075C79.42,15.05,55.446,15.625,40.931,30.69
			c-7.107,7.366-10.924,17.065-10.732,27.307s4.35,19.79,11.708,26.89c2.142,2.066,4.524,3.883,7.091,5.399l7.017,5.483v4.267
			c0,22.974,18.69,41.664,41.664,41.664s41.664-18.699,41.655-41.671v-4.267l7.375-5.758
			C162.664,77.896,166.539,55.289,155.547,38.548z M136.541,76.804l-10.666,8.333c-2.017,1.575-3.2,4-3.2,6.566v8.333
			c0,13.782-11.216,24.998-24.998,24.998s-24.998-11.216-24.998-24.998v-8.333c0-2.566-1.175-4.991-3.2-6.566l-10.666-8.333
			c-0.316-0.25-0.658-0.475-1.008-0.675c-1.566-0.892-3.017-1.975-4.316-3.233c-4.166-4.017-6.517-9.416-6.625-15.199
			s2.05-11.266,6.066-15.433c4.241-4.399,9.916-6.616,15.599-6.616c5.416,0,10.841,2.008,15.041,6.066
			c0.283,0.267,0.583,0.525,0.908,0.758l8.333,6c2.967,2.142,6.991,2.092,9.908-0.125l8.783-6.607
			c4.833-3.233,10.624-4.366,16.324-3.241c5.682,1.133,10.59,4.408,13.815,9.225C147.824,57.172,145.624,69.904,136.541,76.804z"/>
	</g>
</g>
<g>
	<g>
		<rect x="183.321" y="8.333" fill="#F71634" width="16.666" height="16.665"/>
	</g>
</g>
<g>
	<g>
		<rect x="233.318" y="274.982" fill="#F71634" width="16.665" height="16.664"/>
	</g>
</g>
<g>
	<g>
		<path fill="#F71634" d="M449.986,50.039v16.666c9.191,0,16.666,7.475,16.666,16.665s-7.475,16.666-16.666,16.666v16.665
			c18.382,0,33.331-14.949,33.331-33.331S468.368,50.039,449.986,50.039z"/>
	</g>
</g>
<g>
	<g>
		<rect x="16.666" y="125.075" fill="#F71634" width="16.665" height="16.666"/>
	</g>
</g>
<g>
	<g>
		<rect x="0.017" y="91.744" fill="#F71634" width="16.665" height="16.666"/>
	</g>
</g>
<g>
	<g>
		<path fill="#F71634" d="M324.994,266.682c-18.382,0-33.33,14.949-33.33,33.332h16.665c0-9.191,7.475-16.666,16.665-16.666
			c9.191,0,16.666,7.475,16.666,16.666h16.665C358.325,281.631,343.376,266.682,324.994,266.682z"/>
	</g>
</g>
<g>
	<g>
		<path fill="#F71634" d="M100.011,191.687h-1.05c-3.717-14.357-16.774-24.998-32.281-24.998s-28.573,10.641-32.281,24.998h-1.05
			c-18.382,0-33.331,14.949-33.331,33.331s14.949,33.332,33.331,33.332h66.662c18.382,0,33.331-14.95,33.331-33.332
			C133.342,206.636,118.393,191.687,100.011,191.687z M100.011,241.692H33.348c-9.191,0-16.666-7.475-16.666-16.665
			c0-9.191,7.475-16.666,16.666-16.666h8.333c4.6,0,8.333-3.733,8.333-8.333c0-9.191,7.475-16.665,16.666-16.665
			s16.666,7.475,16.666,16.665c0,4.6,3.733,8.333,8.333,8.333h8.333c9.191,0,16.666,7.475,16.666,16.666
			C116.676,234.218,109.201,241.692,100.011,241.692z"/>
	</g>
</g>
<g>
	<g>
		<path fill="#F71634" d="M83.345,241.684H50.014c-4.6,0-8.333,3.733-8.333,8.333v33.331c0,4.609,3.733,8.334,8.333,8.334h33.331
			c4.6,0,8.333-3.725,8.333-8.334v-33.331C91.678,245.417,87.944,241.684,83.345,241.684z M75.012,275.016H58.347V258.35h16.666
			L75.012,275.016L75.012,275.016z"/>
	</g>
</g>
<g>
	<g>
		<path fill="#F71634" d="M441.653,216.686c-13.782,0-24.998,11.216-24.998,24.998c0,13.783,11.216,24.998,24.998,24.998
			s24.998-11.215,24.998-24.998C466.651,227.902,455.436,216.686,441.653,216.686z M441.653,250.025c-4.6,0-8.333-3.741-8.333-8.333
			s3.733-8.333,8.333-8.333s8.333,3.733,8.333,8.333C449.986,246.292,446.253,250.025,441.653,250.025z"/>
	</g>
</g>
<g>
	<g>
		<path fill="#F71634" d="M441.653,183.355c-32.156,0-58.329,26.165-58.329,58.329c0,32.164,26.173,58.33,58.329,58.33
			s58.329-26.166,58.329-58.33C499.982,209.52,473.81,183.355,441.653,183.355z M441.653,283.355
			c-22.974,0-41.664-18.697-41.664-41.664c0-22.974,18.69-41.664,41.664-41.664s41.664,18.69,41.664,41.664
			C483.317,264.666,464.627,283.355,441.653,283.355z"/>
	</g>
</g>
</svg>
