<?xml version="1.0" encoding="utf-8"?>
<!-- Generator: Adobe Illustrator 16.0.0, SVG Export Plug-In . SVG Version: 6.00 Build 0)  -->
<!DOCTYPE svg PUBLIC "-//W3C//DTD SVG 1.1//EN" "http://www.w3.org/Graphics/SVG/1.1/DTD/svg11.dtd">
<svg version="1.1" xmlns="http://www.w3.org/2000/svg" xmlns:xlink="http://www.w3.org/1999/xlink" x="0px" y="0px" width="210.5px"
	 height="67.917px" viewBox="289.5 266.75 210.5 67.917" enable-background="new 289.5 266.75 210.5 67.917" xml:space="preserve">
<g id="Capa_1" display="none">
	<g display="inline">
		<g>
			<path fill="#011627" d="M414.785,287.595h-1.008v-3.021c0-0.559-0.451-1.01-1.008-1.01h-10.074c-0.555,0-1.007,0.451-1.007,1.01
				v3.021h-1.009c-0.339,0-0.674,0.028-1.008,0.053v-17.179c0-1.669-1.353-3.022-3.021-3.022h-7.054v-8.061h1.009
				c0.556,0,1.008-0.45,1.008-1.007v-4.03c0-0.558-0.452-1.009-1.008-1.009h-14.104c-0.558,0-1.009,0.451-1.009,1.009v4.03
				c0,0.557,0.451,1.007,1.009,1.007h1.007v8.061h-7.053c-1.67,0-3.022,1.354-3.022,3.022v36.269c0,1.669,1.353,3.022,3.022,3.022
				h1.007v1.008c0,1.67,1.353,3.021,3.022,3.021s3.023-1.352,3.023-3.021v-1.008h10.073v1.008c0,1.67,1.354,3.021,3.024,3.021
				h34.254c1.668,0,3.021-1.352,3.021-3.021v-10.075C427.873,293.463,422.016,287.604,414.785,287.595z M403.704,285.581h8.06v2.014
				h-8.06V285.581z M377.509,255.356h12.089v2.015h-12.089V255.356z M387.582,259.386v8.061h-8.061v-8.061H387.582z
				 M375.493,310.768c0,0.556-0.451,1.007-1.008,1.007c-0.555,0-1.008-0.451-1.008-1.007v-1.008h2.016V310.768z M387.633,299.686
				h-14.155v2.015h14.104v6.045h-10.073h-7.053c-0.558,0-1.007-0.45-1.007-1.008v-36.269c0-0.558,0.449-1.009,1.007-1.009h26.195
				c0.554,0,1.007,0.451,1.007,1.009v17.493c-2.443,0.58-4.668,1.854-6.407,3.664h-17.773v2.014h16.185
				C388.494,295.457,387.796,297.533,387.633,299.686z M417.806,311.774h-20.147v-7.051c0.003-3.895,3.158-7.049,7.052-7.054h6.046
				c3.892,0.005,7.046,3.159,7.05,7.054V311.774z M425.867,310.768c0,0.556-0.453,1.007-1.007,1.007h-5.038v-7.051
				c-0.006-5.006-4.061-9.063-9.066-9.07h-6.046c-5.006,0.008-9.063,4.064-9.068,9.07v7.051h-5.035
				c-0.558,0-1.009-0.451-1.009-1.007v-10.075c0.007-6.119,4.965-11.074,11.082-11.081h14.105
				c6.116,0.007,11.074,4.962,11.082,11.081V310.768z"/>
		</g>
		<g>
			<g>
				<rect x="397.735" y="293.49" width="7.803" height="1.302"/>
			</g>
		</g>
		<g>
			<g>
				<rect x="379.524" y="283.085" width="13.007" height="1.302"/>
			</g>
		</g>
		<g>
			<g>
				<rect x="379.524" y="288.287" width="13.007" height="1.303"/>
			</g>
		</g>
		
			<polyline fill="none" stroke="#0B6AF4" stroke-width="3" stroke-linecap="round" stroke-linejoin="round" stroke-miterlimit="10" points="
			453.49,320.833 441.813,331.582 429.869,320.833 418.192,331.582 406.249,320.833 394.572,331.582 382.629,320.833 
			383.25,320.833 371.572,331.582 359.63,320.833 347.952,331.582 336.01,320.833 		"/>
		
			<polyline fill="none" stroke="#0053B7" stroke-width="3" stroke-linecap="round" stroke-linejoin="round" stroke-miterlimit="10" points="
			495.048,319.861 475.229,332.553 454.959,319.861 435.142,332.553 414.87,319.861 395.053,332.553 374.783,319.861 
			375.834,319.861 356.015,332.553 335.747,319.861 315.93,332.553 295.66,319.861 		"/>
	</g>
</g>
<g id="Layer_2">
	<path fill="#006FDD" d="M368.45,309.08c0.17,0.85,0.38,1.689,0.62,2.51h-72.32c-0.69,0-1.25-0.56-1.25-1.26
		c0-0.69,0.56-1.25,1.25-1.25H368.45z"/>
	<path fill="#006FDD" d="M498.5,310.33c0,0.7-0.56,1.26-1.25,1.26h-66.99c0.24-0.82,0.45-1.66,0.62-2.51h66.37
		C497.94,309.08,498.5,309.64,498.5,310.33z"/>
	<path fill="#0053B7" d="M370.69,315.91c0.39,0.859,0.819,1.7,1.29,2.51H336.26c-0.42,0-0.76-0.56-0.76-1.26
		c0-0.69,0.34-1.25,0.76-1.25H370.69z"/>
	<path fill="#0053B7" d="M458.5,317.16c0,0.7-0.34,1.26-0.76,1.26H427.35c0.471-0.81,0.9-1.65,1.29-2.51h29.101
		C458.16,315.91,458.5,316.47,458.5,317.16z"/>
	<path fill="#003B99" d="M374.55,322.25c0.69,0.87,1.41,1.71,2.181,2.5h-16.75c-0.271,0-0.48-0.56-0.48-1.25s0.21-1.25,0.48-1.25
		H374.55z"/>
	<path fill="#003B99" d="M437.83,323.5c0,0.69-0.21,1.25-0.48,1.25H422.6c0.771-0.79,1.49-1.63,2.181-2.5h12.569
		C437.62,322.25,437.83,322.81,437.83,323.5z"/>
	<g>
		<g>
			<path fill="#262626" d="M437.776,286.167c-0.052-0.111-0.122-0.213-0.208-0.301l-1.931-2.01
				c-0.277-0.277-0.684-0.378-1.058-0.264l-3.482,1.058l-4.08-4.329l9.159-5.103c0.534-0.244,0.767-0.876,0.521-1.41
				c-0.053-0.111-0.123-0.214-0.209-0.301l-2.571-2.571c-0.28-0.271-0.687-0.365-1.056-0.249l-11.609,3.513l-3.905-4.146
				c-0.996-1.152-2.616-1.535-4.023-0.955h-0.065c-1.061,0.437-1.902,1.278-2.34,2.339c-0.109,0.276-0.188,0.565-0.233,0.86
				l-0.443-0.153c-0.576-0.186-1.192,0.131-1.378,0.706c-0.186,0.576,0.132,1.193,0.708,1.378c0.561,0.183,1.122,0.386,1.682,0.598
				c0.17,0.264,0.368,0.508,0.592,0.729l4.116,3.905l-1.181,3.899c-11.546-8.236-27.582-5.553-35.818,5.992
				c-8.236,11.547-5.553,27.583,5.994,35.819c11.545,8.236,27.582,5.553,35.818-5.993c6.567-9.207,6.338-21.628-0.564-30.586
				l1.864-3.367l4.329,4.08l-1.043,3.446c-0.124,0.38-0.025,0.797,0.257,1.081c0,0,2.134,2.113,2.185,2.184
				c0.506,0.293,1.152,0.121,1.444-0.384c0.006-0.007,0.01-0.017,0.014-0.022l2.85-5.226l5.145-2.806
				C437.788,287.333,438.022,286.701,437.776,286.167z M383.367,287.608c4.394-4.391,10.353-6.855,16.563-6.851
				c0.485,0,0.971,0.016,1.457,0.043c4.132,3.813,2.915,7.287,0.146,10.423c-1.634,1.731-3.386,3.349-5.246,4.838
				c-2.689,2.288-5.196,4.423-6.144,6.559c-1.122,2.536-0.298,4.83,4.234,6.834c2.266,1.007,3.498,1.785,3.979,2.376
				c0.008,0.009,0.014,0.015,0.021,0.02c-0.015,0.006-0.03,0.01-0.05,0.017c-1.099,0.418-2.266,0.619-3.44,0.591
				c-5.495,0.232-9.408-3.28-12.446-5.996c-2.186-1.946-4-3.565-5.889-3.578C376.865,297.125,379.292,291.687,383.367,287.608z
				 M423.439,304.209h0.007c-0.004,10.155-6.532,19.16-16.186,22.319c-0.271-1.707,0.046-3.458,0.896-4.963
				c1.155-1.854,2.636-3.483,4.372-4.809c6.727-5.611,7.106-8.744,7.397-11.157c0.182-1.523,0.319-2.659,3.33-4.313
				C423.377,302.255,423.438,303.23,423.439,304.209z M422.083,296.323c0.325,0.918,0.594,1.854,0.803,2.806
				c-4.585,2.332-4.789,3.994-5.065,6.26c-0.248,2.041-0.568,4.708-6.646,9.779c-1.946,1.489-3.602,3.324-4.883,5.414
				c-1.116,1.974-1.503,4.277-1.094,6.509c-12.641,2.888-25.23-5.018-28.121-17.657c-0.329-1.446-0.522-2.92-0.575-4.402
				c1.159,0,2.66,1.378,4.505,3.018c3.337,2.98,7.606,6.783,13.969,6.559c1.498,0.025,2.986-0.258,4.371-0.831
				c0.585-0.258,1.027-0.76,1.211-1.37c0.154-0.683-0.042-1.397-0.525-1.901c-0.686-0.84-2.186-1.83-4.766-2.981
				c-3.083-1.363-3.753-2.688-3.148-4.044c0.729-1.706,3.076-3.643,5.568-5.83c1.94-1.569,3.771-3.273,5.472-5.101
				c3.047-3.469,4.613-7.251,1.517-11.389c3.441,0.703,6.68,2.175,9.474,4.305l-1.677,5.532c-0.124,0.38-0.024,0.795,0.255,1.078
				c0,0,2.718,2.696,2.806,2.747c0.505,0.293,1.151,0.12,1.444-0.384c0.004-0.009,0.009-0.016,0.014-0.024l2.12-3.834
				C420.361,292.349,421.363,294.281,422.083,296.323z M431.855,288.184l-0.941,0.466c-0.209,0.105-0.378,0.277-0.479,0.489
				l-0.468,0.947l-1.813,3.279l-0.532-0.582l1.058-3.491c0.121-0.409-0.013-0.853-0.344-1.123l-5.75-5.414
				c-0.416-0.41-1.085-0.403-1.494,0.014c-0.009,0.01-0.02,0.019-0.028,0.03c-0.074,0.079-5.248,9.4-5.248,9.4l-1.128-1.129
				l3.526-11.624c0.127-0.411-0.009-0.857-0.342-1.129l-4.577-4.307c-0.507-0.43-0.675-1.138-0.416-1.75
				c0.233-0.528,0.658-0.95,1.188-1.181h0.036c0.604-0.232,1.288-0.057,1.705,0.438l4.372,4.621c0.276,0.293,0.693,0.407,1.079,0.29
				l11.659-3.519l1.129,1.129l-9.254,5.087c-0.512,0.279-0.701,0.922-0.421,1.434c0.004,0.007,0.008,0.016,0.014,0.023
				c0.042,0.08,5.617,6.012,5.617,6.012c0.277,0.293,0.693,0.403,1.079,0.284l3.506-1.057l0.545,0.547L431.855,288.184z"/>
		</g>
	</g>
</g>
</svg>
