<?xml version="1.0" encoding="utf-8"?>
<!-- Generator: Adobe Illustrator 17.0.0, SVG Export Plug-In . SVG Version: 6.00 Build 0)  -->
<!DOCTYPE svg PUBLIC "-//W3C//DTD SVG 1.1//EN" "http://www.w3.org/Graphics/SVG/1.1/DTD/svg11.dtd">
<svg version="1.1" id="Layer_1" xmlns="http://www.w3.org/2000/svg" xmlns:xlink="http://www.w3.org/1999/xlink" x="0px" y="0px"
	 width="512px" height="512px" viewBox="0 0 512 512" enable-background="new 0 0 512 512" xml:space="preserve">
<g>
	<g>
		<g>
			<path fill="#EE2138" d="M506.391,267.163h-9.831c-8.236,0-14.936-6.7-14.936-14.936s6.699-14.936,14.935-14.936h9.831
				c4.203,0,7.609-3.405,7.609-7.609v-45.648c0-4.203-3.405-7.609-7.609-7.609h-9.831c-8.236,0-14.936-6.7-14.936-14.936v-2.767
				l11.16-10.223c3.026-2.772,3.309-7.444,0.639-10.561l-29.701-34.664c-1.313-1.533-3.181-2.481-5.193-2.635
				c-2.016-0.169-4.005,0.496-5.535,1.808l-7.466,6.398c-6.254,5.358-15.703,4.629-21.061-1.624
				c-2.596-3.029-3.857-6.889-3.55-10.867c0.306-3.977,2.143-7.598,5.174-10.194l7.466-6.398c3.191-2.734,3.562-7.537,0.827-10.728
				l-29.702-34.663c-2.733-3.189-7.536-3.562-10.728-0.827l-7.467,6.397c-3.03,2.596-6.888,3.859-10.866,3.55
				c-3.977-0.306-7.598-2.143-10.194-5.174l-9.961-11.626c-1.313-1.533-3.181-2.481-5.193-2.635
				c-2.019-0.155-4.004,0.494-5.535,1.808L213.202,138.571h-21.719c-4.203,0-7.609,3.405-7.609,7.609
				c0,4.203,3.405,7.609,7.609,7.609h274.924v7.702c0,16.627,13.527,30.153,30.153,30.153h2.223v30.43h-2.223
				c-16.627,0-30.153,13.527-30.153,30.153c0,16.627,13.527,30.153,30.153,30.153h2.223v30.43h-2.223
				c-16.627,0-30.153,13.526-30.153,30.152v17.249h-52.609c-4.203,0-7.609,3.405-7.609,7.609s3.405,7.609,7.609,7.609h60.217
				c4.203,0,7.609-3.405,7.609-7.609v-24.858c0-8.235,6.7-14.935,14.936-14.935h9.831c4.203,0,7.609-3.405,7.609-7.609v-45.648
				C514,270.568,510.595,267.163,506.391,267.163z M236.59,138.571l112.273-96.198l5.01,5.849
				c5.239,6.117,12.549,9.826,20.579,10.445c8.029,0.617,15.821-1.925,21.937-7.166l1.69-1.447l19.8,23.107l-1.689,1.448
				c-12.625,10.817-14.097,29.89-3.278,42.516c10.819,12.625,29.892,14.096,42.516,3.278l1.689-1.448l16.808,19.616L236.59,138.571
				L236.59,138.571z"/>
		</g>
	</g>
	<g>
		<g>
			<path fill="#EE2138" d="M347.016,360.211H47.594v-7.701c0-16.627-13.527-30.153-30.153-30.153h-2.224v-30.43h2.224
				c16.627,0,30.153-13.527,30.153-30.153S34.067,231.62,17.441,231.62h-2.224v-30.43h2.224c16.627,0,30.153-13.527,30.153-30.153
				v-17.249h86.831c4.203,0,7.609-3.405,7.609-7.609c0-4.203-3.405-7.609-7.609-7.609H39.986c-4.203,0-7.609,3.405-7.609,7.609
				v24.858c0,8.235-6.7,14.936-14.936,14.936H7.609c-4.203,0-7.609,3.405-7.609,7.609v45.648c0,4.203,3.405,7.609,7.609,7.609h9.832
				c8.235,0,14.936,6.7,14.936,14.936c0,8.236-6.7,14.936-14.936,14.936H7.609c-4.203,0-7.609,3.405-7.609,7.609v45.648
				c0,4.203,3.405,7.609,7.609,7.609h9.832c8.235,0,14.936,6.7,14.936,14.936v4.114l-10.75,8.525
				c-1.621,1.285-2.648,3.174-2.847,5.231c-0.198,2.058,0.451,4.11,1.797,5.68l29.7,34.664c1.313,1.533,3.181,2.481,5.193,2.635
				c2.012,0.168,4.004-0.495,5.535-1.808l7.467-6.398c3.03-2.597,6.889-3.866,10.866-3.55c3.977,0.306,7.598,2.143,10.194,5.174
				c5.359,6.254,4.63,15.702-1.624,21.061l-7.466,6.397c-3.191,2.734-3.562,7.537-0.827,10.728l29.7,34.664
				c2.734,3.191,7.537,3.564,10.728,0.827l7.467-6.397c3.029-2.596,6.9-3.86,10.866-3.55c3.977,0.306,7.598,2.143,10.194,5.174
				l9.961,11.625c1.505,1.756,3.637,2.658,5.781,2.658c1.752,0,3.512-0.601,4.946-1.831l131.307-112.507
				c0.073-0.063,0.137-0.132,0.208-0.197h46.241c4.203,0,7.609-3.405,7.609-7.609C354.62,363.619,351.219,360.211,347.016,360.211z
				 M165.137,471.626l-5.01-5.848c-5.239-6.117-12.548-9.826-20.579-10.445c-8.03-0.623-15.821,1.925-21.937,7.166l-1.69,1.447
				l-19.8-23.108l1.689-1.447c6.116-5.24,9.826-12.549,10.445-20.58c0.618-8.03-1.925-15.822-7.166-21.937
				c-5.239-6.117-12.548-9.826-20.579-10.445c-8.028-0.609-15.821,1.926-21.937,7.166l-1.689,1.448l-16.809-19.616h237.335
				L165.137,471.626z"/>
		</g>
	</g>
	<g>
		<g>
			<path fill="#EE2138" d="M429.069,174.24H212.335c-4.203,0-7.609,3.405-7.609,7.609s3.405,7.609,7.609,7.609h209.126v135.085
				H91.539V189.457h62.646c4.203,0,7.609-3.405,7.609-7.609s-3.405-7.609-7.609-7.609H83.93c-4.203,0-7.609,3.406-7.609,7.609
				v150.303c0,4.203,3.405,7.609,7.609,7.609h345.14c4.203,0,7.609-3.405,7.609-7.609V181.848
				C436.678,177.645,433.273,174.24,429.069,174.24z"/>
		</g>
	</g>
	<g>
		<g>
			<g>
				<g>
					<path fill="#EE2138" d="M190.743,261.301h-27.998c-1.854,0-2.714,1.986-2.714,3.839c0,2.118,0.993,3.905,2.714,3.905h9.73
						v37.926c0,1.787,2.119,2.714,4.302,2.714c2.119,0,4.303-0.927,4.303-2.714v-37.926h9.664c1.721,0,2.714-1.854,2.714-3.905
						C193.457,263.287,192.596,261.301,190.743,261.301z"/>
				</g>
			</g>
			<g>
				<g>
					<path fill="#EE2138" d="M202.458,261.301c-2.184,0-4.302,0.794-4.302,2.647v43.024c0,1.787,2.118,2.714,4.302,2.714
						c2.119,0,4.302-0.927,4.302-2.714v-43.024C206.76,262.095,204.576,261.301,202.458,261.301z"/>
				</g>
			</g>
			<g>
				<g>
					<path fill="#EE2138" d="M240.915,292.74c-2.25,0-4.104,0.662-4.236,2.714c-0.199,2.78-0.728,7.082-6.751,7.082
						c-4.567,0-7.082-2.449-7.082-7.612v-18.467c0-5.163,2.515-7.613,6.95-7.613c6.287,0,6.751,4.501,6.884,6.553
						c0.066,1.986,1.854,2.714,4.302,2.714c2.912,0,4.303-0.794,4.303-4.236c0-7.679-6.554-12.576-15.754-12.576
						c-8.34,0-15.289,4.103-15.289,15.158v18.467c0,11.054,6.884,15.158,15.224,15.158c9.266,0,15.82-5.097,15.82-13.106
						C245.284,293.6,243.893,292.74,240.915,292.74z"/>
				</g>
			</g>
			<g>
				<g>
					<path fill="#EE2138" d="M283.406,304.192l-14.43-21.975l11.848-14.827c0.463-0.595,0.529-1.191,0.529-1.654
						c0-2.185-2.78-4.435-4.964-4.435c-0.926,0-1.721,0.33-2.382,1.258l-14.297,19.46v-18.07c0-1.853-2.183-2.647-4.302-2.647
						c-2.184,0-4.302,0.794-4.302,2.647h0.001v43.024c0,1.787,2.118,2.714,4.302,2.714c2.119,0,4.302-0.927,4.302-2.714v-12.973
						l3.575-4.501l12.444,18.864c0.728,1.191,1.853,1.654,2.978,1.654c2.515,0,5.162-2.183,5.162-4.302
						C283.869,305.185,283.737,304.656,283.406,304.192z"/>
				</g>
			</g>
			<g>
				<g>
					<path fill="#EE2138" d="M314.977,302.14h-18.732v-13.305h10.062c1.854,0,2.714-1.787,2.714-3.31
						c0-1.787-0.993-3.442-2.714-3.442h-10.062v-13.238h18.732c1.721,0,2.714-1.787,2.714-3.839c0-1.787-0.861-3.707-2.714-3.707
						h-23.564c-1.92,0-3.773,0.926-3.773,2.714v42.958c0,1.787,1.853,2.714,3.773,2.714h23.564c1.854,0,2.714-1.919,2.714-3.707
						C317.691,303.928,316.698,302.14,314.977,302.14z"/>
				</g>
			</g>
			<g>
				<g>
					<path fill="#EE2138" d="M350.255,261.301h-27.998c-1.854,0-2.714,1.986-2.714,3.839c0,2.118,0.993,3.905,2.714,3.905h9.73
						v37.926c0,1.787,2.119,2.714,4.302,2.714c2.119,0,4.303-0.927,4.303-2.714v-37.926h9.664c1.721,0,2.714-1.854,2.714-3.905
						C352.969,263.287,352.109,261.301,350.255,261.301z"/>
				</g>
			</g>
		</g>
		<text transform="matrix(1 0 0 1 229.5003 252)" fill="#EE2138" font-family="'Narkisim'" font-size="72">M</text>
	</g>
</g>
</svg>
