<?xml version="1.0" encoding="utf-8"?>
<!-- Generator: Adobe Illustrator 16.0.0, SVG Export Plug-In . SVG Version: 6.00 Build 0)  -->
<!DOCTYPE svg PUBLIC "-//W3C//DTD SVG 1.1//EN" "http://www.w3.org/Graphics/SVG/1.1/DTD/svg11.dtd">
<svg version="1.1" id="Layer_1" xmlns="http://www.w3.org/2000/svg" xmlns:xlink="http://www.w3.org/1999/xlink" x="0px" y="0px"
	 width="500px" height="500px" viewBox="0 0 500 500" enable-background="new 0 0 500 500" xml:space="preserve">
<g>
	<g>
		<g>
			<path fill="#EE2138" d="M441.406,0H58.594C26.285,0,0,26.285,0,58.594v382.813C0,473.715,26.285,500,58.594,500h382.813
				C473.715,500,500,473.715,500,441.406V58.594C500,26.285,473.715,0,441.406,0z M460.938,441.406
				c0,10.77-8.762,19.531-19.531,19.531H58.594c-10.77,0-19.531-8.762-19.531-19.531V58.594c0-10.77,8.762-19.531,19.531-19.531
				h382.813c10.77,0,19.531,8.762,19.531,19.531V441.406z"/>
			<path fill="#EE2138" d="M279.297,97.656H142.578v304.688h39.063V292.969h97.656c53.848,0,97.656-43.809,97.656-97.656
				S333.145,97.656,279.297,97.656z M279.297,253.906h-97.656V136.719h97.656c32.309,0,58.594,26.285,58.594,58.594
				S311.605,253.906,279.297,253.906z"/>
		</g>
	</g>
</g>
</svg>
