<?xml version="1.0" encoding="utf-8"?>
<!-- Generator: Adobe Illustrator 16.0.0, SVG Export Plug-In . SVG Version: 6.00 Build 0)  -->
<!DOCTYPE svg PUBLIC "-//W3C//DTD SVG 1.1//EN" "http://www.w3.org/Graphics/SVG/1.1/DTD/svg11.dtd">
<svg version="1.1" id="Capa_1" xmlns="http://www.w3.org/2000/svg" xmlns:xlink="http://www.w3.org/1999/xlink" x="0px" y="0px"
	 width="500px" height="500px" viewBox="0 0 500 500" enable-background="new 0 0 500 500" xml:space="preserve">
<path fill="#AAAAAA" d="M246.676,433.718l-19.616-28.847c-3.563-5.188-2.267-12.315,3.084-15.889
	c5.188-3.564,12.151-2.104,15.726,3.084l31.604,46.512c3.237,4.218,3.084,10.212-0.49,14.429l-37.282,43.112
	c-4.054,4.697-11.181,5.188-16.042,1.134c-4.697-4.217-5.188-11.345-1.133-16.205l21.393-24.641
	c-7.127-0.163-14.102-0.807-21.229-1.787c-11.181-1.46-22.363-3.89-33.554-7.454c-54.294-16.858-96.763-54.131-121.229-100.816
	c-24.64-46.676-31.277-102.757-14.429-157.062c10.538-33.871,29.01-63.208,52.67-86.388c24.64-23.986,54.947-41.489,87.848-50.73
	c5.994-1.787,12.315,1.787,14.102,7.781c1.787,6.158-1.787,12.479-7.944,14.102c-29.174,8.424-56.245,23.986-77.964,45.216
	c-21.229,20.586-37.599,46.513-46.84,76.667c-15.072,48.3-9.078,98.224,12.642,139.713c21.883,41.488,59.481,74.716,107.781,89.788
	c10.048,3.084,20.096,5.188,29.98,6.647C232.738,433.064,239.702,433.555,246.676,433.718L246.676,433.718z M305.994,447.82
	c-5.994,1.786-12.314-1.787-14.102-7.945c-1.624-5.994,1.787-12.314,7.943-14.102c29.338-8.271,56.245-23.823,78.118-45.216
	c21.065-20.587,37.435-46.513,46.839-76.504c14.909-48.463,8.915-98.223-12.805-139.875
	c-21.873-41.499-59.481-74.727-107.771-89.636c-10.047-3.084-19.932-5.351-29.98-6.647c-6.975-0.97-13.938-1.46-20.749-1.624
	l19.452,28.847c3.564,5.187,2.268,12.315-2.92,15.726c-5.188,3.563-12.314,2.267-15.879-2.921l-31.604-46.676
	c-3.237-4.218-3.084-10.211,0.49-14.266L260.288,3.88c4.054-4.697,11.345-5.188,16.042-1.133c4.697,4.054,5.351,11.345,1.133,16.042
	l-21.393,24.64c7.128,0.327,14.102,0.807,21.23,1.787c11.181,1.624,22.362,4.054,33.554,7.455
	c54.457,17.022,96.763,54.294,121.229,100.98c24.641,46.676,31.277,102.758,14.429,157.062
	c-10.538,33.871-29.011,63.045-52.67,86.225C369.202,420.913,338.896,438.415,305.994,447.82L305.994,447.82z"/>
</svg>
