<?xml version="1.0" encoding="utf-8"?>
<!-- Generator: Adobe Illustrator 16.0.0, SVG Export Plug-In . SVG Version: 6.00 Build 0)  -->
<!DOCTYPE svg PUBLIC "-//W3C//DTD SVG 1.1//EN" "http://www.w3.org/Graphics/SVG/1.1/DTD/svg11.dtd">
<svg version="1.1" xmlns="http://www.w3.org/2000/svg" xmlns:xlink="http://www.w3.org/1999/xlink" x="0px" y="0px" width="500px"
	 height="500px" viewBox="0 0 500 500" enable-background="new 0 0 500 500" xml:space="preserve">
<g id="Layer_1" display="none">
	<g display="inline">
		<g>
			<g>
				<path fill="#EE2138" d="M441.406,0H58.594C26.285,0,0,26.285,0,58.594v382.813C0,473.715,26.285,500,58.594,500h382.813
					C473.715,500,500,473.715,500,441.406V58.594C500,26.285,473.715,0,441.406,0z M460.938,441.406
					c0,10.77-8.762,19.531-19.531,19.531H58.594c-10.77,0-19.531-8.762-19.531-19.531V58.594c0-10.77,8.762-19.531,19.531-19.531
					h382.813c10.77,0,19.531,8.762,19.531,19.531V441.406z"/>
				<path fill="#EE2138" d="M279.297,97.656H142.578v304.688h39.063V292.969h97.656c53.848,0,97.656-43.809,97.656-97.656
					S333.145,97.656,279.297,97.656z M279.297,253.906h-97.656V136.719h97.656c32.309,0,58.594,26.285,58.594,58.594
					S311.605,253.906,279.297,253.906z"/>
			</g>
		</g>
	</g>
</g>
<g id="Layer_2" display="none">
	<g display="inline">
		<g>
			<path fill="#EE2138" d="M387.207,0C333.318,0,288.18,38.155,277.37,88.867H0.488v29.654l191.406,224.609v117.807H113.77V500
				h195.313v-39.063h-78.125V343.131l191.406-224.609V88.867h-104.53c9.798-28.922,37.185-49.805,69.374-49.805
				c40.386,0,73.242,32.856,73.242,73.242c0,26.072-13.704,48.99-34.277,61.973l-42.83,50.26c1.285,0.043,2.573,0.073,3.865,0.073
				c61.925,0,112.305-50.38,112.305-112.305S449.132,0,387.207,0z M211.426,305.825l-83.359-97.82h166.719L211.426,305.825z
				 M363.023,127.93l-34.95,41.013H96.191v1.658L59.828,127.93H363.023z"/>
		</g>
	</g>
</g>
<g id="Layer_3" display="none">
	<g display="inline">
		<g>
			<g>
				<path fill="#EE2138" d="M402.344,117.676c32.309,0,58.594-26.285,58.594-58.594S434.652,0.488,402.344,0.488
					S343.75,26.773,343.75,59.082S370.035,117.676,402.344,117.676z M402.344,39.551c10.77,0,19.531,8.762,19.531,19.531
					s-8.762,19.531-19.531,19.531s-19.531-8.762-19.531-19.531S391.574,39.551,402.344,39.551z"/>
				<path fill="#EE2138" d="M137.695,117.676c32.309,0,58.594-26.285,58.594-58.594S170.004,0.488,137.695,0.488
					S79.102,26.773,79.102,59.082S105.387,117.676,137.695,117.676z M137.695,39.551c10.77,0,19.531,8.762,19.531,19.531
					s-8.762,19.531-19.531,19.531s-19.531-8.762-19.531-19.531S126.926,39.551,137.695,39.551z"/>
				<path fill="#EE2138" d="M441.406,136.23h-78.125c-32.309,0-58.594,26.285-58.594,58.594v84.961h-69.336v-84.961
					c0-32.309-26.285-58.594-58.594-58.594H98.633c-32.309,0-58.594,26.285-58.594,58.594v84.961H0v219.727h39.063V318.848h0.977
					h264.648v39.063h39.063v141.602h39.063V318.848H343.75V194.824c0-10.77,8.762-19.531,19.531-19.531h78.125
					c10.77,0,19.531,8.762,19.531,19.531v124.023h-39.063v180.664h39.063V357.91H500V194.824
					C500,162.516,473.715,136.23,441.406,136.23z M196.289,279.785H79.102v-84.961c0-10.77,8.762-19.531,19.531-19.531h78.125
					c10.77,0,19.531,8.762,19.531,19.531V279.785z"/>
			</g>
		</g>
	</g>
</g>
<g id="Layer_4" display="none">
	<g display="inline">
		<g>
			<g>
				<path fill="#EE2138" d="M339.185,135.073c-3.982-8.568-8.496-18.278-8.105-26.137c0.297-5.962,3.46-12.957,6.81-20.362
					c0.781-1.729,1.561-3.452,2.313-5.178c3.98-9.111,9.375-23.025,10.261-38.604c0.966-16.98-3.673-32.801-13.06-44.543
					l-30.512,24.392c3.318,4.15,4.984,10.687,4.572,17.934c-0.403,7.084-2.646,15.086-7.057,25.185
					c-0.687,1.571-1.398,3.144-2.11,4.718c-4.484,9.916-9.567,21.153-10.232,34.521c-0.869,17.504,6.394,33.13,11.697,44.539
					L339.185,135.073z"/>
				<path fill="#EE2138" d="M435.768,229.441c-5.866-11.975-12.515-25.547-11.896-37.331c0.468-8.956,5.123-18.721,10.051-29.06
					c1.084-2.274,2.166-4.544,3.211-6.814c5.389-11.704,12.688-29.554,13.877-49.368c1.269-21.186-4.733-40.808-16.903-55.25
					l-29.871,25.171c5.604,6.649,8.439,16.762,7.782,27.741c-0.604,10.08-3.899,21.319-10.367,35.369
					c-0.974,2.113-1.981,4.226-2.99,6.343c-6.058,12.709-12.924,27.114-13.799,43.824c-1.148,21.907,8.264,41.119,15.825,56.557
					L435.768,229.441z"/>
				<circle fill="#EE2138" cx="250.977" cy="211.664" r="19.531"/>
				<path fill="#EE2138" d="M460.938,460.688v-18.555c0-56.343-21.941-109.314-61.782-149.155S306.343,231.195,250,231.195
					s-109.314,21.941-149.155,61.782S39.063,385.79,39.063,442.133v18.555H0v39.063h500v-39.063H460.938z M421.875,460.688H78.125
					v-18.555c0-94.772,77.103-171.875,171.875-171.875s171.875,77.103,171.875,171.875V460.688z"/>
				<path fill="#EE2138" d="M100.807,228.465c-5.866-11.975-12.515-25.547-11.896-37.331c0.468-8.956,5.123-18.721,10.051-29.06
					c1.084-2.274,2.166-4.544,3.211-6.814c5.389-11.704,12.688-29.554,13.877-49.368c1.269-21.186-4.733-40.808-16.903-55.25
					L69.274,75.813c5.604,6.649,8.439,16.762,7.782,27.741c-0.604,10.08-3.899,21.319-10.367,35.369
					c-0.974,2.113-1.981,4.226-2.99,6.343C57.642,157.975,50.775,172.38,49.9,189.09c-1.148,21.907,8.264,41.119,15.825,56.557
					L100.807,228.465z"/>
				<path fill="#EE2138" d="M215.161,135.073c-3.982-8.568-8.496-18.278-8.105-26.137c0.297-5.962,3.46-12.957,6.81-20.362
					c0.781-1.729,1.561-3.452,2.313-5.178c3.98-9.111,9.375-23.025,10.261-38.604c0.966-16.98-3.673-32.801-13.06-44.543
					l-30.512,24.392c3.318,4.15,4.984,10.687,4.572,17.934c-0.403,7.084-2.646,15.086-7.057,25.185
					c-0.687,1.571-1.398,3.144-2.11,4.718c-4.484,9.916-9.567,21.153-10.232,34.521c-0.869,17.504,6.394,33.13,11.697,44.539
					L215.161,135.073z"/>
			</g>
		</g>
	</g>
</g>
<g id="Layer_5" display="none">
	<g display="inline">
		<g>
			<g>
				<path fill="#EE2138" d="M76.66,392.578c22.68,0,43.081-9.845,57.129-25.449c14.048,15.604,34.449,25.449,57.129,25.449
					c23.749,0,45.01-10.788,59.082-27.689c14.072,16.901,35.333,27.689,59.082,27.689c22.68,0,43.081-9.845,57.129-25.449
					c14.048,15.604,34.449,25.449,57.129,25.449c42.271,0,76.66-34.171,76.66-76.172h-39.063c0,20.462-16.866,37.109-37.598,37.109
					s-37.598-16.647-37.598-37.109V58.594c0-10.77,8.762-19.531,19.531-19.531h34.18V0h-34.18
					c-32.309,0-58.594,26.285-58.594,58.594v31.25H153.32v-31.25c0-10.77,8.762-19.531,19.531-19.531h34.18V0h-34.18
					c-32.309,0-58.594,26.285-58.594,58.594v257.813c0,20.462-16.866,37.109-37.598,37.109s-37.598-16.647-37.598-37.109H0
					C0,358.407,34.39,392.578,76.66,392.578z M153.32,128.906H346.68v39.063H153.32V128.906z M153.32,207.031H346.68v39.063H153.32
					V207.031z M153.32,285.156H346.68v31.25c0,20.462-16.866,37.109-37.598,37.109s-37.598-16.647-37.598-37.109h-3.906h-35.156
					h-3.906c0,20.462-16.866,37.109-37.598,37.109s-37.598-16.647-37.598-37.109V285.156z"/>
				<path fill="#EE2138" d="M423.34,460.938c-20.731,0-37.598-16.647-37.598-37.109h-1.953H346.68h-1.953
					c0,20.462-16.866,37.109-37.598,37.109s-37.598-16.647-37.598-37.109h-39.063c0,20.462-16.866,37.109-37.598,37.109
					s-37.598-16.647-37.598-37.109h-1.953h-37.109h-1.953c0,20.462-16.866,37.109-37.598,37.109s-37.598-16.647-37.598-37.109H0
					C0,465.829,34.39,500,76.66,500c23.214,0,44.036-10.32,58.105-26.569C148.835,489.68,169.657,500,192.871,500
					c22.68,0,43.081-9.845,57.129-25.449C264.048,490.155,284.449,500,307.129,500c23.214,0,44.036-10.32,58.105-26.569
					C379.304,489.68,400.126,500,423.34,500c42.271,0,76.66-34.171,76.66-76.172h-39.063
					C460.938,444.29,444.071,460.938,423.34,460.938z"/>
			</g>
		</g>
	</g>
</g>
<g id="Layer_6" display="none">
	<g display="inline">
		<g>
			<g>
				<path fill="#EE2138" d="M249.354,39.063c46.692,0,90.59,18.183,123.605,51.199l27.621-27.62C360.188,22.246,306.48,0,249.354,0
					S138.522,22.246,98.128,62.642l27.621,27.62C158.766,57.245,202.663,39.063,249.354,39.063z"/>
				<path fill="#EE2138" d="M345.685,117.537c-25.73-25.729-59.941-39.9-96.33-39.9s-70.599,14.171-96.329,39.901l27.621,27.62
					c18.353-18.353,42.754-28.46,68.708-28.46c25.955,0,50.355,10.107,68.708,28.461L345.685,117.537z"/>
				<path fill="#EE2138" d="M447.799,70.668l-38.709,38.707h32.316c10.77,0,19.531,8.762,19.531,19.531v234.375
					c0,10.77-8.762,19.531-19.531,19.531H58.594c-10.77,0-19.531-8.762-19.531-19.531V128.906c0-10.77,8.762-19.531,19.531-19.531
					H89.62L51.057,70.813C22.298,74.525,0,99.152,0,128.906v234.375c0,32.309,26.285,58.594,58.594,58.594h171.875v39.063H128.906
					V500h242.188v-39.063H269.531v-39.063h171.875c32.309,0,58.594-26.285,58.594-58.594V128.906
					C500,98.758,477.11,73.863,447.799,70.668z"/>
				<path fill="#EE2138" d="M207.923,172.435l27.621,27.622c3.689-3.689,8.594-5.721,13.811-5.721c5.218,0,10.122,2.031,13.811,5.72
					l27.622-27.62c-11.067-11.067-25.781-17.162-41.433-17.162C233.704,155.273,218.99,161.368,207.923,172.435z"/>
			</g>
		</g>
	</g>
</g>
<g id="Layer_7" display="none">
	<g display="inline">
		<g>
			<g>
				<path fill="#EE2138" d="M474.998,300h-75V175h75c4.602,0,8.333-3.731,8.333-8.333v-41.083L499.915,9.518
					c0.652-4.555-2.51-8.779-7.066-9.432c-0.393-0.056-0.788-0.084-1.184-0.084H258.332c-4.602-0.001-8.333,3.73-8.334,8.333
					c0,0.396,0.027,0.792,0.084,1.184l16.584,116.066v41.083c0,4.602,3.73,8.333,8.333,8.333h74.999v125h-8.333
					c-13.807,0-25,11.192-25,25c0,13.807,11.193,25,25,25h8.333v16.666h-58.332L299.44,250h8.892c4.602,0,8.333-3.731,8.333-8.333
					v-33.333c0-4.602-3.731-8.333-8.333-8.333h-58.958c-2.634-18.058-13.554-33.849-29.517-42.691
					c13.213-29.382,0.104-63.912-29.279-77.125c-29.382-13.212-63.912-0.104-77.125,29.279c-2.292,5.098-3.84,10.499-4.596,16.039
					c-45.683-4.941-86.723,28.085-91.665,73.769c-0.026,0.244-0.052,0.487-0.076,0.731H8.333c-4.602,0-8.333,3.731-8.333,8.333
					v33.333c0,4.602,3.731,8.333,8.333,8.333h8.875l16.125,242.215c0.291,4.387,3.938,7.792,8.333,7.783h449.999
					c4.602,0,8.333-3.731,8.333-8.333V325C499.998,311.192,488.806,300,474.998,300z M267.94,16.667h32.058v50h16.667v-50h16.667
					v16.667h16.666V16.667h50v25h16.667v-25h16.667v50h16.666v-50h32.059l-14.283,100h-185.55L267.94,16.667z M283.332,158.334v-25
					h183.333v25H283.332z M383.332,175v125h-16.667V175H383.332z M299.998,216.667v16.667H174.999v-16.667H299.998z
					 M108.086,142.192c2.291,0.284,4.564,0.688,6.813,1.208c0.092,0,0.184,0,0.274,0c9.777,2.3,18.91,6.768,26.726,13.075
					l10.483-12.958c-8.02-6.43-17.156-11.328-26.95-14.45c2.394-22.827,22.837-39.393,45.665-37
					c22.826,2.393,39.393,22.837,37,45.665c-0.707,6.741-3.053,13.208-6.831,18.835c-2.56,3.824-1.536,9,2.288,11.561
					c0.585,0.391,1.217,0.706,1.879,0.939c13.789,4.868,24.017,16.607,26.949,30.933h-65.717c-4.602,0-8.334,3.731-8.334,8.333v75
					c0,4.603-3.73,8.333-8.332,8.333c-4.603,0-8.334-3.73-8.334-8.333v-16.667c0-13.807-11.192-25-25-25c-13.807,0-25,11.193-25,25
					V325c0,4.602-3.731,8.333-8.333,8.333S75,329.602,75,325V208.333c0-4.602-3.731-8.333-8.333-8.333H33.892
					C38.417,163.548,71.634,137.667,108.086,142.192z M16.667,233.333v-16.667h41.667v16.667H16.667z M233.332,391.666v91.666
					H49.466L33.908,250h24.425v75c0,13.807,11.193,25,25,25s25-11.193,25-25v-58.334c0-4.602,3.731-8.332,8.333-8.332
					s8.334,3.73,8.334,8.332v16.667c0,13.808,11.191,25,25,25c13.807,0,24.999-11.192,24.999-25V250h107.759l-7.759,116.666h-16.667
					C244.525,366.666,233.332,377.859,233.332,391.666z M483.331,483.332h-25v-41.666h-16.666v41.666h-25v-41.666h-16.667v41.666
					h-25v-41.666h-16.666v41.666h-25v-41.666h-16.667v41.666h-24.999v-41.666h-16.667v41.666h-25v-66.666h233.332V483.332z
					 M483.331,399.999H249.999v-8.333c0-4.602,3.731-8.333,8.333-8.333h183.333c13.807,0,25-11.192,25-25s-11.193-25-25-25h-100
					c-4.602,0-8.333-3.731-8.333-8.333c0-4.603,3.731-8.334,8.333-8.334h133.333c4.602,0,8.333,3.731,8.333,8.334V399.999z
					 M366.665,366.666V350h16.667v16.666H366.665z M399.998,366.666V350h41.667c4.602,0,8.333,3.73,8.333,8.333
					s-3.731,8.333-8.333,8.333H399.998z"/>
			</g>
		</g>
		<g>
			<g>
				<polygon fill="#EE2138" points="33.333,83.334 33.333,66.667 16.667,66.667 16.667,83.334 0,83.334 0,100 16.667,100 
					16.667,116.667 33.333,116.667 33.333,100 50,100 50,83.334 				"/>
			</g>
		</g>
		<g>
			<g>
				<polygon fill="#EE2138" points="474.998,233.333 474.998,216.667 458.331,216.667 458.331,233.333 441.665,233.333 441.665,250 
					458.331,250 458.331,266.666 474.998,266.666 474.998,250 491.665,250 491.665,233.333 				"/>
			</g>
		</g>
		<g>
			<g>
				<polygon fill="#EE2138" points="158.332,16.667 158.332,0.001 141.666,0.001 141.666,16.667 125,16.667 125,33.334 
					141.666,33.334 141.666,50.001 158.332,50.001 158.332,33.334 174.999,33.334 174.999,16.667 				"/>
			</g>
		</g>
		<g>
			<g>
				<rect x="299.998" y="83.334" fill="#EE2138" width="16.667" height="16.667"/>
			</g>
		</g>
	</g>
</g>
<g id="Layer_8" display="none">
	<g display="inline">
		<g>
			<g>
				<path fill="#EE2138" d="M250,0C153.074,0,74.219,78.855,74.219,175.781c0,32.748,9.071,64.707,26.239,92.434l139.536,224.86
					c2.673,4.308,7.382,6.925,12.446,6.925c0.039,0,0.077,0,0.116,0c5.108-0.04,9.827-2.738,12.451-7.121L400.987,265.84
					c16.221-27.141,24.794-58.282,24.794-90.059C425.781,78.855,346.926,0,250,0z M375.846,250.799L252.219,457.213l-126.86-204.434
					c-14.29-23.078-22.038-49.703-22.038-76.998c0-80.771,65.908-146.68,146.68-146.68s146.582,65.908,146.582,146.68
					C396.582,202.267,389.345,228.211,375.846,250.799z"/>
			</g>
		</g>
		<g>
			<g>
				<path fill="#EE2138" d="M250,87.891c-48.463,0-87.891,39.428-87.891,87.891c0,48.153,38.786,87.891,87.891,87.891
					c49.71,0,87.891-40.267,87.891-87.891C337.891,127.318,298.463,87.891,250,87.891z M250,234.57
					c-32.478,0-58.789-26.399-58.789-58.789c0-32.309,26.48-58.789,58.789-58.789s58.691,26.48,58.691,58.789
					C308.691,207.698,282.992,234.57,250,234.57z"/>
			</g>
		</g>
	</g>
</g>
<g id="Layer_9">
	<path id="XMLID_440_" fill="#EE2138" d="M390.315,90.909h-51.479c-5.211-16.896-13.826-32.302-25.019-45.455h76.496
		c12.552,0,22.728-10.176,22.728-22.727C413.042,10.176,402.866,0,390.314,0H109.682C97.131,0,86.955,10.176,86.955,22.728
		c0,0.003,0,0.004,0,0.007c0,0.001,0,0.004,0,0.007c0,12.552,10.176,22.728,22.727,22.728h106.061c0.245,0,0.489-0.004,0.732-0.012
		c32.007,0.277,59.743,18.702,73.457,45.452h-180.25c-12.551,0-22.727,10.176-22.727,22.727c0,12.552,10.176,22.728,22.727,22.728
		h189.036c-3.843,42.411-39.58,75.757-82.975,75.757H109.682c-12.551,0-22.727,10.176-22.727,22.728c0,0.001,0,0.004,0,0.007
		c0,0.001,0,0.005,0,0.008c0,12.551,10.176,22.727,22.727,22.727h106.061c0.245,0,0.489-0.005,0.732-0.013
		c45.614,0.395,82.601,37.625,82.601,83.331v136.363c0,12.552,10.176,22.728,22.728,22.728s22.728-10.176,22.728-22.728V340.909
		c0-43.95-22.143-82.811-55.845-106.061c31.75-21.905,53.223-57.667,55.604-98.485h46.027c12.552,0,22.728-10.176,22.728-22.728
		C413.045,101.085,402.869,90.909,390.315,90.909z"/>
</g>
</svg>
