<?xml version="1.0" encoding="utf-8"?>
<!-- Generator: Adobe Illustrator 17.0.0, SVG Export Plug-In . SVG Version: 6.00 Build 0)  -->
<!DOCTYPE svg PUBLIC "-//W3C//DTD SVG 1.1//EN" "http://www.w3.org/Graphics/SVG/1.1/DTD/svg11.dtd">
<svg version="1.1" id="Layer_1" xmlns="http://www.w3.org/2000/svg" xmlns:xlink="http://www.w3.org/1999/xlink" x="0px" y="0px"
	 width="512px" height="512px" viewBox="0 0 512 512" enable-background="new 0 0 512 512" xml:space="preserve">
<g>
	<g>
		<path fill="#353640" d="M232.146,384.541l-34.59,26.45l0.032,0.136c4.417,17.658,9.569,33.515,15.319,47.137l24.15,30.066
			l28.947-25.784c-3.667-14.827,0.586-30.489,10.586-44.127l-0.03,0.012c-0.007,0.001-0.016,0.001-0.023,0.002l0.052-0.016l0,0l0,0
			l0,0l0,0L232.146,384.541z"/>
		<path fill="#353640" d="M357.782,328.874l6.933,52.101c16.589,1.549,31.267,7.499,41.519,16.971l41.546-6.142l-8.436-40.256
			c0,0-24.505-4.201-40.034-35.776L357.782,328.874z"/>
		<path fill="#353640" d="M232.146,127.46l-34.59-26.45l0.032-0.136c4.417-17.658,9.569-33.515,15.319-47.136l24.149-30.066
			l28.947,25.784c-3.667,14.827,0.586,30.489,10.586,44.127l-0.03-0.012c-0.007-0.001-0.016-0.001-0.023-0.002l0.052,0.016l0,0l0,0
			l0,0l0,0L232.146,127.46z"/>
		<path fill="#353640" d="M357.782,183.126l6.933-52.101c16.589-1.549,31.267-7.499,41.519-16.971l41.546,6.142l-8.436,40.256
			c0,0-24.505,4.201-40.034,35.776L357.782,183.126z"/>
	</g>
	<g>
		<path fill="#515262" d="M512,256c0,68.38-26.629,132.667-74.98,181.02S324.38,512,256,512s-132.667-26.629-181.02-74.98
			S0,324.38,0,256S26.629,123.333,74.98,74.98S187.62,0,256,0s132.667,26.629,181.02,74.98S512,187.62,512,256z M49.214,256
			c0,114.023,92.765,206.786,206.786,206.786S462.786,370.021,462.786,256S370.021,49.214,256,49.214
			C141.977,49.214,49.214,141.979,49.214,256z"/>
		<path fill="#515262" d="M197.557,410.992c0.068,0.028,32.425,13.288,79.005,7.44l0.03-0.012
			c10.708-14.605,28.012-26.89,49.321-33.323c13.305-4.016,26.572-5.262,38.802-4.121c0-0.001-1.891-28.112,34.594-65.203l0,0l0,0
			c4.481-18.664,6.924-38.79,6.924-59.772c0-20.982-2.443-41.107-6.924-59.772c-36.485-37.091-34.594-65.203-34.594-65.203l0,0
			c-12.231,1.142-25.497-0.106-38.802-4.121c-21.309-6.432-38.611-18.717-49.321-33.323l-0.03-0.012
			c-46.579-5.848-78.936,7.411-79.005,7.44c-10.754,43.024-17.145,96.727-17.145,154.992S186.803,367.967,197.557,410.992z"/>
	</g>
	<circle fill="#353640" cx="256.006" cy="255.994" r="32.647"/>
</g>
</svg>
