<?xml version="1.0" encoding="utf-8"?>
<!-- Generator: Adobe Illustrator 16.0.0, SVG Export Plug-In . SVG Version: 6.00 Build 0)  -->
<!DOCTYPE svg PUBLIC "-//W3C//DTD SVG 1.1//EN" "http://www.w3.org/Graphics/SVG/1.1/DTD/svg11.dtd">
<svg version="1.1" xmlns="http://www.w3.org/2000/svg" xmlns:xlink="http://www.w3.org/1999/xlink" x="0px" y="0px" width="500px"
	 height="500px" viewBox="0 0 500 500" enable-background="new 0 0 500 500" xml:space="preserve">
<g id="Layer_1" display="none">
	<g display="inline">
		<g>
			<g>
				<path fill="#F99F1C" d="M497.593,487.265L394.162,386.334c2.778-6.646,4.318-13.935,4.318-21.577V123.6
					c0-31.007-25.135-56.142-56.142-56.142h-85.823V53.493c10.367-1.866,18.26-10.949,18.26-21.846V14.847h13.352
					c12.975,0,23.493,10.519,23.493,23.493v3.61c0,4.065,3.132,7.609,7.194,7.731c4.203,0.127,7.652-3.244,7.652-7.42v-3.923
					C326.467,17.165,309.301,0,288.127,0h-20.775h-39.005h-20.773c-21.174,0-38.34,17.166-38.34,38.34v3.61
					c0,4.065,3.132,7.609,7.194,7.731c4.203,0.127,7.652-3.244,7.652-7.42v-3.923c0-12.975,10.519-23.493,23.493-23.493h13.352
					v16.802c0,11.754,9.18,21.396,20.744,22.151V67.46h-17.977c-4.1,0-7.423,3.323-7.423,7.423s3.323,7.423,7.423,7.423h118.648
					c22.808,0,41.295,18.489,41.295,41.295v241.156c0,22.807-18.489,41.295-41.295,41.295h-40.302v-11.539
					c0-15.82-12.824-28.645-28.645-28.645h-51.083c-15.82,0-28.645,12.825-28.645,28.645v11.539h-40.302
					c-22.808,0-41.295-18.489-41.295-41.295V123.6c0-22.808,18.49-41.295,41.295-41.295h35.688c4.1,0,7.423-3.323,7.423-7.423
					s-3.323-7.423-7.423-7.423h-35.688c-31.007,0-56.142,25.135-56.142,56.142v241.156c0,8.196,1.779,15.979,4.951,23.007
					L2.238,485.285c-2.934,2.863-2.991,7.563-0.128,10.497c1.455,1.49,3.383,2.239,5.313,2.239c1.869,0,3.74-0.702,5.185-2.11
					l97.618-95.265c3.653,4.384,7.965,8.193,12.774,11.299l-55.277,74.218c-2.448,3.288-1.769,7.938,1.52,10.388
					c1.331,0.992,2.887,1.47,4.428,1.47c2.266,0,4.502-1.033,5.959-2.99l14.377-19.305h310.328l15.854,21.284
					c1.458,1.957,3.693,2.99,5.959,2.99c1.689,0,3.395-0.574,4.805-1.77c3.02-2.56,3.356-7.117,0.992-10.292l-57.484-77.18
					c4.506-3.155,8.524-6.954,11.931-11.264l100.832,98.395c1.443,1.408,3.314,2.11,5.184,2.11c1.93,0,3.859-0.748,5.313-2.239
					C500.585,494.827,500.528,490.127,497.593,487.265z M243.127,39.006c-4.057-0.001-7.357-3.301-7.357-7.357V14.847h24.158v16.802
					c0,4.057-3.299,7.357-7.357,7.357H243.127z M208.509,394.513c0-7.609,6.19-13.799,13.799-13.799h51.084
					c7.609,0,13.799,6.19,13.799,13.799v11.539H208.51L208.509,394.513L208.509,394.513z M393.279,460.881H105.065l31.654-42.5
					c5.261,1.635,10.85,2.518,16.641,2.518h47.725h93.529h47.725c6.576,0,12.886-1.146,18.755-3.232L393.279,460.881z"/>
			</g>
		</g>
		<g>
			<g>
				<path fill="#F99F1C" d="M360.681,132.786h-76.464c-3.449-16.919-18.443-29.689-36.367-29.689
					c-17.922,0-32.917,12.77-36.367,29.689h-76.458c-4.1,0-7.423,3.324-7.423,7.423v142.527c0,4.1,3.323,7.422,7.423,7.422h144.093
					c4.1,0,7.422-3.322,7.422-7.422s-3.322-7.424-7.422-7.424h-136.67V147.633h69.034c3.447,16.921,18.444,29.694,36.369,29.694
					c17.924,0,32.92-12.772,36.367-29.694h69.04v127.679h-39.499c-4.1,0-7.423,3.324-7.423,7.424s3.323,7.422,7.423,7.422h46.922
					c4.1,0,7.423-3.322,7.423-7.422V140.209h0.001C368.104,136.11,364.78,132.786,360.681,132.786z M247.85,162.48
					c-12.279,0-22.269-9.989-22.269-22.269c0-12.28,9.99-22.269,22.269-22.269s22.268,9.989,22.268,22.269
					C270.117,152.491,260.129,162.48,247.85,162.48z"/>
			</g>
		</g>
		<g>
			<g>
				<path fill="#F99F1C" d="M193.149,303.025h-58.125c-4.1,0-7.423,3.324-7.423,7.424v29.688c0,4.1,3.323,7.422,7.423,7.422h58.125
					c4.1,0,7.423-3.322,7.423-7.422v-29.688C200.572,306.35,197.249,303.025,193.149,303.025z M185.725,332.713h-43.278v-14.84
					h43.278V332.713z"/>
			</g>
		</g>
		<g>
			<g>
				<path fill="#F99F1C" d="M360.681,303.025h-58.126c-4.1,0-7.424,3.324-7.424,7.424v29.688c0,4.1,3.324,7.422,7.424,7.422h58.126
					c4.1,0,7.423-3.322,7.423-7.422v-29.688C368.104,306.35,364.78,303.025,360.681,303.025z M353.258,332.713h-43.279v-14.84
					h43.279V332.713z"/>
			</g>
		</g>
	</g>
</g>
<g id="Layer_2" display="none">
	<g display="inline">
		<g>
			<g>
				<path fill="#F99F1C" d="M401.864,194.916H96.78c-4.677,0-8.474,3.796-8.474,8.474v254.236c0,23.366,18.971,42.374,42.289,42.374
					h237.458c23.318,0,42.289-19.008,42.289-42.374V203.39C410.341,198.712,406.544,194.916,401.864,194.916z M393.386,457.626
					c0,14.019-11.364,25.424-25.34,25.424H130.593c-13.971,0-25.339-11.403-25.339-25.424V211.863h288.132V457.626L393.386,457.626z
					"/>
			</g>
		</g>
		<g>
			<g>
				<path fill="#F99F1C" d="M249.322,0c-32.711,0-59.321,26.61-59.321,59.321c0,4.677,3.796,8.474,8.474,8.474
					s8.474-3.796,8.474-8.474c0-23.366,19.008-42.374,42.374-42.374c23.365,0,42.374,19.008,42.374,42.374
					c0,4.677,3.795,8.474,8.473,8.474s8.475-3.796,8.475-8.474C308.646,26.61,282.035,0,249.322,0z"/>
			</g>
		</g>
		<g>
			<g>
				<path fill="#F99F1C" d="M274.775,355.932h-50.907c-28.021,0-50.818,22.792-50.818,50.805v84.787
					c0,4.678,3.796,8.474,8.474,8.474h135.594c4.678,0,8.474-3.796,8.474-8.474v-84.787
					C325.593,378.721,302.799,355.932,274.775,355.932z M308.646,483.05H190.001v-76.313c0-18.67,15.194-33.855,33.868-33.855
					h50.907c18.673,0,33.868,15.188,33.868,33.855v76.313H308.646z"/>
			</g>
		</g>
		<g>
			<g>
				<path fill="#F99F1C" d="M427.288,305.084c-18.69,0-33.897,15.22-33.897,33.928v67.737c0,18.708,15.207,33.928,33.897,33.928
					s33.897-15.22,33.897-33.928v-67.737C461.188,320.304,445.98,305.084,427.288,305.084z M444.237,406.749
					c0,9.365-7.602,16.979-16.949,16.979s-16.95-7.619-16.95-16.979v-67.737c0-9.365,7.603-16.98,16.95-16.98
					s16.949,7.615,16.949,16.98V406.749z"/>
			</g>
		</g>
		<g>
			<g>
				<path fill="#F99F1C" d="M71.356,305.084c-18.69,0-33.897,15.22-33.897,33.928v67.737c0,18.708,15.207,33.928,33.897,33.928
					c18.69,0,33.897-15.22,33.897-33.928v-67.737C105.256,320.304,90.049,305.084,71.356,305.084z M88.306,406.749
					c0,9.365-7.602,16.979-16.95,16.979c-9.348,0-16.95-7.619-16.95-16.979v-67.737c0-9.365,7.602-16.98,16.95-16.98
					c9.348,0,16.95,7.615,16.95,16.98V406.749z"/>
			</g>
		</g>
		<g>
			<g>
				<path fill="#F99F1C" d="M401.852,50.842H96.797c-23.373,0-42.386,19.038-42.386,42.436v76.146
					c0,23.398,19.013,42.436,42.386,42.436h305.054c23.373,0,42.386-19.038,42.386-42.436V93.278
					C444.237,69.88,425.225,50.842,401.852,50.842z M427.285,169.433c0,14.055-11.411,25.488-25.436,25.488H96.792
					c-14.025,0-25.436-11.436-25.436-25.488V93.286c0-14.055,11.411-25.488,25.436-25.488h305.054
					c14.025,0,25.437,11.436,25.437,25.488v76.147H427.285z"/>
			</g>
		</g>
		<g>
			<g>
				<path fill="#F99F1C" d="M215.425,161.016h-50.848c-4.678,0-8.474,3.796-8.474,8.474v67.797c0,4.677,3.796,8.474,8.474,8.474
					h50.848c4.677,0,8.474-3.796,8.474-8.474v-67.795C223.898,164.814,220.102,161.016,215.425,161.016z M206.951,228.813h-33.9
					v-50.847h33.897v50.847H206.951z"/>
			</g>
		</g>
		<g>
			<g>
				<path fill="#F99F1C" d="M334.069,161.016h-50.848c-4.678,0-8.474,3.796-8.474,8.474v67.797c0,4.677,3.796,8.474,8.474,8.474
					h50.848c4.678,0,8.474-3.796,8.474-8.474v-67.795C342.543,164.814,338.747,161.016,334.069,161.016z M325.593,228.813h-33.896
					v-50.847h33.896V228.813z"/>
			</g>
		</g>
	</g>
</g>
<g id="Layer_3">
	<g>
		<g>
			<g>
				<path fill="#F99F1C" d="M492.599,265.887h-9.563c-8.012,0-14.529-6.518-14.529-14.529s6.517-14.529,14.528-14.529h9.563
					c4.089,0,7.401-3.313,7.401-7.402v-44.404c0-4.088-3.313-7.4-7.401-7.4h-9.563c-8.012,0-14.529-6.518-14.529-14.529V160.4
					l10.856-9.945c2.943-2.696,3.219-7.241,0.622-10.273l-28.892-33.719c-1.277-1.491-3.095-2.413-5.052-2.563
					c-1.961-0.164-3.896,0.482-5.384,1.759l-7.263,6.224c-6.084,5.212-15.275,4.503-20.487-1.58
					c-2.525-2.946-3.752-6.701-3.453-10.571c0.298-3.869,2.085-7.391,5.033-9.916l7.263-6.224c3.104-2.659,3.465-7.332,0.805-10.436
					l-28.893-33.719c-2.658-3.103-7.331-3.465-10.436-0.805l-7.264,6.223c-2.947,2.525-6.7,3.754-10.57,3.453
					c-3.869-0.298-7.391-2.085-9.916-5.033l-9.689-11.31c-1.277-1.491-3.095-2.413-5.052-2.563c-1.964-0.15-3.895,0.48-5.384,1.759
					L207.395,140.797h-21.127c-4.09,0-7.402,3.313-7.402,7.401c0,4.089,3.313,7.402,7.402,7.402h267.436v7.492
					c0,16.174,13.158,29.332,29.332,29.332h2.162v29.602h-2.162c-16.174,0-29.332,13.158-29.332,29.332s13.158,29.332,29.332,29.332
					h2.162v29.602h-2.162c-16.174,0-29.332,13.156-29.332,29.33V356.4h-51.176c-4.089,0-7.401,3.313-7.401,7.402
					c0,4.088,3.313,7.4,7.401,7.4h58.577c4.089,0,7.401-3.313,7.401-7.4v-24.182c0-8.01,6.518-14.527,14.529-14.527h9.563
					c4.089,0,7.401-3.313,7.401-7.402v-44.404C500,269.199,496.688,265.887,492.599,265.887z M230.146,140.797L339.36,47.219
					l4.874,5.689c5.097,5.95,12.207,9.559,20.019,10.16c7.811,0.601,15.39-1.873,21.34-6.971l1.644-1.407l19.261,22.478
					l-1.643,1.408c-12.281,10.522-13.713,29.076-3.188,41.358c10.524,12.281,29.078,13.712,41.358,3.188l1.643-1.408l16.351,19.082
					H230.146z"/>
			</g>
		</g>
		<g>
			<g>
				<path fill="#F99F1C" d="M337.563,356.4H46.298v-7.492c0-16.174-13.158-29.332-29.332-29.332h-2.163v-29.602h2.163
					c16.174,0,29.332-13.158,29.332-29.332s-13.158-29.332-29.332-29.332h-2.163v-29.602h2.163
					c16.174,0,29.332-13.158,29.332-29.332v-16.779h84.465c4.089,0,7.401-3.313,7.401-7.401s-3.313-7.401-7.401-7.401H38.896
					c-4.089,0-7.401,3.313-7.401,7.401v24.18c0,8.012-6.518,14.529-14.529,14.529H7.401c-4.089,0-7.401,3.313-7.401,7.402v44.404
					c0,4.088,3.313,7.4,7.401,7.4h9.564c8.011,0,14.529,6.518,14.529,14.529s-6.518,14.529-14.529,14.529H7.401
					c-4.089,0-7.401,3.313-7.401,7.402v44.404c0,4.088,3.313,7.4,7.401,7.4h9.564c8.011,0,14.529,6.518,14.529,14.529v4.002
					l-10.457,8.293c-1.577,1.25-2.576,3.088-2.77,5.09c-0.192,2.002,0.438,3.998,1.748,5.525l28.891,33.719
					c1.277,1.491,3.095,2.413,5.052,2.563c1.957,0.163,3.895-0.481,5.384-1.759l7.264-6.224c2.947-2.526,6.701-3.761,10.57-3.453
					c3.869,0.298,7.391,2.085,9.916,5.033c5.213,6.084,4.504,15.274-1.58,20.487l-7.263,6.223
					c-3.104,2.659-3.465,7.332-0.805,10.436l28.891,33.72c2.659,3.104,7.332,3.467,10.436,0.805l7.264-6.223
					c2.946-2.525,6.712-3.755,10.57-3.453c3.869,0.298,7.39,2.085,9.916,5.033l9.689,11.309c1.464,1.708,3.538,2.586,5.624,2.586
					c1.704,0,3.416-0.585,4.812-1.781l127.731-109.442c0.07-0.062,0.133-0.128,0.201-0.191h44.981c4.089,0,7.401-3.313,7.401-7.401
					S341.652,356.4,337.563,356.4z M160.639,464.78l-4.874-5.688c-5.097-5.95-12.206-9.559-20.019-10.16
					c-7.811-0.606-15.389,1.873-21.339,6.971l-1.644,1.407l-19.261-22.479l1.643-1.407c5.949-5.098,9.559-12.207,10.16-20.02
					c0.602-7.812-1.873-15.391-6.971-21.34c-5.097-5.949-12.206-9.559-20.019-10.16c-7.81-0.592-15.39,1.875-21.34,6.971
					l-1.643,1.408l-16.352-19.082h230.871L160.639,464.78z"/>
			</g>
		</g>
		<g>
			<g>
				<path fill="#F99F1C" d="M417.869,175.494H207.037c-4.088,0-7.4,3.313-7.4,7.4c0,4.09,3.313,7.402,7.4,7.402h203.431v131.406
					H89.532V190.297h60.939c4.089,0,7.401-3.313,7.401-7.402c0-4.088-3.313-7.4-7.401-7.4h-68.34c-4.089,0-7.401,3.313-7.401,7.4
					v146.209c0,4.09,3.313,7.402,7.401,7.402H417.87c4.089,0,7.401-3.313,7.401-7.402V182.895
					C425.271,178.807,421.958,175.494,417.869,175.494z"/>
			</g>
		</g>
		<g>
			<g>
				<path fill="#F99F1C" d="M153,223.604h-40.873c-2.706,0-3.962,2.9-3.962,5.605c0,3.092,1.449,5.701,3.962,5.701h14.205v55.367
					c0,2.609,3.093,3.961,6.28,3.961c3.093,0,6.281-1.352,6.281-3.961V234.91h14.107c2.513,0,3.962-2.707,3.962-5.701
					C156.962,226.504,155.707,223.604,153,223.604z"/>
			</g>
		</g>
		<g>
			<g>
				<path fill="#F99F1C" d="M170.103,223.604c-3.188,0-6.28,1.16-6.28,3.865v62.809c0,2.609,3.092,3.961,6.28,3.961
					c3.093,0,6.28-1.352,6.28-3.961v-62.809C176.383,224.764,173.196,223.604,170.103,223.604z"/>
			</g>
		</g>
		<g>
			<g>
				<path fill="#F99F1C" d="M226.244,269.502c-3.285,0-5.99,0.967-6.184,3.961c-0.291,4.059-1.063,10.34-9.855,10.34
					c-6.668,0-10.34-3.576-10.34-11.113V245.73c0-7.537,3.672-11.113,10.146-11.113c9.178,0,9.855,6.572,10.049,9.566
					c0.096,2.9,2.707,3.963,6.281,3.963c4.25,0,6.281-1.16,6.281-6.186c0-11.209-9.568-18.359-23-18.359
					c-12.174,0-22.32,5.99-22.32,22.129v26.959c0,16.137,10.051,22.127,22.225,22.127c13.527,0,23.096-7.439,23.096-19.133
					C232.623,270.756,230.592,269.502,226.244,269.502z"/>
			</g>
		</g>
		<g>
			<g>
				<path fill="#F99F1C" d="M288.275,286.219l-21.064-32.08l17.295-21.645c0.676-0.869,0.773-1.74,0.773-2.416
					c0-3.189-4.059-6.475-7.248-6.475c-1.352,0-2.512,0.482-3.477,1.836l-20.873,28.408v-26.379c0-2.705-3.188-3.865-6.279-3.865
					c-3.189,0-6.281,1.16-6.281,3.865h0.002v62.809c0,2.609,3.092,3.961,6.279,3.961c3.094,0,6.281-1.352,6.281-3.961v-18.939
					l5.219-6.57l18.166,27.539c1.063,1.738,2.705,2.416,4.348,2.416c3.672,0,7.535-3.188,7.535-6.281
					C288.951,287.67,288.758,286.896,288.275,286.219z"/>
			</g>
		</g>
		<g>
			<g>
				<path fill="#F99F1C" d="M334.364,283.225h-27.347v-19.424h14.688c2.706,0,3.962-2.609,3.962-4.832
					c0-2.609-1.449-5.025-3.962-5.025h-14.688v-19.324h27.347c2.513,0,3.962-2.609,3.962-5.605c0-2.607-1.257-5.41-3.962-5.41
					h-34.399c-2.803,0-5.508,1.352-5.508,3.961v62.713c0,2.609,2.705,3.961,5.508,3.961h34.399c2.706,0,3.962-2.801,3.962-5.41
					C338.326,285.834,336.877,283.225,334.364,283.225z"/>
			</g>
		</g>
		<g>
			<g>
				<path fill="#F99F1C" d="M385.865,223.604h-40.873c-2.706,0-3.962,2.9-3.962,5.605c0,3.092,1.449,5.701,3.962,5.701h14.205
					v55.367c0,2.609,3.093,3.961,6.28,3.961c3.093,0,6.281-1.352,6.281-3.961V234.91h14.107c2.513,0,3.962-2.707,3.962-5.701
					C389.827,226.504,388.571,223.604,385.865,223.604z"/>
			</g>
		</g>
	</g>
</g>
</svg>
