<?xml version="1.0" encoding="utf-8"?>
<!-- Generator: Adobe Illustrator 16.0.0, SVG Export Plug-In . SVG Version: 6.00 Build 0)  -->
<!DOCTYPE svg PUBLIC "-//W3C//DTD SVG 1.1//EN" "http://www.w3.org/Graphics/SVG/1.1/DTD/svg11.dtd">
<svg version="1.1" id="Capa_1" xmlns="http://www.w3.org/2000/svg" xmlns:xlink="http://www.w3.org/1999/xlink" x="0px" y="0px"
	 width="500px" height="500px" viewBox="0 0 500 500" enable-background="new 0 0 500 500" xml:space="preserve">
<g>
	<g>
		<g>
			<path fill="#F71634" d="M350.49,100.491H149.509c-4.625,0-8.374,3.75-8.374,8.375v117.239c0,4.625,3.75,8.375,8.374,8.375H350.49
				c4.625,0,8.375-3.75,8.375-8.375V108.865C358.865,104.24,355.115,100.491,350.49,100.491z M342.116,217.73H157.883V117.239
				h184.233V217.73z"/>
		</g>
	</g>
	<g>
		<g>
			<path fill="#F71634" d="M174.632,251.227c-18.5,0-33.497,14.998-33.497,33.497c0,18.5,14.997,33.497,33.497,33.497
				c18.5,0,33.497-14.997,33.497-33.497C208.129,266.225,193.132,251.227,174.632,251.227z M174.632,301.473
				c-9.25,0-16.749-7.498-16.749-16.749s7.498-16.749,16.749-16.749s16.749,7.498,16.749,16.749S183.882,301.473,174.632,301.473z"
				/>
		</g>
	</g>
	<g>
		<g>
			<path fill="#F71634" d="M325.368,251.227c-18.5,0-33.497,14.998-33.497,33.497c0,18.5,14.997,33.497,33.497,33.497
				s33.497-14.997,33.497-33.497C358.865,266.225,343.868,251.227,325.368,251.227z M325.368,301.473
				c-9.251,0-16.749-7.498-16.749-16.749s7.498-16.749,16.749-16.749c9.25,0,16.748,7.498,16.748,16.749
				S334.618,301.473,325.368,301.473z"/>
		</g>
	</g>
	<g>
		<g>
			<rect x="224.877" y="267.975" fill="#F71634" width="50.246" height="16.749"/>
		</g>
	</g>
	<g>
		<g>
			<rect x="224.877" y="301.473" fill="#F71634" width="50.246" height="16.748"/>
		</g>
	</g>
	<g>
		<g>
			<path fill="#F71634" d="M362.332,351.718h4.907c13.875,0,25.123-11.248,25.123-25.123V58.62
				c0-13.875-11.248-25.123-25.123-25.123h-66.994v-8.375C300.245,11.248,288.998,0,275.123,0h-50.246
				c-13.875,0-25.123,11.248-25.123,25.123v8.375h-66.994c-13.875,0-25.123,11.248-25.123,25.123v267.975
				c0,13.875,11.248,25.123,25.123,25.123h4.907L1.227,488.159L13.068,500l47.792-47.792h378.281L486.932,500l11.842-11.841
				L362.332,351.718z M216.503,25.123c0-4.625,3.75-8.374,8.375-8.374h50.246c4.625,0,8.374,3.75,8.374,8.374v8.375h-66.994V25.123z
				 M132.761,334.969c-4.625,0-8.374-3.749-8.374-8.374V58.62c0-4.625,3.75-8.375,8.374-8.375h234.479
				c4.625,0,8.374,3.75,8.374,8.375v267.975c0,4.625-3.749,8.374-8.374,8.374H132.761z M161.351,351.718h177.299l33.497,33.497
				H127.854L161.351,351.718z M77.608,435.46l33.497-33.497h277.79l33.497,33.497H77.608z"/>
		</g>
	</g>
	<g>
		<g>
			<path fill="#F71634" d="M291.871,66.994h-83.742c-4.625,0-8.374,3.75-8.374,8.375c0,4.625,3.75,8.374,8.374,8.374h83.742
				c4.625,0,8.374-3.75,8.374-8.374C300.245,70.743,296.496,66.994,291.871,66.994z"/>
		</g>
	</g>
</g>
</svg>
