<?xml version="1.0" encoding="utf-8"?>
<!-- Generator: Adobe Illustrator 16.0.0, SVG Export Plug-In . SVG Version: 6.00 Build 0)  -->
<!DOCTYPE svg PUBLIC "-//W3C//DTD SVG 1.1//EN" "http://www.w3.org/Graphics/SVG/1.1/DTD/svg11.dtd">
<svg version="1.1" id="Capa_1" xmlns="http://www.w3.org/2000/svg" xmlns:xlink="http://www.w3.org/1999/xlink" x="0px" y="0px"
	 width="500px" height="396.551px" viewBox="0 51.724 500 396.551" enable-background="new 0 51.724 500 396.551"
	 xml:space="preserve">
<g>
	<path fill="#F71634" d="M314.975,242.724l-94.828-60.345c-2.655-1.681-6.017-1.793-8.785-0.285
		c-2.75,1.518-4.465,4.414-4.465,7.561v120.689c0,3.146,1.716,6.043,4.474,7.561c1.293,0.707,2.716,1.06,4.146,1.06
		c1.612,0,3.224-0.456,4.629-1.344l94.828-60.346c2.482-1.586,3.991-4.327,3.991-7.275S317.457,244.311,314.975,242.724z
		 M224.138,294.646v-89.293L294.285,250L224.138,294.646z"/>
	<path fill="#F71634" d="M491.379,51.724h-86.206H94.828H8.621C3.862,51.724,0,55.578,0,60.345v94.828V250v94.828v94.827
		c0,4.768,3.862,8.62,8.621,8.62h86.207h310.345h86.206c4.759,0,8.621-3.853,8.621-8.62v-94.827V250v-94.828V60.345
		C500,55.578,496.138,51.724,491.379,51.724z M86.207,241.379H17.241v-77.586h68.966V241.379z M17.241,258.621h68.966v77.586H17.241
		V258.621z M103.448,344.828V250v-94.828V68.965h293.104v86.207V250v94.828v86.206H103.448V344.828z M482.759,241.379h-68.966
		v-77.586h68.966V241.379z M413.793,258.621h68.966v77.586h-68.966V258.621z M482.759,68.965v77.586h-68.966V68.965H482.759z
		 M17.241,68.965h68.966v77.586H17.241V68.965z M17.241,431.034v-77.586h68.966v77.586H17.241z M482.759,431.034h-68.966v-77.586
		h68.966V431.034z"/>
</g>
</svg>
