<?xml version="1.0" encoding="utf-8"?>
<!-- Generator: Adobe Illustrator 17.0.0, SVG Export Plug-In . SVG Version: 6.00 Build 0)  -->
<!DOCTYPE svg PUBLIC "-//W3C//DTD SVG 1.1//EN" "http://www.w3.org/Graphics/SVG/1.1/DTD/svg11.dtd">
<svg version="1.1" xmlns="http://www.w3.org/2000/svg" xmlns:xlink="http://www.w3.org/1999/xlink" x="0px" y="0px" width="512px"
	 height="512px" viewBox="0 0 512 512" enable-background="new 0 0 512 512" xml:space="preserve">
<g id="Layer_1" display="none">
	<g display="inline">
		<g>
			<g>
				<path fill="#EE2138" d="M506.391,267.163h-9.831c-8.236,0-14.936-6.7-14.936-14.936s6.699-14.936,14.935-14.936h9.831
					c4.203,0,7.609-3.405,7.609-7.609v-45.648c0-4.203-3.405-7.609-7.609-7.609h-9.831c-8.236,0-14.936-6.7-14.936-14.936v-2.767
					l11.16-10.223c3.026-2.772,3.309-7.444,0.64-10.561l-29.701-34.664c-1.313-1.533-3.181-2.481-5.193-2.635
					c-2.016-0.169-4.005,0.496-5.535,1.808l-7.466,6.398c-6.254,5.358-15.703,4.629-21.061-1.624
					c-2.596-3.029-3.857-6.889-3.55-10.867c0.306-3.978,2.143-7.598,5.174-10.194l7.466-6.398c3.191-2.734,3.562-7.537,0.827-10.728
					l-29.701-34.663c-2.733-3.189-7.536-3.562-10.728-0.827l-7.467,6.397c-3.03,2.596-6.888,3.859-10.866,3.55
					c-3.978-0.306-7.598-2.143-10.194-5.174l-9.961-11.626c-1.313-1.533-3.181-2.481-5.193-2.635
					c-2.019-0.155-4.004,0.494-5.535,1.808L213.202,138.571h-21.719c-4.203,0-7.609,3.405-7.609,7.609
					c0,4.203,3.405,7.609,7.609,7.609h274.924v7.702c0,16.627,13.527,30.153,30.153,30.153h2.223v30.43h-2.223
					c-16.627,0-30.153,13.527-30.153,30.153s13.527,30.153,30.153,30.153h2.223v30.43h-2.223c-16.627,0-30.153,13.526-30.153,30.152
					v17.249h-52.609c-4.203,0-7.609,3.405-7.609,7.609s3.405,7.609,7.609,7.609h60.217c4.203,0,7.609-3.405,7.609-7.609v-24.858
					c0-8.235,6.7-14.935,14.936-14.935h9.831c4.203,0,7.609-3.405,7.609-7.609v-45.647C514,270.568,510.595,267.163,506.391,267.163
					z M236.59,138.571l112.273-96.198l5.01,5.849c5.239,6.117,12.549,9.826,20.579,10.445c8.029,0.617,15.82-1.925,21.937-7.166
					l1.69-1.447l19.8,23.107l-1.689,1.448c-12.625,10.817-14.097,29.89-3.278,42.516c10.819,12.625,29.892,14.096,42.516,3.278
					l1.689-1.448l16.808,19.616H236.59L236.59,138.571z"/>
			</g>
		</g>
		<g>
			<g>
				<path fill="#EE2138" d="M347.016,360.211H47.594v-7.701c0-16.627-13.527-30.153-30.153-30.153h-2.224v-30.43h2.224
					c16.627,0,30.153-13.527,30.153-30.153c0-16.627-13.527-30.153-30.153-30.153h-2.224v-30.43h2.224
					c16.627,0,30.153-13.527,30.153-30.153v-17.249h86.831c4.203,0,7.609-3.405,7.609-7.609c0-4.203-3.405-7.609-7.609-7.609H39.986
					c-4.203,0-7.609,3.405-7.609,7.609v24.858c0,8.235-6.7,14.936-14.936,14.936H7.609c-4.203,0-7.609,3.405-7.609,7.609v45.648
					c0,4.203,3.405,7.609,7.609,7.609h9.832c8.235,0,14.936,6.7,14.936,14.936c0,8.236-6.7,14.936-14.936,14.936H7.609
					c-4.203,0-7.609,3.405-7.609,7.609v45.648c0,4.203,3.405,7.609,7.609,7.609h9.832c8.235,0,14.936,6.7,14.936,14.936v4.114
					l-10.75,8.525c-1.621,1.285-2.648,3.174-2.847,5.231c-0.198,2.058,0.451,4.11,1.797,5.68l29.7,34.664
					c1.313,1.533,3.181,2.481,5.193,2.635c2.012,0.168,4.004-0.495,5.535-1.808l7.467-6.398c3.03-2.597,6.889-3.866,10.866-3.55
					c3.977,0.306,7.597,2.143,10.194,5.174c5.359,6.254,4.63,15.702-1.624,21.061l-7.466,6.397
					c-3.192,2.734-3.562,7.537-0.827,10.728l29.699,34.664c2.734,3.191,7.537,3.564,10.728,0.827l7.467-6.397
					c3.029-2.596,6.9-3.86,10.866-3.55c3.978,0.306,7.598,2.143,10.194,5.174l9.961,11.625c1.505,1.756,3.637,2.658,5.781,2.658
					c1.752,0,3.512-0.601,4.946-1.831l131.307-112.507c0.073-0.063,0.137-0.132,0.208-0.197h46.241c4.203,0,7.609-3.405,7.609-7.609
					C354.62,363.619,351.219,360.211,347.016,360.211z M165.137,471.626l-5.01-5.848c-5.239-6.117-12.548-9.826-20.579-10.445
					c-8.03-0.623-15.821,1.926-21.937,7.166l-1.69,1.447l-19.8-23.108l1.689-1.447c6.116-5.24,9.826-12.549,10.445-20.58
					c0.618-8.03-1.925-15.822-7.166-21.937c-5.239-6.117-12.548-9.826-20.579-10.445c-8.028-0.609-15.821,1.927-21.937,7.166
					l-1.689,1.448l-16.809-19.616h237.335L165.137,471.626z"/>
			</g>
		</g>
		<g>
			<g>
				<path fill="#EE2138" d="M429.069,174.24H212.334c-4.203,0-7.609,3.405-7.609,7.609c0,4.203,3.405,7.609,7.609,7.609h209.126
					v135.085H91.539V189.457h62.646c4.203,0,7.609-3.405,7.609-7.609c0-4.203-3.405-7.609-7.609-7.609H83.93
					c-4.203,0-7.609,3.406-7.609,7.609v150.303c0,4.203,3.405,7.609,7.609,7.609h345.14c4.203,0,7.609-3.405,7.609-7.609V181.848
					C436.678,177.645,433.273,174.24,429.069,174.24z"/>
			</g>
		</g>
		<g>
			<g>
				<g>
					<g>
						<path fill="#EE2138" d="M190.743,261.301h-27.998c-1.854,0-2.714,1.986-2.714,3.839c0,2.118,0.993,3.905,2.714,3.905h9.73
							v37.926c0,1.787,2.118,2.714,4.302,2.714c2.118,0,4.303-0.926,4.303-2.714v-37.926h9.664c1.721,0,2.714-1.854,2.714-3.905
							C193.457,263.287,192.596,261.301,190.743,261.301z"/>
					</g>
				</g>
				<g>
					<g>
						<path fill="#EE2138" d="M202.458,261.301c-2.184,0-4.302,0.794-4.302,2.647v43.024c0,1.787,2.118,2.714,4.302,2.714
							c2.119,0,4.302-0.926,4.302-2.714v-43.024C206.76,262.095,204.576,261.301,202.458,261.301z"/>
					</g>
				</g>
				<g>
					<g>
						<path fill="#EE2138" d="M240.915,292.74c-2.25,0-4.104,0.662-4.236,2.714c-0.199,2.78-0.728,7.082-6.751,7.082
							c-4.567,0-7.082-2.449-7.082-7.612v-18.467c0-5.163,2.515-7.613,6.95-7.613c6.287,0,6.751,4.501,6.884,6.553
							c0.066,1.986,1.854,2.714,4.302,2.714c2.912,0,4.303-0.794,4.303-4.236c0-7.679-6.554-12.576-15.754-12.576
							c-8.34,0-15.289,4.103-15.289,15.158v18.467c0,11.054,6.884,15.158,15.224,15.158c9.266,0,15.82-5.097,15.82-13.106
							C245.284,293.6,243.893,292.74,240.915,292.74z"/>
					</g>
				</g>
				<g>
					<g>
						<path fill="#EE2138" d="M283.406,304.192l-14.43-21.975l11.848-14.827c0.463-0.595,0.529-1.191,0.529-1.654
							c0-2.185-2.78-4.435-4.964-4.435c-0.926,0-1.721,0.331-2.382,1.258l-14.297,19.46v-18.07c0-1.853-2.183-2.647-4.302-2.647
							c-2.184,0-4.302,0.794-4.302,2.647h0.001v43.024c0,1.787,2.118,2.714,4.302,2.714c2.119,0,4.302-0.926,4.302-2.714v-12.973
							l3.575-4.501l12.444,18.864c0.728,1.191,1.853,1.654,2.978,1.654c2.515,0,5.162-2.183,5.162-4.302
							C283.869,305.185,283.737,304.656,283.406,304.192z"/>
					</g>
				</g>
				<g>
					<g>
						<path fill="#EE2138" d="M314.977,302.14h-18.732v-13.305h10.062c1.854,0,2.714-1.787,2.714-3.31
							c0-1.787-0.993-3.442-2.714-3.442h-10.062v-13.238h18.732c1.721,0,2.714-1.788,2.714-3.839c0-1.787-0.861-3.707-2.714-3.707
							h-23.564c-1.92,0-3.773,0.927-3.773,2.714v42.958c0,1.787,1.853,2.714,3.773,2.714h23.564c1.854,0,2.714-1.919,2.714-3.707
							C317.691,303.928,316.698,302.14,314.977,302.14z"/>
					</g>
				</g>
				<g>
					<g>
						<path fill="#EE2138" d="M350.255,261.301h-27.998c-1.854,0-2.714,1.986-2.714,3.839c0,2.118,0.993,3.905,2.714,3.905h9.73
							v37.926c0,1.787,2.118,2.714,4.302,2.714c2.118,0,4.303-0.926,4.303-2.714v-37.926h9.664c1.721,0,2.714-1.854,2.714-3.905
							C352.969,263.287,352.109,261.301,350.255,261.301z"/>
					</g>
				</g>
			</g>
			<text transform="matrix(1 0 0 1 229.5003 252)" fill="#EE2138" font-family="'Narkisim'" font-size="72">M</text>
		</g>
	</g>
</g>
<g id="Layer_2">
	<g>
		<path fill="#EE2138" d="M238.034,370.806l0.055-0.009l-0.911-11.285c-1.545-19.039-6.567-39.034-15.792-62.911
			c-2.603-6.742-4.056-14.357-4.645-22.047c-1.297-16.979,2.051-34.426,9.685-44.295c1.49-1.931,2.722-4.084,3.946-6.245
			c5.123-9.041,7.983-19.867,7.937-31.354v-0.009v-0.009c-0.009-0.911-0.046-1.748-0.101-2.594l-0.386-13.033l-0.248,0.064
			c-5.684-66.498-44.81-84.093-57.715-88.205c-1.113-1.941-2.649-5.721-3.688-12.711c-0.074-0.524-0.258-0.993-0.368-1.499
			c9.961-3.32,17.19-8.876,17.19-17.42v-36.79c0-15.838-24.769-21.458-45.988-21.458s-45.988,5.62-45.988,21.458v36.79
			c0,8.545,7.229,14.091,17.181,17.411c-0.12,0.497-0.294,0.975-0.368,1.49c-1.039,7.027-2.575,10.798-4.029,12.932
			c-12.591,3.918-51.699,21.504-57.374,88.011l-0.331-0.092l-0.304,13.171c-0.046,0.809-0.083,1.619-0.092,2.493
			c-0.083,14.238,4.139,27.593,11.883,37.618c6.926,8.958,10.43,24.18,10.035,39.623c-0.156,6.181-0.938,12.389-2.364,18.248
			c-0.717,2.925-1.591,5.767-2.64,8.471c-2.309,5.969-4.35,11.69-6.144,17.218c-5.381,16.583-8.489,31.4-9.648,45.693
			c-2.796,34.592-5.371,82.585-1.812,115.245c0.331,16.666,15.939,36.229,87.386,36.229c59.977,0,95.986-13.53,96.574-36.22
			C242.183,445.49,240.444,404,238.034,370.806z M76.388,351.455c0.248-1.692,0.46-3.375,0.773-5.105
			c0.487-2.732,1.131-5.555,1.784-8.379c0.386-1.692,0.717-3.348,1.159-5.077c0.809-3.146,1.812-6.429,2.824-9.722
			c0.469-1.536,0.855-3.008,1.37-4.58c1.619-4.93,3.431-10.025,5.491-15.36c7.459-19.315,7.974-42.962,2.649-62.175
			c-2.345-8.443-5.693-16.114-10.283-22.047c-0.055-0.074-0.101-0.166-0.156-0.239c-1.104-1.453-2.069-3.044-2.952-4.7
			c-0.276-0.524-0.524-1.067-0.773-1.6c-0.653-1.38-1.223-2.824-1.729-4.314c-0.175-0.515-0.368-1.021-0.524-1.545
			c-0.552-1.876-0.975-3.835-1.288-5.84c20.722,4.35,45.868,6.714,72.284,6.714s51.552-2.364,72.274-6.705
			c-0.313,2.014-0.745,3.964-1.297,5.84c-0.156,0.524-0.349,1.03-0.524,1.545c-0.497,1.49-1.076,2.916-1.72,4.295
			c-0.258,0.543-0.506,1.094-0.782,1.619c-0.929,1.748-1.931,3.421-3.1,4.939c-9.391,12.15-14.219,31.152-13.898,50.485
			c0.193,11.598,2.235,23.316,6.264,33.737c2.069,5.353,3.881,10.448,5.5,15.387c0.506,1.536,0.874,2.962,1.334,4.461
			c1.021,3.33,2.033,6.641,2.851,9.814c0.451,1.757,0.782,3.431,1.177,5.151c0.635,2.787,1.269,5.565,1.757,8.259
			c0.331,1.821,0.552,3.587,0.809,5.371c0.258,1.747,0.469,3.495,0.662,5.215c-19.959,4.498-44.921,6.935-71.309,6.935
			s-51.35-2.447-71.309-6.935C75.9,355.097,76.121,353.285,76.388,351.455z M119.423,22.458c2.906-1.812,12.058-5.068,27.593-5.068
			s24.686,3.256,27.593,5.068v32.78c-2.373,1.472-8.986,3.9-19.775,4.746c-5.086,0.368-10.568,0.368-15.636,0
			c-10.78-0.846-17.402-3.274-19.775-4.746V22.458z M119.285,106.644c4.636-1.444,8.48-4.516,10.826-8.627
			c2.759-4.801,4.755-11.258,6.512-19.747c0.239,0.018,0.515,0.009,0.763,0.028c3.228,0.267,6.466,0.405,9.63,0.405
			c3.605,0,7.073-0.156,10.963,0.129c1.168,7.901,3.164,14.357,5.923,19.168c2.355,4.13,6.208,7.192,10.853,8.636
			c9.915,3.081,40.966,17.429,44.764,75.218c-20.133,4.663-45.509,7.22-72.495,7.22c-26.976,0-52.352-2.557-72.495-7.229
			C78.31,124.064,109.37,109.725,119.285,106.644z M220.66,473.193l-0.055,1.012c0,4.718-19.25,18.395-78.188,18.395
			c-54.578,0-69-12.04-69-18.395l-0.055-1.012c-3.008-27.022-1.499-65.864,0.745-97.844c20.869,4.442,46.254,6.88,72.909,6.88
			s52.04-2.437,72.909-6.88C222.16,407.311,223.668,446.134,220.66,473.193z"/>
		<path fill="#EE2138" d="M145.286,43.787c5.086,0,9.198-4.111,9.198-9.198s-4.111-9.198-9.198-9.198h-9.198
			c-5.086,0-9.198,4.111-9.198,9.198s4.111,9.198,9.198,9.198H145.286z"/>
		<path fill="#EE2138" d="M132.86,455.727c-17.347,0.681-23.592-3.375-25.459-5.178c-1.619-1.554-1.784-3.008-1.83-3.008
			c0,0,0,0.009-0.009,0.028l0.064-10.154c0-5.086-4.111-9.198-9.198-9.198s-9.198,4.111-9.198,9.198v8.719
			c-0.285,4.341,1.196,11.019,6.356,16.602c7.064,7.616,18.984,11.46,35.503,11.46c1.453,0,2.952-0.028,4.479-0.092
			c5.077-0.193,9.023-4.47,8.83-9.547C142.205,459.471,137.542,455.516,132.86,455.727z"/>
		<path fill="#EE2138" d="M96.429,419.02c5.086,0,9.198-4.111,9.198-9.198v-9.29c0-5.086-4.111-9.198-9.198-9.198
			c-5.086,0-9.198,4.111-9.198,9.198v9.29C87.231,414.909,91.343,419.02,96.429,419.02z"/>
		<path fill="#EE2138" d="M103.999,170.539c0.561,0.101,1.095,0.147,1.637,0.147c4.378,0,8.241-3.127,9.041-7.57
			c3.67-20.538,21.807-29.763,22.58-30.15c4.544-2.226,6.438-7.708,4.24-12.27c-2.207-4.553-7.671-6.466-12.288-4.277
			c-1.104,0.543-27.28,13.502-32.642,43.449C95.675,164.864,99.004,169.647,103.999,170.539z"/>
	</g>
	<g>
		<path fill="#EE2138" d="M462.968,370.806l0.055-0.009l-0.911-11.285c-1.545-19.039-6.567-39.034-15.792-62.911
			c-2.603-6.742-4.056-14.357-4.645-22.047c-1.297-16.979,2.051-34.426,9.685-44.295c1.49-1.931,2.723-4.084,3.946-6.245
			c5.123-9.041,7.983-19.867,7.937-31.354v-0.009v-0.009c-0.009-0.911-0.046-1.748-0.101-2.594l-0.386-13.033l-0.248,0.064
			c-5.684-66.498-44.81-84.093-57.715-88.205c-1.113-1.941-2.649-5.721-3.688-12.711c-0.074-0.524-0.258-0.993-0.368-1.499
			c9.961-3.32,17.19-8.876,17.19-17.42v-36.79c0-15.838-24.769-21.458-45.988-21.458c-21.219,0-45.988,5.62-45.988,21.458v36.79
			c0,8.545,7.229,14.091,17.181,17.411c-0.12,0.497-0.294,0.975-0.368,1.49c-1.039,7.027-2.575,10.798-4.029,12.932
			c-12.591,3.918-51.699,21.504-57.374,88.011l-0.331-0.092l-0.304,13.171c-0.046,0.809-0.083,1.619-0.092,2.493
			c-0.083,14.238,4.139,27.593,11.883,37.618c6.926,8.958,10.43,24.18,10.035,39.623c-0.156,6.181-0.938,12.389-2.364,18.248
			c-0.717,2.925-1.591,5.767-2.64,8.471c-2.309,5.969-4.35,11.69-6.144,17.218c-5.381,16.583-8.489,31.4-9.648,45.693
			c-2.796,34.592-5.371,82.585-1.812,115.245c0.331,16.666,15.939,36.229,87.386,36.229c59.977,0,95.986-13.53,96.574-36.22
			C467.116,445.49,465.378,404,462.968,370.806z M301.321,351.455c0.248-1.692,0.46-3.375,0.773-5.105
			c0.487-2.732,1.131-5.555,1.784-8.379c0.386-1.692,0.717-3.348,1.159-5.077c0.809-3.146,1.812-6.429,2.824-9.722
			c0.469-1.536,0.855-3.008,1.37-4.58c1.619-4.93,3.431-10.025,5.491-15.36c7.459-19.315,7.974-42.962,2.649-62.175
			c-2.345-8.443-5.693-16.114-10.283-22.047c-0.055-0.074-0.101-0.166-0.156-0.239c-1.104-1.453-2.069-3.044-2.952-4.7
			c-0.276-0.524-0.524-1.067-0.773-1.6c-0.653-1.38-1.223-2.824-1.729-4.314c-0.175-0.515-0.368-1.021-0.524-1.545
			c-0.552-1.876-0.975-3.835-1.288-5.84c20.722,4.35,45.868,6.714,72.284,6.714s51.552-2.364,72.274-6.705
			c-0.313,2.014-0.745,3.964-1.297,5.84c-0.156,0.524-0.349,1.03-0.524,1.545c-0.497,1.49-1.076,2.916-1.72,4.295
			c-0.258,0.543-0.506,1.094-0.782,1.619c-0.929,1.748-1.931,3.421-3.1,4.939c-9.391,12.15-14.219,31.152-13.897,50.485
			c0.193,11.598,2.235,23.316,6.264,33.737c2.069,5.353,3.881,10.448,5.5,15.387c0.506,1.536,0.874,2.962,1.334,4.461
			c1.021,3.33,2.033,6.641,2.851,9.814c0.451,1.757,0.782,3.431,1.177,5.151c0.635,2.787,1.269,5.565,1.757,8.259
			c0.331,1.821,0.552,3.587,0.809,5.371c0.258,1.747,0.469,3.495,0.662,5.215c-19.959,4.498-44.921,6.935-71.309,6.935
			c-26.388,0-51.35-2.447-71.309-6.935C300.834,355.097,301.055,353.285,301.321,351.455z M344.357,22.458
			c2.906-1.812,12.058-5.068,27.593-5.068c15.535,0,24.686,3.256,27.593,5.068v32.78c-2.373,1.472-8.986,3.9-19.775,4.746
			c-5.086,0.368-10.568,0.368-15.636,0c-10.78-0.846-17.402-3.274-19.775-4.746V22.458z M344.219,106.644
			c4.636-1.444,8.48-4.516,10.826-8.627c2.759-4.801,4.755-11.258,6.512-19.747c0.239,0.018,0.515,0.009,0.763,0.028
			c3.228,0.267,6.466,0.405,9.63,0.405c3.605,0,7.073-0.156,10.964,0.129c1.168,7.901,3.164,14.357,5.923,19.168
			c2.355,4.13,6.208,7.192,10.853,8.636c9.915,3.081,40.966,17.429,44.764,75.218c-20.133,4.663-45.509,7.22-72.495,7.22
			c-26.976,0-52.352-2.557-72.495-7.229C303.244,124.064,334.304,109.725,344.219,106.644z M445.594,473.193l-0.055,1.012
			c0,4.718-19.25,18.395-78.188,18.395c-54.578,0-69-12.04-69-18.395l-0.055-1.012c-3.008-27.022-1.499-65.864,0.745-97.844
			c20.869,4.442,46.254,6.88,72.909,6.88s52.04-2.437,72.909-6.88C447.093,407.311,448.602,446.134,445.594,473.193z"/>
		<path fill="#EE2138" d="M370.22,43.787c5.086,0,9.198-4.111,9.198-9.198s-4.111-9.198-9.198-9.198h-9.198
			c-5.086,0-9.198,4.111-9.198,9.198s4.111,9.198,9.198,9.198H370.22z"/>
		<path fill="#EE2138" d="M357.794,455.727c-17.347,0.681-23.592-3.375-25.459-5.178c-1.619-1.554-1.784-3.008-1.83-3.008
			c0,0,0,0.009-0.009,0.028l0.064-10.154c0-5.086-4.111-9.198-9.198-9.198s-9.198,4.111-9.198,9.198v8.719
			c-0.285,4.341,1.196,11.019,6.355,16.602c7.064,7.616,18.984,11.46,35.503,11.46c1.453,0,2.952-0.028,4.479-0.092
			c5.077-0.193,9.023-4.47,8.83-9.547C367.139,459.471,362.476,455.516,357.794,455.727z"/>
		<path fill="#EE2138" d="M321.363,419.02c5.086,0,9.198-4.111,9.198-9.198v-9.29c0-5.086-4.111-9.198-9.198-9.198
			s-9.198,4.111-9.198,9.198v9.29C312.165,414.909,316.277,419.02,321.363,419.02z"/>
		<path fill="#EE2138" d="M328.932,170.539c0.561,0.101,1.094,0.147,1.637,0.147c4.378,0,8.241-3.127,9.041-7.57
			c3.67-20.538,21.807-29.763,22.58-30.15c4.544-2.226,6.438-7.708,4.24-12.27c-2.207-4.553-7.671-6.466-12.288-4.277
			c-1.104,0.543-27.28,13.502-32.642,43.449C320.609,164.864,323.938,169.647,328.932,170.539z"/>
	</g>
</g>
</svg>
