<?xml version="1.0" encoding="utf-8"?>
<!-- Generator: Adobe Illustrator 16.0.0, SVG Export Plug-In . SVG Version: 6.00 Build 0)  -->
<!DOCTYPE svg PUBLIC "-//W3C//DTD SVG 1.1//EN" "http://www.w3.org/Graphics/SVG/1.1/DTD/svg11.dtd">
<svg version="1.1" id="Capa_1" xmlns="http://www.w3.org/2000/svg" xmlns:xlink="http://www.w3.org/1999/xlink" x="0px" y="0px"
	 width="500px" height="356.294px" viewBox="0 71.876 500 356.294" enable-background="new 0 71.876 500 356.294"
	 xml:space="preserve">
<g>
	<path fill="#F71634" d="M497.332,174.137C431.376,108.172,343.529,71.848,250,71.848S68.633,108.163,2.668,174.137
		c-3.561,3.561-3.561,9.315,0,12.876s9.316,3.561,12.876,0C78.067,124.481,161.333,90.051,250,90.051
		c88.666,0,171.933,34.43,234.456,96.953c1.775,1.775,4.106,2.668,6.438,2.668s4.663-0.893,6.438-2.668
		C500.893,183.452,500.893,177.688,497.332,174.137z"/>
	<path fill="#F71634" d="M56.194,227.653c-3.561,3.561-3.561,9.316,0,12.876c1.776,1.775,4.107,2.668,6.438,2.668
		c2.332,0,4.663-0.893,6.438-2.668c99.757-99.767,262.084-99.767,361.851,0c3.561,3.561,9.315,3.561,12.876,0s3.561-9.316,0-12.876
		C336.945,120.802,163.063,120.784,56.194,227.653z"/>
	<path fill="#F71634" d="M250,223.173c-53.043,0-102.854,20.607-140.271,58.015c-3.561,3.561-3.561,9.315,0,12.876
		s9.315,3.561,12.876,0c33.975-33.966,79.214-52.679,127.395-52.679s93.42,18.713,127.395,52.679
		c1.776,1.775,4.107,2.668,6.438,2.668s4.662-0.893,6.438-2.668c3.56-3.561,3.56-9.315,0-12.876
		C352.863,243.78,303.043,223.173,250,223.173z"/>
	<path fill="#F71634" d="M250,308.844c-32.892,0-59.654,26.764-59.654,59.664s26.763,59.663,59.654,59.663
		c32.9,0,59.663-26.763,59.663-59.663S282.9,308.844,250,308.844z M250,409.949c-22.856,0-41.442-18.595-41.442-41.451
		s18.595-41.451,41.442-41.451c22.848,0,41.451,18.595,41.451,41.451S272.856,409.949,250,409.949z"/>
</g>
</svg>
